<svg width="346" height="273" viewBox="0 0 346 273" fill="none" xmlns="http://www.w3.org/2000/svg">
<path d="M329.003 0H17.0744C10.9582 0 6 4.95818 6 11.0744V484.505C6 490.621 10.9582 495.58 17.0744 495.58H329.003C335.12 495.58 340.078 490.621 340.078 484.505V11.0744C340.078 4.95818 335.12 0 329.003 0Z" fill="white"/>
<g filter="url(#filter0_d_866_4121)">
<rect x="11" y="11" width="324.1" height="220.5" rx="11.2" fill="white"/>
<path d="M22.3034 38.1V29.9545H23.779V33.4028H27.5534V29.9545H29.033V38.1H27.5534V34.6397H23.779V38.1H22.3034ZM33.2389 38.2193C32.6423 38.2193 32.1253 38.088 31.6878 37.8255C31.2503 37.563 30.9109 37.1958 30.6696 36.7238C30.431 36.2519 30.3116 35.7004 30.3116 35.0693C30.3116 34.4382 30.431 33.8854 30.6696 33.4108C30.9109 32.9361 31.2503 32.5676 31.6878 32.3051C32.1253 32.0426 32.6423 31.9113 33.2389 31.9113C33.8355 31.9113 34.3526 32.0426 34.7901 32.3051C35.2276 32.5676 35.5656 32.9361 35.8043 33.4108C36.0455 33.8854 36.1662 34.4382 36.1662 35.0693C36.1662 35.7004 36.0455 36.2519 35.8043 36.7238C35.5656 37.1958 35.2276 37.563 34.7901 37.8255C34.3526 38.088 33.8355 38.2193 33.2389 38.2193ZM33.2469 37.0659C33.5704 37.0659 33.8408 36.9771 34.0582 36.7994C34.2757 36.6191 34.4374 36.3778 34.5435 36.0755C34.6522 35.7733 34.7065 35.4365 34.7065 35.0653C34.7065 34.6915 34.6522 34.3534 34.5435 34.0511C34.4374 33.7462 34.2757 33.5036 34.0582 33.3233C33.8408 33.143 33.5704 33.0528 33.2469 33.0528C32.9154 33.0528 32.6397 33.143 32.4196 33.3233C32.2022 33.5036 32.0391 33.7462 31.9304 34.0511C31.8243 34.3534 31.7713 34.6915 31.7713 35.0653C31.7713 35.4365 31.8243 35.7733 31.9304 36.0755C32.0391 36.3778 32.2022 36.6191 32.4196 36.7994C32.6397 36.9771 32.9154 37.0659 33.2469 37.0659ZM37.3882 38.1V31.9909H38.7842V33.0091H38.8479C38.9592 32.6564 39.1501 32.3846 39.4206 32.1937C39.6937 32.0002 40.0053 31.9034 40.3553 31.9034C40.4348 31.9034 40.5236 31.9074 40.6217 31.9153C40.7225 31.9206 40.806 31.9299 40.8723 31.9432V33.2676C40.8113 33.2464 40.7145 33.2278 40.582 33.2119C40.452 33.1933 40.3261 33.1841 40.2041 33.1841C39.9416 33.1841 39.7056 33.2411 39.4962 33.3551C39.2893 33.4665 39.1263 33.6216 39.007 33.8204C38.8876 34.0193 38.828 34.2486 38.828 34.5085V38.1H37.3882ZM43.4774 38.2233C43.0903 38.2233 42.7416 38.1543 42.4314 38.0165C42.1238 37.8759 41.8799 37.6691 41.6996 37.396C41.5219 37.1229 41.4331 36.7861 41.4331 36.3858C41.4331 36.0411 41.4967 35.756 41.624 35.5307C41.7513 35.3053 41.925 35.125 42.145 34.9897C42.3651 34.8545 42.613 34.7524 42.8888 34.6835C43.1672 34.6119 43.4549 34.5602 43.7518 34.5284C44.1098 34.4913 44.4001 34.4581 44.6229 34.429C44.8456 34.3971 45.0073 34.3494 45.1081 34.2858C45.2115 34.2195 45.2632 34.1174 45.2632 33.9795V33.9557C45.2632 33.656 45.1744 33.424 44.9967 33.2596C44.8191 33.0952 44.5632 33.013 44.2291 33.013C43.8765 33.013 43.5967 33.0899 43.3899 33.2437C43.1857 33.3975 43.0479 33.5791 42.9763 33.7886L41.632 33.5977C41.738 33.2265 41.913 32.9163 42.157 32.667C42.4009 32.4151 42.6992 32.2269 43.0518 32.1022C43.4045 31.975 43.7943 31.9113 44.2212 31.9113C44.5155 31.9113 44.8085 31.9458 45.1001 32.0147C45.3918 32.0837 45.6583 32.1977 45.8996 32.3568C46.1409 32.5132 46.3344 32.7267 46.4803 32.9971C46.6287 33.2676 46.703 33.6057 46.703 34.0113V38.1H45.3189V37.2608H45.2712C45.1837 37.4305 45.0604 37.5896 44.9013 37.738C44.7448 37.8839 44.5473 38.0019 44.3087 38.092C44.0727 38.1795 43.7956 38.2233 43.4774 38.2233ZM43.8513 37.1653C44.1403 37.1653 44.3909 37.1083 44.603 36.9943C44.8151 36.8776 44.9782 36.7238 45.0922 36.5329C45.2089 36.342 45.2672 36.1339 45.2672 35.9085V35.1886C45.2221 35.2257 45.1452 35.2602 45.0365 35.292C44.9304 35.3238 44.8111 35.3517 44.6786 35.3755C44.546 35.3994 44.4147 35.4206 44.2848 35.4392C44.1549 35.4577 44.0422 35.4736 43.9467 35.4869C43.732 35.5161 43.5397 35.5638 43.37 35.6301C43.2003 35.6964 43.0664 35.7892 42.9683 35.9085C42.8702 36.0252 42.8212 36.1763 42.8212 36.3619C42.8212 36.6271 42.9179 36.8272 43.1115 36.9625C43.3051 37.0977 43.5517 37.1653 43.8513 37.1653ZM52.9791 33.6057L51.6666 33.7488C51.6295 33.6163 51.5645 33.4916 51.4717 33.375C51.3816 33.2583 51.2596 33.1642 51.1058 33.0926C50.952 33.021 50.7638 32.9852 50.541 32.9852C50.2414 32.9852 49.9895 33.0502 49.7854 33.1801C49.5839 33.31 49.4844 33.4784 49.4871 33.6852C49.4844 33.8629 49.5494 34.0074 49.682 34.1187C49.8172 34.2301 50.0399 34.3216 50.3501 34.3932L51.3922 34.6159C51.9702 34.7405 52.3998 34.938 52.6808 35.2085C52.9645 35.479 53.1077 35.8329 53.1104 36.2704C53.1077 36.6549 52.995 36.9943 52.7723 37.2886C52.5522 37.5803 52.246 37.8083 51.8535 37.9727C51.4611 38.1371 51.0104 38.2193 50.5013 38.2193C49.7536 38.2193 49.1517 38.0629 48.6956 37.75C48.2395 37.4344 47.9678 36.9956 47.8803 36.4335L49.2842 36.2983C49.3479 36.574 49.4831 36.7822 49.6899 36.9227C49.8967 37.0632 50.1659 37.1335 50.4973 37.1335C50.8393 37.1335 51.1138 37.0632 51.3206 36.9227C51.5301 36.7822 51.6348 36.6085 51.6348 36.4017C51.6348 36.2267 51.5672 36.0822 51.432 35.9682C51.2994 35.8541 51.0926 35.7666 50.8115 35.7057L49.7695 35.4869C49.1835 35.3649 48.75 35.1594 48.4689 34.8704C48.1878 34.5788 48.0486 34.2102 48.0513 33.7647C48.0486 33.3882 48.1507 33.0621 48.3575 32.7863C48.567 32.5079 48.8573 32.2932 49.2286 32.142C49.6024 31.9882 50.0333 31.9113 50.5212 31.9113C51.2371 31.9113 51.8005 32.0638 52.2115 32.3687C52.6251 32.6736 52.881 33.086 52.9791 33.6057ZM59.3428 38.2074C58.8628 38.2074 58.4333 38.0841 58.0541 37.8375C57.675 37.5909 57.3753 37.2329 57.1553 36.7636C56.9352 36.2943 56.8251 35.7242 56.8251 35.0534C56.8251 34.3746 56.9365 33.8019 57.1592 33.3352C57.3846 32.8659 57.6882 32.5119 58.07 32.2733C58.4518 32.032 58.8774 31.9113 59.3467 31.9113C59.7047 31.9113 59.999 31.9723 60.2297 32.0943C60.4604 32.2136 60.6433 32.3581 60.7786 32.5278C60.9138 32.6949 61.0185 32.8526 61.0928 33.0011H61.1524V29.9545H62.5962V38.1H61.1803V37.1375H61.0928C61.0185 37.286 60.9111 37.4437 60.7706 37.6108C60.6301 37.7752 60.4445 37.9157 60.2138 38.0324C59.9831 38.149 59.6928 38.2074 59.3428 38.2074ZM59.7445 37.0261C60.0494 37.0261 60.3092 36.9439 60.524 36.7795C60.7388 36.6125 60.9018 36.3805 61.0132 36.0835C61.1246 35.7865 61.1803 35.4405 61.1803 35.0454C61.1803 34.6504 61.1246 34.307 61.0132 34.0153C60.9045 33.7236 60.7428 33.4969 60.528 33.3352C60.3159 33.1735 60.0547 33.0926 59.7445 33.0926C59.4236 33.0926 59.1558 33.1761 58.9411 33.3432C58.7263 33.5102 58.5645 33.7409 58.4558 34.0352C58.3471 34.3295 58.2928 34.6663 58.2928 35.0454C58.2928 35.4272 58.3471 35.768 58.4558 36.0676C58.5672 36.3646 58.7303 36.5992 58.945 36.7716C59.1625 36.9413 59.4289 37.0261 59.7445 37.0261ZM66.8349 38.2193C66.2224 38.2193 65.6935 38.092 65.248 37.8375C64.8052 37.5803 64.4645 37.217 64.2259 36.7477C63.9872 36.2757 63.8679 35.7202 63.8679 35.0812C63.8679 34.4528 63.9872 33.9013 64.2259 33.4267C64.4671 32.9494 64.8039 32.5782 65.2361 32.313C65.6683 32.0452 66.176 31.9113 66.7594 31.9113C67.1359 31.9113 67.4912 31.9723 67.8253 32.0943C68.162 32.2136 68.459 32.3992 68.7162 32.6511C68.976 32.903 69.1802 33.2238 69.3287 33.6136C69.4772 34.0007 69.5514 34.4621 69.5514 34.9977V35.4392H64.544V34.4687H68.1713C68.1687 34.193 68.109 33.9477 67.9923 33.7329C67.8757 33.5155 67.7126 33.3445 67.5031 33.2199C67.2963 33.0952 67.055 33.0329 66.7793 33.0329C66.4849 33.0329 66.2264 33.1045 66.0037 33.2477C65.781 33.3882 65.6073 33.5738 65.4827 33.8045C65.3607 34.0326 65.2984 34.2831 65.2957 34.5562V35.4034C65.2957 35.7587 65.3607 36.0636 65.4906 36.3182C65.6205 36.5701 65.8022 36.7636 66.0355 36.8988C66.2688 37.0314 66.542 37.0977 66.8548 37.0977C67.0643 37.0977 67.2539 37.0685 67.4236 37.0102C67.5933 36.9492 67.7404 36.8604 67.8651 36.7437C67.9897 36.6271 68.0838 36.4826 68.1474 36.3102L69.4918 36.4613C69.4069 36.8166 69.2452 37.1269 69.0065 37.392C68.7705 37.6545 68.4683 37.8587 68.0997 38.0045C67.7312 38.1477 67.3096 38.2193 66.8349 38.2193ZM76.2521 38.2193C75.6396 38.2193 75.1107 38.092 74.6652 37.8375C74.2224 37.5803 73.8817 37.217 73.643 36.7477C73.4044 36.2757 73.2851 35.7202 73.2851 35.0812C73.2851 34.4528 73.4044 33.9013 73.643 33.4267C73.8843 32.9494 74.2211 32.5782 74.6533 32.313C75.0855 32.0452 75.5932 31.9113 76.1766 31.9113C76.5531 31.9113 76.9084 31.9723 77.2425 32.0943C77.5792 32.2136 77.8762 32.3992 78.1334 32.6511C78.3932 32.903 78.5974 33.2238 78.7459 33.6136C78.8944 34.0007 78.9686 34.4621 78.9686 34.9977V35.4392H73.9612V34.4687H77.5885C77.5858 34.193 77.5262 33.9477 77.4095 33.7329C77.2928 33.5155 77.1298 33.3445 76.9203 33.2199C76.7135 33.0952 76.4722 33.0329 76.1964 33.0329C75.9021 33.0329 75.6436 33.1045 75.4209 33.2477C75.1982 33.3882 75.0245 33.5738 74.8999 33.8045C74.7779 34.0326 74.7156 34.2831 74.7129 34.5562V35.4034C74.7129 35.7587 74.7779 36.0636 74.9078 36.3182C75.0377 36.5701 75.2194 36.7636 75.4527 36.8988C75.686 37.0314 75.9591 37.0977 76.272 37.0977C76.4815 37.0977 76.6711 37.0685 76.8408 37.0102C77.0105 36.9492 77.1576 36.8604 77.2822 36.7437C77.4069 36.6271 77.501 36.4826 77.5646 36.3102L78.9089 36.4613C78.8241 36.8166 78.6624 37.1269 78.4237 37.392C78.1877 37.6545 77.8855 37.8587 77.5169 38.0045C77.1483 38.1477 76.7268 38.2193 76.2521 38.2193ZM85.0151 33.6057L83.7026 33.7488C83.6654 33.6163 83.6005 33.4916 83.5077 33.375C83.4175 33.2583 83.2955 33.1642 83.1418 33.0926C82.988 33.021 82.7997 32.9852 82.577 32.9852C82.2774 32.9852 82.0255 33.0502 81.8213 33.1801C81.6198 33.31 81.5204 33.4784 81.523 33.6852C81.5204 33.8629 81.5853 34.0074 81.7179 34.1187C81.8531 34.2301 82.0759 34.3216 82.3861 34.3932L83.4281 34.6159C84.0062 34.7405 84.4357 34.938 84.7168 35.2085C85.0005 35.479 85.1437 35.8329 85.1463 36.2704C85.1437 36.6549 85.031 36.9943 84.8082 37.2886C84.5882 37.5803 84.2819 37.8083 83.8895 37.9727C83.4971 38.1371 83.0463 38.2193 82.5372 38.2193C81.7895 38.2193 81.1876 38.0629 80.7315 37.75C80.2755 37.4344 80.0037 36.9956 79.9162 36.4335L81.3202 36.2983C81.3838 36.574 81.519 36.7822 81.7259 36.9227C81.9327 37.0632 82.2018 37.1335 82.5332 37.1335C82.8753 37.1335 83.1497 37.0632 83.3565 36.9227C83.566 36.7822 83.6707 36.6085 83.6707 36.4017C83.6707 36.2267 83.6031 36.0822 83.4679 35.9682C83.3353 35.8541 83.1285 35.7666 82.8474 35.7057L81.8054 35.4869C81.2194 35.3649 80.7859 35.1594 80.5048 34.8704C80.2238 34.5788 80.0846 34.2102 80.0872 33.7647C80.0846 33.3882 80.1866 33.0621 80.3935 32.7863C80.6029 32.5079 80.8933 32.2932 81.2645 32.142C81.6384 31.9882 82.0692 31.9113 82.5571 31.9113C83.273 31.9113 83.8365 32.0638 84.2474 32.3687C84.6611 32.6736 84.9169 33.086 85.0151 33.6057ZM89.3841 31.9909V33.1045H85.8722V31.9909H89.3841ZM86.7392 30.5272H88.179V36.2625C88.179 36.456 88.2081 36.6045 88.2665 36.7079C88.3275 36.8087 88.407 36.8776 88.5051 36.9147C88.6032 36.9519 88.7119 36.9704 88.8312 36.9704C88.9214 36.9704 89.0036 36.9638 89.0778 36.9505C89.1547 36.9373 89.2131 36.9254 89.2528 36.9147L89.4955 38.0403C89.4186 38.0668 89.3085 38.096 89.1653 38.1278C89.0248 38.1596 88.8525 38.1782 88.6483 38.1835C88.2877 38.1941 87.9629 38.1397 87.6739 38.0204C87.3848 37.8985 87.1555 37.7102 86.9858 37.4557C86.8188 37.2011 86.7366 36.8829 86.7392 36.5011V30.5272ZM94.482 35.5307V31.9909H95.9217V38.1H94.5257V37.0142H94.4621C94.3242 37.3562 94.0975 37.636 93.782 37.8534C93.4691 38.0708 93.0833 38.1795 92.6246 38.1795C92.2242 38.1795 91.8702 38.0907 91.5626 37.913C91.2577 37.7327 91.0191 37.4716 90.8467 37.1295C90.6744 36.7848 90.5882 36.3685 90.5882 35.8807V31.9909H92.028V35.6579C92.028 36.0451 92.134 36.3526 92.3462 36.5807C92.5583 36.8087 92.8367 36.9227 93.1814 36.9227C93.3935 36.9227 93.599 36.871 93.7979 36.7676C93.9967 36.6642 94.1598 36.5104 94.2871 36.3062C94.417 36.0994 94.482 35.8409 94.482 35.5307ZM99.6693 38.2074C99.1894 38.2074 98.7598 38.0841 98.3807 37.8375C98.0015 37.5909 97.7019 37.2329 97.4818 36.7636C97.2617 36.2943 97.1517 35.7242 97.1517 35.0534C97.1517 34.3746 97.2631 33.8019 97.4858 33.3352C97.7112 32.8659 98.0148 32.5119 98.3966 32.2733C98.7784 32.032 99.204 31.9113 99.6733 31.9113C100.031 31.9113 100.326 31.9723 100.556 32.0943C100.787 32.2136 100.97 32.3581 101.105 32.5278C101.24 32.6949 101.345 32.8526 101.419 33.0011H101.479V29.9545H102.923V38.1H101.507V37.1375H101.419C101.345 37.286 101.238 37.4437 101.097 37.6108C100.957 37.7752 100.771 37.9157 100.54 38.0324C100.31 38.149 100.019 38.2074 99.6693 38.2074ZM100.071 37.0261C100.376 37.0261 100.636 36.9439 100.851 36.7795C101.065 36.6125 101.228 36.3805 101.34 36.0835C101.451 35.7865 101.507 35.4405 101.507 35.0454C101.507 34.6504 101.451 34.307 101.34 34.0153C101.231 33.7236 101.069 33.4969 100.855 33.3352C100.642 33.1735 100.381 33.0926 100.071 33.0926C99.7502 33.0926 99.4824 33.1761 99.2676 33.3432C99.0528 33.5102 98.8911 33.7409 98.7824 34.0352C98.6737 34.3295 98.6193 34.6663 98.6193 35.0454C98.6193 35.4272 98.6737 35.768 98.7824 36.0676C98.8937 36.3646 99.0568 36.5992 99.2716 36.7716C99.489 36.9413 99.7555 37.0261 100.071 37.0261ZM107.122 38.2193C106.525 38.2193 106.008 38.088 105.571 37.8255C105.133 37.563 104.794 37.1958 104.552 36.7238C104.314 36.2519 104.194 35.7004 104.194 35.0693C104.194 34.4382 104.314 33.8854 104.552 33.4108C104.794 32.9361 105.133 32.5676 105.571 32.3051C106.008 32.0426 106.525 31.9113 107.122 31.9113C107.718 31.9113 108.235 32.0426 108.673 32.3051C109.11 32.5676 109.448 32.9361 109.687 33.4108C109.928 33.8854 110.049 34.4382 110.049 35.0693C110.049 35.7004 109.928 36.2519 109.687 36.7238C109.448 37.1958 109.11 37.563 108.673 37.8255C108.235 38.088 107.718 38.2193 107.122 38.2193ZM107.13 37.0659C107.453 37.0659 107.724 36.9771 107.941 36.7994C108.158 36.6191 108.32 36.3778 108.426 36.0755C108.535 35.7733 108.589 35.4365 108.589 35.0653C108.589 34.6915 108.535 34.3534 108.426 34.0511C108.32 33.7462 108.158 33.5036 107.941 33.3233C107.724 33.143 107.453 33.0528 107.13 33.0528C106.798 33.0528 106.522 33.143 106.302 33.3233C106.085 33.5036 105.922 33.7462 105.813 34.0511C105.707 34.3534 105.654 34.6915 105.654 35.0653C105.654 35.4365 105.707 35.7733 105.813 36.0755C105.922 36.3778 106.085 36.6191 106.302 36.7994C106.522 36.9771 106.798 37.0659 107.13 37.0659ZM116.316 38.2074C115.836 38.2074 115.407 38.0841 115.028 37.8375C114.648 37.5909 114.349 37.2329 114.129 36.7636C113.909 36.2943 113.799 35.7242 113.799 35.0534C113.799 34.3746 113.91 33.8019 114.133 33.3352C114.358 32.8659 114.662 32.5119 115.043 32.2733C115.425 32.032 115.851 31.9113 116.32 31.9113C116.678 31.9113 116.972 31.9723 117.203 32.0943C117.434 32.2136 117.617 32.3581 117.752 32.5278C117.887 32.6949 117.992 32.8526 118.066 33.0011H118.126V29.9545H119.57V38.1H118.154V37.1375H118.066C117.992 37.286 117.885 37.4437 117.744 37.6108C117.604 37.7752 117.418 37.9157 117.187 38.0324C116.957 38.149 116.666 38.2074 116.316 38.2074ZM116.718 37.0261C117.023 37.0261 117.283 36.9439 117.497 36.7795C117.712 36.6125 117.875 36.3805 117.987 36.0835C118.098 35.7865 118.154 35.4405 118.154 35.0454C118.154 34.6504 118.098 34.307 117.987 34.0153C117.878 33.7236 117.716 33.4969 117.501 33.3352C117.289 33.1735 117.028 33.0926 116.718 33.0926C116.397 33.0926 116.129 33.1761 115.914 33.3432C115.7 33.5102 115.538 33.7409 115.429 34.0352C115.321 34.3295 115.266 34.6663 115.266 35.0454C115.266 35.4272 115.321 35.768 115.429 36.0676C115.541 36.3646 115.704 36.5992 115.918 36.7716C116.136 36.9413 116.402 37.0261 116.718 37.0261ZM121.104 38.1V31.9909H122.544V38.1H121.104ZM121.828 31.1238C121.6 31.1238 121.403 31.0483 121.239 30.8971C121.075 30.7433 120.992 30.5591 120.992 30.3443C120.992 30.1269 121.075 29.9426 121.239 29.7915C121.403 29.6377 121.6 29.5608 121.828 29.5608C122.058 29.5608 122.255 29.6377 122.416 29.7915C122.581 29.9426 122.663 30.1269 122.663 30.3443C122.663 30.5591 122.581 30.7433 122.416 30.8971C122.255 31.0483 122.058 31.1238 121.828 31.1238ZM125.782 38.2233C125.395 38.2233 125.046 38.1543 124.736 38.0165C124.428 37.8759 124.185 37.6691 124.004 37.396C123.827 37.1229 123.738 36.7861 123.738 36.3858C123.738 36.0411 123.801 35.756 123.929 35.5307C124.056 35.3053 124.23 35.125 124.45 34.9897C124.67 34.8545 124.918 34.7524 125.193 34.6835C125.472 34.6119 125.76 34.5602 126.057 34.5284C126.414 34.4913 126.705 34.4581 126.928 34.429C127.15 34.3971 127.312 34.3494 127.413 34.2858C127.516 34.2195 127.568 34.1174 127.568 33.9795V33.9557C127.568 33.656 127.479 33.424 127.301 33.2596C127.124 33.0952 126.868 33.013 126.534 33.013C126.181 33.013 125.901 33.0899 125.695 33.2437C125.49 33.3975 125.353 33.5791 125.281 33.7886L123.937 33.5977C124.043 33.2265 124.218 32.9163 124.462 32.667C124.706 32.4151 125.004 32.2269 125.357 32.1022C125.709 31.975 126.099 31.9113 126.526 31.9113C126.82 31.9113 127.113 31.9458 127.405 32.0147C127.696 32.0837 127.963 32.1977 128.204 32.3568C128.446 32.5132 128.639 32.7267 128.785 32.9971C128.933 33.2676 129.008 33.6057 129.008 34.0113V38.1H127.624V37.2608H127.576C127.488 37.4305 127.365 37.5896 127.206 37.738C127.05 37.8839 126.852 38.0019 126.613 38.092C126.377 38.1795 126.1 38.2233 125.782 38.2233ZM126.156 37.1653C126.445 37.1653 126.696 37.1083 126.908 36.9943C127.12 36.8776 127.283 36.7238 127.397 36.5329C127.514 36.342 127.572 36.1339 127.572 35.9085V35.1886C127.527 35.2257 127.45 35.2602 127.341 35.292C127.235 35.3238 127.116 35.3517 126.983 35.3755C126.851 35.3994 126.719 35.4206 126.589 35.4392C126.46 35.4577 126.347 35.4736 126.251 35.4869C126.037 35.5161 125.844 35.5638 125.675 35.6301C125.505 35.6964 125.371 35.7892 125.273 35.9085C125.175 36.0252 125.126 36.1763 125.126 36.3619C125.126 36.6271 125.223 36.8272 125.416 36.9625C125.61 37.0977 125.856 37.1653 126.156 37.1653ZM126.037 31.1875L126.928 29.3699H128.336L127.114 31.1875H126.037ZM130.455 38.1V31.9909H131.851V33.0091H131.915C132.026 32.6564 132.217 32.3846 132.488 32.1937C132.761 32.0002 133.072 31.9034 133.422 31.9034C133.502 31.9034 133.591 31.9074 133.689 31.9153C133.79 31.9206 133.873 31.9299 133.939 31.9432V33.2676C133.879 33.2464 133.782 33.2278 133.649 33.2119C133.519 33.1933 133.393 33.1841 133.271 33.1841C133.009 33.1841 132.773 33.2411 132.563 33.3551C132.357 33.4665 132.193 33.6216 132.074 33.8204C131.955 34.0193 131.895 34.2486 131.895 34.5085V38.1H130.455ZM134.896 38.1V31.9909H136.336V38.1H134.896ZM135.62 31.1238C135.392 31.1238 135.196 31.0483 135.031 30.8971C134.867 30.7433 134.785 30.5591 134.785 30.3443C134.785 30.1269 134.867 29.9426 135.031 29.7915C135.196 29.6377 135.392 29.5608 135.62 29.5608C135.851 29.5608 136.047 29.6377 136.209 29.7915C136.373 29.9426 136.455 30.1269 136.455 30.3443C136.455 30.5591 136.373 30.7433 136.209 30.8971C136.047 31.0483 135.851 31.1238 135.62 31.1238ZM139.574 38.2233C139.187 38.2233 138.838 38.1543 138.528 38.0165C138.221 37.8759 137.977 37.6691 137.796 37.396C137.619 37.1229 137.53 36.7861 137.53 36.3858C137.53 36.0411 137.594 35.756 137.721 35.5307C137.848 35.3053 138.022 35.125 138.242 34.9897C138.462 34.8545 138.71 34.7524 138.986 34.6835C139.264 34.6119 139.552 34.5602 139.849 34.5284C140.207 34.4913 140.497 34.4581 140.72 34.429C140.942 34.3971 141.104 34.3494 141.205 34.2858C141.308 34.2195 141.36 34.1174 141.36 33.9795V33.9557C141.36 33.656 141.271 33.424 141.094 33.2596C140.916 33.0952 140.66 33.013 140.326 33.013C139.973 33.013 139.694 33.0899 139.487 33.2437C139.283 33.3975 139.145 33.5791 139.073 33.7886L137.729 33.5977C137.835 33.2265 138.01 32.9163 138.254 32.667C138.498 32.4151 138.796 32.2269 139.149 32.1022C139.501 31.975 139.891 31.9113 140.318 31.9113C140.612 31.9113 140.905 31.9458 141.197 32.0147C141.489 32.0837 141.755 32.1977 141.996 32.3568C142.238 32.5132 142.431 32.7267 142.577 32.9971C142.726 33.2676 142.8 33.6057 142.8 34.0113V38.1H141.416V37.2608H141.368C141.281 37.4305 141.157 37.5896 140.998 37.738C140.842 37.8839 140.644 38.0019 140.406 38.092C140.17 38.1795 139.892 38.2233 139.574 38.2233ZM139.948 37.1653C140.237 37.1653 140.488 37.1083 140.7 36.9943C140.912 36.8776 141.075 36.7238 141.189 36.5329C141.306 36.342 141.364 36.1339 141.364 35.9085V35.1886C141.319 35.2257 141.242 35.2602 141.133 35.292C141.027 35.3238 140.908 35.3517 140.775 35.3755C140.643 35.3994 140.512 35.4206 140.382 35.4392C140.252 35.4577 140.139 35.4736 140.044 35.4869C139.829 35.5161 139.637 35.5638 139.467 35.6301C139.297 35.6964 139.163 35.7892 139.065 35.9085C138.967 36.0252 138.918 36.1763 138.918 36.3619C138.918 36.6271 139.015 36.8272 139.208 36.9625C139.402 37.0977 139.649 37.1653 139.948 37.1653ZM149.076 33.6057L147.763 33.7488C147.726 33.6163 147.661 33.4916 147.569 33.375C147.478 33.2583 147.356 33.1642 147.203 33.0926C147.049 33.021 146.861 32.9852 146.638 32.9852C146.338 32.9852 146.086 33.0502 145.882 33.1801C145.681 33.31 145.581 33.4784 145.584 33.6852C145.581 33.8629 145.646 34.0074 145.779 34.1187C145.914 34.2301 146.137 34.3216 146.447 34.3932L147.489 34.6159C148.067 34.7405 148.497 34.938 148.778 35.2085C149.061 35.479 149.205 35.8329 149.207 36.2704C149.205 36.6549 149.092 36.9943 148.869 37.2886C148.649 37.5803 148.343 37.8083 147.95 37.9727C147.558 38.1371 147.107 38.2193 146.598 38.2193C145.85 38.2193 145.249 38.0629 144.792 37.75C144.336 37.4344 144.065 36.9956 143.977 36.4335L145.381 36.2983C145.445 36.574 145.58 36.7822 145.787 36.9227C145.994 37.0632 146.263 37.1335 146.594 37.1335C146.936 37.1335 147.211 37.0632 147.417 36.9227C147.627 36.7822 147.732 36.6085 147.732 36.4017C147.732 36.2267 147.664 36.0822 147.529 35.9682C147.396 35.8541 147.189 35.7666 146.908 35.7057L145.866 35.4869C145.28 35.3649 144.847 35.1594 144.566 34.8704C144.285 34.5788 144.146 34.2102 144.148 33.7647C144.146 33.3882 144.248 33.0621 144.454 32.7863C144.664 32.5079 144.954 32.2932 145.325 32.142C145.699 31.9882 146.13 31.9113 146.618 31.9113C147.334 31.9113 147.897 32.0638 148.308 32.3687C148.722 32.6736 148.978 33.086 149.076 33.6057Z" fill="#0E121B"/>
<path d="M22.0548 71.0266V69.8364H29.1468V71.0266H26.2876V79H24.9095V71.0266H22.0548ZM32.572 79.1387C31.8949 79.1387 31.3117 78.994 30.8225 78.7047C30.3363 78.4124 29.9604 78.0022 29.6949 77.4742C29.4324 76.9433 29.3012 76.3213 29.3012 75.6084C29.3012 74.9044 29.4324 74.2839 29.6949 73.747C29.9604 73.2101 30.3303 72.791 30.8046 72.4897C31.2819 72.1884 31.8397 72.0378 32.478 72.0378C32.8658 72.0378 33.2417 72.1019 33.6056 72.2302C33.9695 72.3585 34.2961 72.5598 34.5855 72.8342C34.8748 73.1087 35.103 73.4651 35.2701 73.9036C35.4371 74.3391 35.5206 74.8686 35.5206 75.492V75.9663H30.0574V74.9641H34.2096C34.2096 74.6121 34.138 74.3004 33.9949 74.0289C33.8517 73.7545 33.6503 73.5382 33.3908 73.3801C33.1343 73.222 32.833 73.143 32.487 73.143C32.1111 73.143 31.783 73.2354 31.5026 73.4204C31.2252 73.6023 31.0104 73.841 30.8583 74.1363C30.7091 74.4286 30.6346 74.7463 30.6346 75.0893V75.8724C30.6346 76.3317 30.7151 76.7225 30.8762 77.0447C31.0402 77.3668 31.2684 77.6129 31.5608 77.783C31.8531 77.95 32.1946 78.0335 32.5854 78.0335C32.839 78.0335 33.0701 77.9977 33.2789 77.9261C33.4877 77.8516 33.6682 77.7412 33.8203 77.595C33.9725 77.4489 34.0888 77.2684 34.1694 77.0536L35.4356 77.2818C35.3342 77.6547 35.1522 77.9813 34.8897 78.2617C34.6302 78.5391 34.3036 78.7554 33.9098 78.9105C33.5191 79.0626 33.0731 79.1387 32.572 79.1387ZM37.005 79V72.1273H38.2892V73.2459H38.3742C38.5174 72.867 38.7515 72.5717 39.0767 72.3599C39.4018 72.1452 39.7911 72.0378 40.2445 72.0378C40.7039 72.0378 41.0887 72.1452 41.3989 72.3599C41.7121 72.5747 41.9433 72.87 42.0925 73.2459H42.164C42.3281 72.879 42.5891 72.5866 42.9471 72.3689C43.305 72.1482 43.7316 72.0378 44.2268 72.0378C44.8502 72.0378 45.3588 72.2332 45.7525 72.6239C46.1493 73.0147 46.3476 73.6038 46.3476 74.3913V79H45.0098V74.5166C45.0098 74.0513 44.883 73.7142 44.6295 73.5054C44.3759 73.2966 44.0731 73.1922 43.7211 73.1922C43.2856 73.1922 42.9471 73.3264 42.7055 73.5949C42.4638 73.8604 42.343 74.2019 42.343 74.6195V79H41.0096V74.4316C41.0096 74.0587 40.8933 73.7589 40.6606 73.5322C40.428 73.3055 40.1252 73.1922 39.7523 73.1922C39.4988 73.1922 39.2646 73.2593 39.0498 73.3935C38.838 73.5248 38.6665 73.7082 38.5353 73.9439C38.407 74.1795 38.3429 74.4525 38.3429 74.7627V79H37.005ZM48.1408 81.5773V72.1273H49.4473V73.2414H49.5592C49.6367 73.0982 49.7486 72.9327 49.8947 72.7447C50.0409 72.5568 50.2437 72.3928 50.5033 72.2526C50.7628 72.1094 51.1058 72.0378 51.5324 72.0378C52.0872 72.0378 52.5824 72.178 53.0179 72.4584C53.4534 72.7388 53.795 73.143 54.0425 73.671C54.2931 74.1989 54.4184 74.8343 54.4184 75.5771C54.4184 76.3198 54.2946 76.9567 54.047 77.4876C53.7994 78.0156 53.4594 78.4228 53.0268 78.7092C52.5943 78.9925 52.1006 79.1342 51.5458 79.1342C51.1282 79.1342 50.7866 79.0641 50.5212 78.9239C50.2587 78.7837 50.0528 78.6197 49.9037 78.4317C49.7545 78.2438 49.6397 78.0768 49.5592 77.9306H49.4786V81.5773H48.1408ZM49.4518 75.5636C49.4518 76.0469 49.5219 76.4705 49.6621 76.8344C49.8023 77.1983 50.0051 77.4832 50.2706 77.689C50.5361 77.8918 50.8612 77.9933 51.246 77.9933C51.6457 77.9933 51.9798 77.8874 52.2483 77.6756C52.5168 77.4608 52.7196 77.17 52.8568 76.8031C52.997 76.4362 53.0671 76.023 53.0671 75.5636C53.0671 75.1102 52.9985 74.7031 52.8613 74.3421C52.7271 73.9812 52.5242 73.6963 52.2528 73.4875C51.9843 73.2787 51.6487 73.1743 51.246 73.1743C50.8582 73.1743 50.5301 73.2742 50.2616 73.4741C49.9962 73.6739 49.7948 73.9528 49.6576 74.3108C49.5204 74.6688 49.4518 75.0864 49.4518 75.5636ZM58.8123 79.1387C58.168 79.1387 57.6057 78.9911 57.1254 78.6957C56.6452 78.4004 56.2723 77.9873 56.0068 77.4563C55.7413 76.9254 55.6086 76.3049 55.6086 75.595C55.6086 74.882 55.7413 74.2586 56.0068 73.7246C56.2723 73.1907 56.6452 72.7761 57.1254 72.4808C57.6057 72.1854 58.168 72.0378 58.8123 72.0378C59.4566 72.0378 60.0189 72.1854 60.4991 72.4808C60.9794 72.7761 61.3523 73.1907 61.6178 73.7246C61.8832 74.2586 62.016 74.882 62.016 75.595C62.016 76.3049 61.8832 76.9254 61.6178 77.4563C61.3523 77.9873 60.9794 78.4004 60.4991 78.6957C60.0189 78.9911 59.4566 79.1387 58.8123 79.1387ZM58.8168 78.0156C59.2344 78.0156 59.5804 77.9053 59.8548 77.6845C60.1293 77.4638 60.3321 77.17 60.4634 76.8031C60.5976 76.4362 60.6647 76.032 60.6647 75.5905C60.6647 75.152 60.5976 74.7493 60.4634 74.3824C60.3321 74.0125 60.1293 73.7157 59.8548 73.492C59.5804 73.2683 59.2344 73.1564 58.8168 73.1564C58.3962 73.1564 58.0472 73.2683 57.7697 73.492C57.4953 73.7157 57.291 74.0125 57.1567 74.3824C57.0255 74.7493 56.9599 75.152 56.9599 75.5905C56.9599 76.032 57.0255 76.4362 57.1567 76.8031C57.291 77.17 57.4953 77.4638 57.7697 77.6845C58.0472 77.9053 58.3962 78.0156 58.8168 78.0156ZM69.4167 79.1342C68.8619 79.1342 68.3667 78.9925 67.9312 78.7092C67.4986 78.4228 67.1586 78.0156 66.911 77.4876C66.6664 76.9567 66.5441 76.3198 66.5441 75.5771C66.5441 74.8343 66.6679 74.1989 66.9155 73.671C67.1661 73.143 67.5091 72.7388 67.9446 72.4584C68.3801 72.178 68.8738 72.0378 69.4256 72.0378C69.8522 72.0378 70.1952 72.1094 70.4548 72.2526C70.7173 72.3928 70.9201 72.5568 71.0633 72.7447C71.2094 72.9327 71.3228 73.0982 71.4033 73.2414H71.4839V69.8364H72.8217V79H71.5152V77.9306H71.4033C71.3228 78.0768 71.2065 78.2438 71.0543 78.4317C70.9052 78.6197 70.6994 78.7837 70.4369 78.9239C70.1744 79.0641 69.8343 79.1342 69.4167 79.1342ZM69.712 77.9933C70.0968 77.9933 70.4219 77.8918 70.6874 77.689C70.9559 77.4832 71.1587 77.1983 71.296 76.8344C71.4361 76.4705 71.5062 76.0469 71.5062 75.5636C71.5062 75.0864 71.4376 74.6688 71.3004 74.3108C71.1632 73.9528 70.9619 73.6739 70.6964 73.4741C70.4309 73.2742 70.1028 73.1743 69.712 73.1743C69.3093 73.1743 68.9737 73.2787 68.7053 73.4875C68.4368 73.6963 68.2339 73.9812 68.0967 74.3421C67.9625 74.7031 67.8954 75.1102 67.8954 75.5636C67.8954 76.023 67.964 76.4362 68.1012 76.8031C68.2384 77.17 68.4413 77.4608 68.7097 77.6756C68.9812 77.8874 69.3153 77.9933 69.712 77.9933ZM77.6933 79.1387C77.0161 79.1387 76.433 78.994 75.9438 78.7047C75.4575 78.4124 75.0817 78.0022 74.8162 77.4742C74.5537 76.9433 74.4225 76.3213 74.4225 75.6084C74.4225 74.9044 74.5537 74.2839 74.8162 73.747C75.0817 73.2101 75.4516 72.791 75.9259 72.4897C76.4031 72.1884 76.961 72.0378 77.5993 72.0378C77.9871 72.0378 78.3629 72.1019 78.7269 72.2302C79.0908 72.3585 79.4174 72.5598 79.7068 72.8342C79.9961 73.1087 80.2243 73.4651 80.3914 73.9036C80.5584 74.3391 80.6419 74.8686 80.6419 75.492V75.9663H75.1786V74.9641H79.3309C79.3309 74.6121 79.2593 74.3004 79.1161 74.0289C78.973 73.7545 78.7716 73.5382 78.5121 73.3801C78.2556 73.222 77.9543 73.143 77.6083 73.143C77.2324 73.143 76.9043 73.2354 76.6239 73.4204C76.3465 73.6023 76.1317 73.841 75.9796 74.1363C75.8304 74.4286 75.7558 74.7463 75.7558 75.0893V75.8724C75.7558 76.3317 75.8364 76.7225 75.9975 77.0447C76.1615 77.3668 76.3897 77.6129 76.682 77.783C76.9744 77.95 77.3159 78.0335 77.7067 78.0335C77.9602 78.0335 78.1914 77.9977 78.4002 77.9261C78.609 77.8516 78.7895 77.7412 78.9416 77.595C79.0938 77.4489 79.2101 77.2684 79.2906 77.0536L80.5569 77.2818C80.4555 77.6547 80.2735 77.9813 80.011 78.2617C79.7515 78.5391 79.4249 78.7554 79.0311 78.9105C78.6404 79.0626 78.1944 79.1387 77.6933 79.1387ZM88.423 79.1387C87.7458 79.1387 87.1627 78.994 86.6735 78.7047C86.1872 78.4124 85.8114 78.0022 85.5459 77.4742C85.2834 76.9433 85.1521 76.3213 85.1521 75.6084C85.1521 74.9044 85.2834 74.2839 85.5459 73.747C85.8114 73.2101 86.1813 72.791 86.6556 72.4897C87.1328 72.1884 87.6906 72.0378 88.329 72.0378C88.7168 72.0378 89.0926 72.1019 89.4565 72.2302C89.8205 72.3585 90.1471 72.5598 90.4364 72.8342C90.7258 73.1087 90.954 73.4651 91.121 73.9036C91.2881 74.3391 91.3716 74.8686 91.3716 75.492V75.9663H85.9083V74.9641H90.0606C90.0606 74.6121 89.989 74.3004 89.8458 74.0289C89.7026 73.7545 89.5013 73.5382 89.2418 73.3801C88.9852 73.222 88.684 73.143 88.3379 73.143C87.9621 73.143 87.634 73.2354 87.3536 73.4204C87.0762 73.6023 86.8614 73.841 86.7092 74.1363C86.5601 74.4286 86.4855 74.7463 86.4855 75.0893V75.8724C86.4855 76.3317 86.5661 76.7225 86.7271 77.0447C86.8912 77.3668 87.1194 77.6129 87.4117 77.783C87.7041 77.95 88.0456 78.0335 88.4364 78.0335C88.6899 78.0335 88.9211 77.9977 89.1299 77.9261C89.3387 77.8516 89.5192 77.7412 89.6713 77.595C89.8235 77.4489 89.9398 77.2684 90.0203 77.0536L91.2866 77.2818C91.1852 77.6547 91.0032 77.9813 90.7407 78.2617C90.4812 78.5391 90.1546 78.7554 89.7608 78.9105C89.37 79.0626 88.9241 79.1387 88.423 79.1387ZM98.0061 73.8052L96.7935 74.02C96.7428 73.8648 96.6622 73.7172 96.5519 73.577C96.4445 73.4368 96.2983 73.3219 96.1134 73.2325C95.9284 73.143 95.6973 73.0982 95.4198 73.0982C95.041 73.0982 94.7248 73.1832 94.4713 73.3533C94.2177 73.5203 94.0909 73.7366 94.0909 74.0021C94.0909 74.2317 94.176 74.4167 94.346 74.5569C94.516 74.6971 94.7904 74.8119 95.1693 74.9014L96.261 75.152C96.8934 75.2982 97.3647 75.5234 97.675 75.8276C97.9852 76.1319 98.1403 76.5271 98.1403 77.0134C98.1403 77.425 98.021 77.7919 97.7823 78.1141C97.5467 78.4332 97.2171 78.6838 96.7935 78.8658C96.3729 79.0477 95.8852 79.1387 95.3304 79.1387C94.5608 79.1387 93.9328 78.9746 93.4466 78.6465C92.9604 78.3154 92.6621 77.8456 92.5517 77.2371L93.8448 77.0402C93.9254 77.3773 94.0909 77.6323 94.3415 77.8053C94.5921 77.9754 94.9187 78.0604 95.3214 78.0604C95.7599 78.0604 96.1104 77.9694 96.3729 77.7874C96.6354 77.6025 96.7666 77.3773 96.7666 77.1118C96.7666 76.897 96.6861 76.7165 96.525 76.5704C96.3669 76.4242 96.1238 76.3138 95.7957 76.2393L94.6323 75.9842C93.991 75.8381 93.5167 75.6054 93.2095 75.2862C92.9052 74.967 92.7531 74.5629 92.7531 74.0737C92.7531 73.668 92.8664 73.313 93.0931 73.0087C93.3198 72.7045 93.6331 72.4673 94.0328 72.2973C94.4325 72.1243 94.8904 72.0378 95.4064 72.0378C96.1492 72.0378 96.7338 72.1989 97.1604 72.521C97.587 72.8402 97.8689 73.2683 98.0061 73.8052ZM102.819 72.1273V73.2011H99.0654V72.1273H102.819ZM100.072 70.4807H101.41V76.982C101.41 77.2415 101.449 77.4369 101.526 77.5682C101.604 77.6964 101.704 77.7844 101.826 77.8322C101.951 77.8769 102.087 77.8993 102.233 77.8993C102.341 77.8993 102.435 77.8918 102.515 77.8769C102.596 77.862 102.658 77.8501 102.703 77.8411L102.945 78.9463C102.867 78.9761 102.757 79.006 102.614 79.0358C102.47 79.0686 102.291 79.0865 102.077 79.0895C101.725 79.0955 101.397 79.0328 101.092 78.9016C100.788 78.7703 100.542 78.5675 100.354 78.293C100.166 78.0186 100.072 77.6741 100.072 77.2594V70.4807ZM108.653 76.1498V72.1273H109.995V79H108.68V77.8098H108.608C108.45 78.1767 108.197 78.4825 107.848 78.7271C107.502 78.9687 107.071 79.0895 106.554 79.0895C106.113 79.0895 105.722 78.9925 105.382 78.7987C105.045 78.6018 104.78 78.3109 104.586 77.9261C104.395 77.5413 104.299 77.0656 104.299 76.4988V72.1273H105.637V76.3377C105.637 76.806 105.767 77.1789 106.026 77.4563C106.286 77.7337 106.623 77.8724 107.038 77.8724C107.288 77.8724 107.537 77.8098 107.785 77.6845C108.036 77.5592 108.243 77.3698 108.407 77.1163C108.574 76.8627 108.656 76.5406 108.653 76.1498ZM114.366 79.1342C113.811 79.1342 113.316 78.9925 112.88 78.7092C112.448 78.4228 112.108 78.0156 111.86 77.4876C111.615 76.9567 111.493 76.3198 111.493 75.5771C111.493 74.8343 111.617 74.1989 111.864 73.671C112.115 73.143 112.458 72.7388 112.894 72.4584C113.329 72.178 113.823 72.0378 114.375 72.0378C114.801 72.0378 115.144 72.1094 115.404 72.2526C115.666 72.3928 115.869 72.5568 116.012 72.7447C116.158 72.9327 116.272 73.0982 116.352 73.2414H116.433V69.8364H117.771V79H116.464V77.9306H116.352C116.272 78.0768 116.155 78.2438 116.003 78.4317C115.854 78.6197 115.648 78.7837 115.386 78.9239C115.123 79.0641 114.783 79.1342 114.366 79.1342ZM114.661 77.9933C115.046 77.9933 115.371 77.8918 115.636 77.689C115.905 77.4832 116.108 77.1983 116.245 76.8344C116.385 76.4705 116.455 76.0469 116.455 75.5636C116.455 75.0864 116.387 74.6688 116.249 74.3108C116.112 73.9528 115.911 73.6739 115.645 73.4741C115.38 73.2742 115.052 73.1743 114.661 73.1743C114.258 73.1743 113.923 73.2787 113.654 73.4875C113.386 73.6963 113.183 73.9812 113.046 74.3421C112.912 74.7031 112.844 75.1102 112.844 75.5636C112.844 76.023 112.913 76.4362 113.05 76.8031C113.187 77.17 113.39 77.4608 113.659 77.6756C113.93 77.8874 114.264 77.9933 114.661 77.9933ZM122.575 79.1387C121.931 79.1387 121.369 78.9911 120.888 78.6957C120.408 78.4004 120.035 77.9873 119.77 77.4563C119.504 76.9254 119.371 76.3049 119.371 75.595C119.371 74.882 119.504 74.2586 119.77 73.7246C120.035 73.1907 120.408 72.7761 120.888 72.4808C121.369 72.1854 121.931 72.0378 122.575 72.0378C123.219 72.0378 123.782 72.1854 124.262 72.4808C124.742 72.7761 125.115 73.1907 125.381 73.7246C125.646 74.2586 125.779 74.882 125.779 75.595C125.779 76.3049 125.646 76.9254 125.381 77.4563C125.115 77.9873 124.742 78.4004 124.262 78.6957C123.782 78.9911 123.219 79.1387 122.575 79.1387ZM122.58 78.0156C122.997 78.0156 123.343 77.9053 123.618 77.6845C123.892 77.4638 124.095 77.17 124.226 76.8031C124.36 76.4362 124.428 76.032 124.428 75.5905C124.428 75.152 124.36 74.7493 124.226 74.3824C124.095 74.0125 123.892 73.7157 123.618 73.492C123.343 73.2683 122.997 73.1564 122.58 73.1564C122.159 73.1564 121.81 73.2683 121.533 73.492C121.258 73.7157 121.054 74.0125 120.92 74.3824C120.788 74.7493 120.723 75.152 120.723 75.5905C120.723 76.032 120.788 76.4362 120.92 76.8031C121.054 77.17 121.258 77.4638 121.533 77.6845C121.81 77.9053 122.159 78.0156 122.58 78.0156ZM128.154 79.085C127.909 79.085 127.699 78.9985 127.523 78.8255C127.347 78.6495 127.259 78.4377 127.259 78.1901C127.259 77.9455 127.347 77.7367 127.523 77.5637C127.699 77.3877 127.909 77.2997 128.154 77.2997C128.398 77.2997 128.609 77.3877 128.785 77.5637C128.961 77.7367 129.049 77.9455 129.049 78.1901C129.049 78.3542 129.007 78.5048 128.923 78.642C128.843 78.7763 128.735 78.8837 128.601 78.9642C128.467 79.0447 128.318 79.085 128.154 79.085ZM128.154 74.0826C127.909 74.0826 127.699 73.9946 127.523 73.8186C127.347 73.6426 127.259 73.4323 127.259 73.1877C127.259 72.9431 127.347 72.7343 127.523 72.5613C127.699 72.3853 127.909 72.2973 128.154 72.2973C128.398 72.2973 128.609 72.3853 128.785 72.5613C128.961 72.7343 129.049 72.9431 129.049 73.1877C129.049 73.3518 129.007 73.5024 128.923 73.6396C128.843 73.7739 128.735 73.8813 128.601 73.9618C128.467 74.0423 128.318 74.0826 128.154 74.0826ZM137.348 79.1253C136.733 79.1253 136.184 79.0194 135.701 78.8076C135.221 78.5958 134.84 78.302 134.56 77.9261C134.283 77.5473 134.133 77.1088 134.112 76.6107H135.517C135.535 76.8821 135.626 77.1178 135.79 77.3176C135.957 77.5145 136.175 77.6666 136.444 77.774C136.712 77.8814 137.01 77.9351 137.339 77.9351C137.699 77.9351 138.019 77.8724 138.296 77.7472C138.576 77.6219 138.796 77.4474 138.954 77.2237C139.112 76.9969 139.191 76.7359 139.191 76.4406C139.191 76.1334 139.112 75.8634 138.954 75.6308C138.799 75.3951 138.571 75.2102 138.269 75.0759C137.971 74.9417 137.61 74.8746 137.186 74.8746H136.412V73.747H137.186C137.526 73.747 137.825 73.6859 138.081 73.5636C138.341 73.4413 138.544 73.2712 138.69 73.0535C138.836 72.8327 138.909 72.5747 138.909 72.2794C138.909 71.996 138.845 71.7499 138.717 71.5411C138.591 71.3293 138.412 71.1638 138.18 71.0445C137.95 70.9251 137.679 70.8655 137.365 70.8655C137.067 70.8655 136.788 70.9207 136.529 71.031C136.272 71.1384 136.063 71.2935 135.902 71.4964C135.741 71.6962 135.655 71.9364 135.643 72.2168H134.305C134.32 71.7216 134.466 71.2861 134.743 70.9102C135.024 70.5344 135.394 70.2406 135.853 70.0288C136.312 69.817 136.823 69.7111 137.383 69.7111C137.971 69.7111 138.478 69.8259 138.905 70.0556C139.334 70.2823 139.665 70.5851 139.898 70.9639C140.134 71.3428 140.25 71.7574 140.247 72.2078C140.25 72.7209 140.107 73.1564 139.817 73.5143C139.531 73.8723 139.149 74.1124 138.672 74.2347V74.3063C139.28 74.3988 139.752 74.6404 140.086 75.0312C140.423 75.4219 140.59 75.9067 140.587 76.4854C140.59 76.9895 140.45 77.4414 140.166 77.8411C139.886 78.2408 139.503 78.5555 139.016 78.7852C138.53 79.0119 137.974 79.1253 137.348 79.1253ZM142.278 79V77.9977L145.379 74.7851C145.71 74.4361 145.983 74.1303 146.198 73.8678C146.416 73.6023 146.578 73.3503 146.686 73.1116C146.793 72.873 146.847 72.6195 146.847 72.351C146.847 72.0467 146.775 71.7842 146.632 71.5635C146.489 71.3398 146.293 71.1683 146.046 71.0489C145.798 70.9266 145.519 70.8655 145.209 70.8655C144.881 70.8655 144.595 70.9326 144.35 71.0668C144.105 71.2011 143.917 71.3905 143.786 71.6351C143.655 71.8797 143.589 72.1661 143.589 72.4942H142.269C142.269 71.9364 142.398 71.4487 142.654 71.031C142.911 70.6134 143.263 70.2898 143.71 70.0601C144.158 69.8274 144.666 69.7111 145.236 69.7111C145.812 69.7111 146.319 69.8259 146.757 70.0556C147.199 70.2823 147.543 70.5925 147.791 70.9863C148.038 71.3771 148.162 71.8185 148.162 72.3107C148.162 72.6508 148.098 72.9834 147.97 73.3085C147.845 73.6337 147.625 73.9961 147.312 74.3958C146.999 74.7925 146.563 75.2743 146.006 75.8411L144.184 77.7472V77.8143H148.31V79H142.278ZM154.696 74.9193V79H153.358V69.8364H154.678V73.2459H154.763C154.924 72.876 155.17 72.5822 155.501 72.3644C155.833 72.1467 156.265 72.0378 156.799 72.0378C157.27 72.0378 157.682 72.1347 158.034 72.3286C158.389 72.5225 158.663 72.8119 158.857 73.1967C159.054 73.5785 159.153 74.0558 159.153 74.6285V79H157.815V74.7896C157.815 74.2854 157.685 73.8947 157.425 73.6173C157.166 73.3369 156.805 73.1967 156.343 73.1967C156.026 73.1967 155.743 73.2638 155.492 73.398C155.245 73.5322 155.049 73.7291 154.906 73.9886C154.766 74.2452 154.696 74.5554 154.696 74.9193ZM163.833 79.1387C163.188 79.1387 162.626 78.9911 162.146 78.6957C161.666 78.4004 161.293 77.9873 161.027 77.4563C160.762 76.9254 160.629 76.3049 160.629 75.595C160.629 74.882 160.762 74.2586 161.027 73.7246C161.293 73.1907 161.666 72.7761 162.146 72.4808C162.626 72.1854 163.188 72.0378 163.833 72.0378C164.477 72.0378 165.039 72.1854 165.52 72.4808C166 72.7761 166.373 73.1907 166.638 73.7246C166.904 74.2586 167.036 74.882 167.036 75.595C167.036 76.3049 166.904 76.9254 166.638 77.4563C166.373 77.9873 166 78.4004 165.52 78.6957C165.039 78.9911 164.477 79.1387 163.833 79.1387ZM163.837 78.0156C164.255 78.0156 164.601 77.9053 164.875 77.6845C165.15 77.4638 165.353 77.17 165.484 76.8031C165.618 76.4362 165.685 76.032 165.685 75.5905C165.685 75.152 165.618 74.7493 165.484 74.3824C165.353 74.0125 165.15 73.7157 164.875 73.492C164.601 73.2683 164.255 73.1564 163.837 73.1564C163.417 73.1564 163.068 73.2683 162.79 73.492C162.516 73.7157 162.311 74.0125 162.177 74.3824C162.046 74.7493 161.98 75.152 161.98 75.5905C161.98 76.032 162.046 76.4362 162.177 76.8031C162.311 77.17 162.516 77.4638 162.79 77.6845C163.068 77.9053 163.417 78.0156 163.837 78.0156ZM168.53 79V72.1273H169.823V73.219H169.895C170.02 72.8491 170.241 72.5583 170.557 72.3465C170.876 72.1317 171.237 72.0244 171.64 72.0244C171.723 72.0244 171.822 72.0273 171.935 72.0333C172.051 72.0393 172.142 72.0467 172.208 72.0557V73.3354C172.154 73.3205 172.059 73.304 171.921 73.2862C171.784 73.2653 171.647 73.2548 171.51 73.2548C171.194 73.2548 170.912 73.3219 170.664 73.4562C170.42 73.5874 170.226 73.7709 170.082 74.0065C169.939 74.2392 169.868 74.5047 169.868 74.803V79H168.53ZM175.304 79.1521C174.869 79.1521 174.475 79.0716 174.123 78.9105C173.771 78.7464 173.492 78.5093 173.286 78.1991C173.083 77.8888 172.982 77.5085 172.982 77.0581C172.982 76.6703 173.056 76.3511 173.206 76.1006C173.355 75.85 173.556 75.6516 173.81 75.5055C174.063 75.3593 174.347 75.2489 174.66 75.1744C174.973 75.0998 175.292 75.0431 175.617 75.0043C176.029 74.9566 176.363 74.9178 176.62 74.888C176.876 74.8552 177.063 74.803 177.179 74.7314C177.295 74.6598 177.353 74.5435 177.353 74.3824V74.3511C177.353 73.9603 177.243 73.6575 177.022 73.4428C176.805 73.228 176.479 73.1206 176.047 73.1206C175.596 73.1206 175.241 73.2205 174.982 73.4204C174.725 73.6173 174.548 73.8365 174.449 74.0781L173.192 73.7918C173.341 73.3741 173.559 73.0371 173.845 72.7805C174.135 72.521 174.467 72.3331 174.843 72.2168C175.219 72.0974 175.614 72.0378 176.029 72.0378C176.303 72.0378 176.594 72.0706 176.901 72.1362C177.212 72.1989 177.501 72.3152 177.77 72.4852C178.041 72.6553 178.263 72.8984 178.436 73.2146C178.609 73.5278 178.696 73.9349 178.696 74.4361V79H177.389V78.0604H177.336C177.249 78.2334 177.119 78.4034 176.946 78.5705C176.773 78.7375 176.551 78.8762 176.28 78.9866C176.008 79.0969 175.683 79.1521 175.304 79.1521ZM175.595 78.0783C175.965 78.0783 176.281 78.0052 176.544 77.859C176.809 77.7129 177.01 77.5219 177.148 77.2863C177.288 77.0477 177.358 76.7926 177.358 76.5212V75.6352C177.31 75.683 177.218 75.7277 177.08 75.7695C176.946 75.8082 176.793 75.8425 176.62 75.8724C176.447 75.8992 176.278 75.9246 176.114 75.9484C175.95 75.9693 175.813 75.9872 175.702 76.0021C175.443 76.0349 175.206 76.0901 174.991 76.1677C174.779 76.2452 174.609 76.3571 174.481 76.5033C174.356 76.6464 174.293 76.8374 174.293 77.076C174.293 77.4071 174.415 77.6577 174.66 77.8277C174.904 77.9947 175.216 78.0783 175.595 78.0783ZM185.628 73.8052L184.415 74.02C184.364 73.8648 184.284 73.7172 184.174 73.577C184.066 73.4368 183.92 73.3219 183.735 73.2325C183.55 73.143 183.319 73.0982 183.042 73.0982C182.663 73.0982 182.346 73.1832 182.093 73.3533C181.839 73.5203 181.713 73.7366 181.713 74.0021C181.713 74.2317 181.798 74.4167 181.968 74.5569C182.138 74.6971 182.412 74.8119 182.791 74.9014L183.883 75.152C184.515 75.2982 184.986 75.5234 185.297 75.8276C185.607 76.1319 185.762 76.5271 185.762 77.0134C185.762 77.425 185.643 77.7919 185.404 78.1141C185.168 78.4332 184.839 78.6838 184.415 78.8658C183.995 79.0477 183.507 79.1387 182.952 79.1387C182.182 79.1387 181.555 78.9746 181.068 78.6465C180.582 78.3154 180.284 77.8456 180.173 77.2371L181.467 77.0402C181.547 77.3773 181.713 77.6323 181.963 77.8053C182.214 77.9754 182.54 78.0604 182.943 78.0604C183.382 78.0604 183.732 77.9694 183.995 77.7874C184.257 77.6025 184.388 77.3773 184.388 77.1118C184.388 76.897 184.308 76.7165 184.147 76.5704C183.989 76.4242 183.745 76.3138 183.417 76.2393L182.254 75.9842C181.613 75.8381 181.138 75.6054 180.831 75.2862C180.527 74.967 180.375 74.5629 180.375 74.0737C180.375 73.668 180.488 73.313 180.715 73.0087C180.942 72.7045 181.255 72.4673 181.654 72.2973C182.054 72.1243 182.512 72.0378 183.028 72.0378C183.771 72.0378 184.356 72.1989 184.782 72.521C185.209 72.8402 185.491 73.2683 185.628 73.8052ZM193.53 79.1387C192.852 79.1387 192.269 78.994 191.78 78.7047C191.294 78.4124 190.918 78.0022 190.653 77.4742C190.39 76.9433 190.259 76.3213 190.259 75.6084C190.259 74.9044 190.39 74.2839 190.653 73.747C190.918 73.2101 191.288 72.791 191.762 72.4897C192.239 72.1884 192.797 72.0378 193.436 72.0378C193.823 72.0378 194.199 72.1019 194.563 72.2302C194.927 72.3585 195.254 72.5598 195.543 72.8342C195.832 73.1087 196.061 73.4651 196.228 73.9036C196.395 74.3391 196.478 74.8686 196.478 75.492V75.9663H191.015V74.9641H195.167C195.167 74.6121 195.096 74.3004 194.952 74.0289C194.809 73.7545 194.608 73.5382 194.348 73.3801C194.092 73.222 193.791 73.143 193.445 73.143C193.069 73.143 192.741 73.2354 192.46 73.4204C192.183 73.6023 191.968 73.841 191.816 74.1363C191.667 74.4286 191.592 74.7463 191.592 75.0893V75.8724C191.592 76.3317 191.673 76.7225 191.834 77.0447C191.998 77.3668 192.226 77.6129 192.518 77.783C192.811 77.95 193.152 78.0335 193.543 78.0335C193.797 78.0335 194.028 77.9977 194.237 77.9261C194.445 77.8516 194.626 77.7412 194.778 77.595C194.93 77.4489 195.046 77.2684 195.127 77.0536L196.393 77.2818C196.292 77.6547 196.11 77.9813 195.847 78.2617C195.588 78.5391 195.261 78.7554 194.867 78.9105C194.477 79.0626 194.031 79.1387 193.53 79.1387ZM201.279 79V77.9977L204.38 74.7851C204.711 74.4361 204.984 74.1303 205.199 73.8678C205.417 73.6023 205.579 73.3503 205.687 73.1116C205.794 72.873 205.848 72.6195 205.848 72.351C205.848 72.0467 205.776 71.7842 205.633 71.5635C205.49 71.3398 205.294 71.1683 205.047 71.0489C204.799 70.9266 204.52 70.8655 204.21 70.8655C203.882 70.8655 203.596 70.9326 203.351 71.0668C203.106 71.2011 202.918 71.3905 202.787 71.6351C202.656 71.8797 202.59 72.1661 202.59 72.4942H201.27C201.27 71.9364 201.399 71.4487 201.655 71.031C201.912 70.6134 202.264 70.2898 202.711 70.0601C203.159 69.8274 203.667 69.7111 204.237 69.7111C204.813 69.7111 205.32 69.8259 205.758 70.0556C206.2 70.2823 206.544 70.5925 206.792 70.9863C207.039 71.3771 207.163 71.8185 207.163 72.3107C207.163 72.6508 207.099 72.9834 206.971 73.3085C206.845 73.6337 206.626 73.9961 206.313 74.3958C206 74.7925 205.564 75.2743 205.007 75.8411L203.185 77.7472V77.8143H207.311V79H201.279ZM209.315 79L213.316 71.0892V71.0221H208.689V69.8364H214.747V71.0624L210.761 79H209.315ZM219.656 79V72.1273H220.94V73.2459H221.025C221.168 72.867 221.402 72.5717 221.727 72.3599C222.053 72.1452 222.442 72.0378 222.895 72.0378C223.355 72.0378 223.739 72.1452 224.05 72.3599C224.363 72.5747 224.594 72.87 224.743 73.2459H224.815C224.979 72.879 225.24 72.5866 225.598 72.3689C225.956 72.1482 226.382 72.0378 226.878 72.0378C227.501 72.0378 228.01 72.2332 228.403 72.6239C228.8 73.0147 228.998 73.6038 228.998 74.3913V79H227.661V74.5166C227.661 74.0513 227.534 73.7142 227.28 73.5054C227.027 73.2966 226.724 73.1922 226.372 73.1922C225.936 73.1922 225.598 73.3264 225.356 73.5949C225.115 73.8604 224.994 74.2019 224.994 74.6195V79H223.66V74.4316C223.66 74.0587 223.544 73.7589 223.311 73.5322C223.079 73.3055 222.776 73.1922 222.403 73.1922C222.15 73.1922 221.915 73.2593 221.701 73.3935C221.489 73.5248 221.317 73.7082 221.186 73.9439C221.058 74.1795 220.994 74.4525 220.994 74.7627V79H219.656ZM230.792 79V72.1273H232.129V79H230.792ZM231.467 71.0668C231.235 71.0668 231.035 70.9893 230.868 70.8342C230.704 70.6761 230.622 70.4881 230.622 70.2704C230.622 70.0496 230.704 69.8617 230.868 69.7066C231.035 69.5485 231.235 69.4695 231.467 69.4695C231.7 69.4695 231.898 69.5485 232.062 69.7066C232.229 69.8617 232.313 70.0496 232.313 70.2704C232.313 70.4881 232.229 70.6761 232.062 70.8342C231.898 70.9893 231.7 71.0668 231.467 71.0668ZM235.267 74.9193V79H233.929V72.1273H235.213V73.2459H235.298C235.457 72.882 235.704 72.5896 236.041 72.3689C236.381 72.1482 236.809 72.0378 237.325 72.0378C237.794 72.0378 238.204 72.1362 238.556 72.3331C238.908 72.527 239.181 72.8163 239.375 73.2011C239.569 73.5859 239.665 74.0617 239.665 74.6285V79H238.328V74.7896C238.328 74.2914 238.198 73.9021 237.938 73.6217C237.679 73.3384 237.322 73.1967 236.869 73.1967C236.559 73.1967 236.283 73.2638 236.041 73.398C235.803 73.5322 235.613 73.7291 235.473 73.9886C235.336 74.2452 235.267 74.5554 235.267 74.9193ZM245.813 76.1498V72.1273H247.156V79H245.84V77.8098H245.769C245.61 78.1767 245.357 78.4825 245.008 78.7271C244.662 78.9687 244.231 79.0895 243.715 79.0895C243.273 79.0895 242.883 78.9925 242.543 78.7987C242.205 78.6018 241.94 78.3109 241.746 77.9261C241.555 77.5413 241.46 77.0656 241.46 76.4988V72.1273H242.798V76.3377C242.798 76.806 242.927 77.1789 243.187 77.4563C243.446 77.7337 243.783 77.8724 244.198 77.8724C244.449 77.8724 244.698 77.8098 244.945 77.6845C245.196 77.5592 245.403 77.3698 245.567 77.1163C245.734 76.8627 245.816 76.5406 245.813 76.1498ZM252.161 72.1273V73.2011H248.407V72.1273H252.161ZM249.414 70.4807H250.752V76.982C250.752 77.2415 250.791 77.4369 250.868 77.5682C250.946 77.6964 251.046 77.7844 251.168 77.8322C251.293 77.8769 251.429 77.8993 251.575 77.8993C251.683 77.8993 251.777 77.8918 251.857 77.8769C251.938 77.862 252 77.8501 252.045 77.8411L252.287 78.9463C252.209 78.9761 252.099 79.006 251.956 79.0358C251.812 79.0686 251.633 79.0865 251.419 79.0895C251.067 79.0955 250.739 79.0328 250.434 78.9016C250.13 78.7703 249.884 78.5675 249.696 78.293C249.508 78.0186 249.414 77.6741 249.414 77.2594V70.4807ZM256.462 79.1387C255.818 79.1387 255.256 78.9911 254.776 78.6957C254.295 78.4004 253.922 77.9873 253.657 77.4563C253.392 76.9254 253.259 76.3049 253.259 75.595C253.259 74.882 253.392 74.2586 253.657 73.7246C253.922 73.1907 254.295 72.7761 254.776 72.4808C255.256 72.1854 255.818 72.0378 256.462 72.0378C257.107 72.0378 257.669 72.1854 258.149 72.4808C258.63 72.7761 259.002 73.1907 259.268 73.7246C259.533 74.2586 259.666 74.882 259.666 75.595C259.666 76.3049 259.533 76.9254 259.268 77.4563C259.002 77.9873 258.63 78.4004 258.149 78.6957C257.669 78.9911 257.107 79.1387 256.462 79.1387ZM256.467 78.0156C256.885 78.0156 257.231 77.9053 257.505 77.6845C257.779 77.4638 257.982 77.17 258.114 76.8031C258.248 76.4362 258.315 76.032 258.315 75.5905C258.315 75.152 258.248 74.7493 258.114 74.3824C257.982 74.0125 257.779 73.7157 257.505 73.492C257.231 73.2683 256.885 73.1564 256.467 73.1564C256.046 73.1564 255.697 73.2683 255.42 73.492C255.145 73.7157 254.941 74.0125 254.807 74.3824C254.676 74.7493 254.61 75.152 254.61 75.5905C254.61 76.032 254.676 76.4362 254.807 76.8031C254.941 77.17 255.145 77.4638 255.42 77.6845C255.697 77.9053 256.046 78.0156 256.467 78.0156ZM266.31 73.8052L265.097 74.02C265.046 73.8648 264.966 73.7172 264.855 73.577C264.748 73.4368 264.602 73.3219 264.417 73.2325C264.232 73.143 264.001 73.0982 263.723 73.0982C263.345 73.0982 263.028 73.1832 262.775 73.3533C262.521 73.5203 262.394 73.7366 262.394 74.0021C262.394 74.2317 262.479 74.4167 262.649 74.5569C262.82 74.6971 263.094 74.8119 263.473 74.9014L264.565 75.152C265.197 75.2982 265.668 75.5234 265.978 75.8276C266.289 76.1319 266.444 76.5271 266.444 77.0134C266.444 77.425 266.324 77.7919 266.086 78.1141C265.85 78.4332 265.521 78.6838 265.097 78.8658C264.676 79.0477 264.189 79.1387 263.634 79.1387C262.864 79.1387 262.236 78.9746 261.75 78.6465C261.264 78.3154 260.966 77.8456 260.855 77.2371L262.148 77.0402C262.229 77.3773 262.394 77.6323 262.645 77.8053C262.896 77.9754 263.222 78.0604 263.625 78.0604C264.063 78.0604 264.414 77.9694 264.676 77.7874C264.939 77.6025 265.07 77.3773 265.07 77.1118C265.07 76.897 264.99 76.7165 264.829 76.5704C264.67 76.4242 264.427 76.3138 264.099 76.2393L262.936 75.9842C262.295 75.8381 261.82 75.6054 261.513 75.2862C261.209 74.967 261.057 74.5629 261.057 74.0737C261.057 73.668 261.17 73.313 261.397 73.0087C261.623 72.7045 261.937 72.4673 262.336 72.2973C262.736 72.1243 263.194 72.0378 263.71 72.0378C264.453 72.0378 265.037 72.1989 265.464 72.521C265.89 72.8402 266.172 73.2683 266.31 73.8052ZM270.35 79.882H282.95V67.282H270.35V79.882Z" fill="#525866"/>
<rect x="21.5" y="50.2" width="298.9" height="0.7" fill="#CACFD8"/>
<rect x="23.6001" y="108.3" width="235.2" height="11.2" rx="5.6" fill="#335CFF"/>
<path d="M39.0518 126.886V127.721H35.7276V126.886H39.0518ZM36.6965 125.349H37.682V131.463C37.682 131.741 37.7224 131.95 37.8031 132.089C37.8867 132.225 37.9925 132.317 38.1205 132.365C38.2514 132.409 38.3892 132.431 38.534 132.431C38.6426 132.431 38.7316 132.426 38.8012 132.415C38.8708 132.401 38.9265 132.39 38.9683 132.381L39.1687 133.267C39.1019 133.292 39.0087 133.317 38.8889 133.342C38.7692 133.37 38.6175 133.384 38.4337 133.384C38.1553 133.384 37.8825 133.324 37.6152 133.204C37.3507 133.084 37.1308 132.902 36.9554 132.657C36.7828 132.412 36.6965 132.103 36.6965 131.73V125.349ZM43.1549 133.434C42.5368 133.434 42.0036 133.297 41.5554 133.024C41.11 132.749 40.7661 132.365 40.5239 131.872C40.2845 131.376 40.1648 130.8 40.1648 130.143C40.1648 129.486 40.2845 128.907 40.5239 128.406C40.7661 127.902 41.103 127.509 41.5345 127.228C41.9688 126.944 42.4755 126.802 43.0546 126.802C43.3887 126.802 43.7186 126.858 44.0444 126.969C44.3701 127.08 44.6666 127.261 44.9339 127.512C45.2012 127.76 45.4142 128.088 45.5728 128.497C45.7315 128.907 45.8109 129.411 45.8109 130.009V130.427H40.8663V129.575H44.8086C44.8086 129.213 44.7362 128.89 44.5915 128.606C44.4495 128.322 44.2462 128.098 43.9817 127.934C43.72 127.769 43.411 127.687 43.0546 127.687C42.6621 127.687 42.3224 127.785 42.0357 127.98C41.7517 128.172 41.5331 128.422 41.38 128.731C41.2269 129.04 41.1503 129.372 41.1503 129.725V130.293C41.1503 130.778 41.2338 131.188 41.4009 131.525C41.5707 131.859 41.806 132.114 42.1067 132.289C42.4073 132.462 42.7567 132.548 43.1549 132.548C43.4138 132.548 43.6477 132.512 43.8565 132.44C44.068 132.365 44.2504 132.253 44.4035 132.106C44.5567 131.955 44.675 131.769 44.7585 131.546L45.7107 131.813C45.6104 132.136 45.442 132.42 45.2053 132.665C44.9687 132.907 44.6764 133.097 44.3284 133.233C43.9803 133.367 43.5892 133.434 43.1549 133.434ZM47.3101 133.3V126.886H48.2623V127.888H48.3458C48.4794 127.545 48.6952 127.279 48.9931 127.09C49.291 126.898 49.6488 126.802 50.0664 126.802C50.4896 126.802 50.8417 126.898 51.1229 127.09C51.4069 127.279 51.6282 127.545 51.7869 127.888H51.8538C52.018 127.556 52.2644 127.293 52.5929 127.098C52.9215 126.901 53.3154 126.802 53.7748 126.802C54.3483 126.802 54.8174 126.982 55.1821 127.341C55.5469 127.697 55.7292 128.252 55.7292 129.007V133.3H54.7436V129.007C54.7436 128.534 54.6142 128.195 54.3553 127.992C54.0963 127.789 53.7915 127.687 53.4407 127.687C52.9897 127.687 52.6403 127.824 52.3925 128.097C52.1447 128.367 52.0208 128.709 52.0208 129.124V133.3H51.0185V128.907C51.0185 128.542 50.9002 128.248 50.6636 128.026C50.4269 127.8 50.1221 127.687 49.749 127.687C49.4928 127.687 49.2534 127.756 49.0307 127.892C48.8107 128.028 48.6326 128.218 48.4961 128.46C48.3625 128.699 48.2957 128.976 48.2957 129.291V133.3H47.3101ZM57.5312 135.706V126.886H58.4834V127.904H58.6003C58.6727 127.793 58.7729 127.651 58.901 127.479C59.0318 127.303 59.2184 127.147 59.4606 127.011C59.7056 126.872 60.0369 126.802 60.4545 126.802C60.9946 126.802 61.4707 126.937 61.8827 127.207C62.2948 127.477 62.6164 127.86 62.8474 128.356C63.0785 128.851 63.1941 129.436 63.1941 130.109C63.1941 130.789 63.0785 131.378 62.8474 131.876C62.6164 132.372 62.2962 132.756 61.8869 133.029C61.4777 133.299 61.0058 133.434 60.4712 133.434C60.0592 133.434 59.7293 133.365 59.4815 133.229C59.2337 133.09 59.043 132.933 58.9093 132.757C58.7757 132.579 58.6727 132.431 58.6003 132.314H58.5168V135.706H57.5312ZM58.5001 130.093C58.5001 130.577 58.5711 131.005 58.7131 131.375C58.8551 131.742 59.0625 132.031 59.3353 132.239C59.6081 132.445 59.9422 132.548 60.3376 132.548C60.7496 132.548 61.0935 132.44 61.3691 132.223C61.6475 132.003 61.8563 131.708 61.9955 131.337C62.1375 130.964 62.2085 130.549 62.2085 130.093C62.2085 129.642 62.1389 129.235 61.9997 128.873C61.8633 128.509 61.6558 128.22 61.3774 128.009C61.1018 127.795 60.7552 127.687 60.3376 127.687C59.9367 127.687 59.5998 127.789 59.327 127.992C59.0541 128.193 58.8481 128.474 58.7089 128.836C58.5697 129.195 58.5001 129.614 58.5001 130.093ZM67.3034 133.434C66.7243 133.434 66.2162 133.296 65.7791 133.02C65.3448 132.745 65.0051 132.359 64.7601 131.863C64.5179 131.368 64.3968 130.789 64.3968 130.126C64.3968 129.458 64.5179 128.875 64.7601 128.376C65.0051 127.878 65.3448 127.491 65.7791 127.215C66.2162 126.94 66.7243 126.802 67.3034 126.802C67.8825 126.802 68.3892 126.94 68.8235 127.215C69.2606 127.491 69.6003 127.878 69.8425 128.376C70.0875 128.875 70.21 129.458 70.21 130.126C70.21 130.789 70.0875 131.368 69.8425 131.863C69.6003 132.359 69.2606 132.745 68.8235 133.02C68.3892 133.296 67.8825 133.434 67.3034 133.434ZM67.3034 132.548C67.7433 132.548 68.1052 132.436 68.3892 132.21C68.6731 131.985 68.8833 131.688 69.0198 131.321C69.1562 130.953 69.2244 130.555 69.2244 130.126C69.2244 129.697 69.1562 129.298 69.0198 128.928C68.8833 128.557 68.6731 128.258 68.3892 128.03C68.1052 127.801 67.7433 127.687 67.3034 127.687C66.8635 127.687 66.5016 127.801 66.2176 128.03C65.9336 128.258 65.7234 128.557 65.587 128.928C65.4506 129.298 65.3824 129.697 65.3824 130.126C65.3824 130.555 65.4506 130.953 65.587 131.321C65.7234 131.688 65.9336 131.985 66.2176 132.21C66.5016 132.436 66.8635 132.548 67.3034 132.548ZM76.9095 133.45C76.5031 133.45 76.1342 133.374 75.8029 133.221C75.4715 133.065 75.2085 132.841 75.0136 132.548C74.8187 132.253 74.7212 131.897 74.7212 131.479C74.7212 131.112 74.7936 130.814 74.9384 130.586C75.0832 130.354 75.2767 130.174 75.5189 130.043C75.7611 129.912 76.0284 129.814 76.3207 129.75C76.6158 129.684 76.9123 129.631 77.2102 129.592C77.6 129.542 77.916 129.504 78.1582 129.479C78.4032 129.451 78.5814 129.405 78.6927 129.341C78.8069 129.277 78.864 129.166 78.864 129.007V128.974C78.864 128.562 78.7512 128.241 78.5257 128.013C78.303 127.785 77.9647 127.671 77.5109 127.671C77.0404 127.671 76.6715 127.774 76.4042 127.98C76.1369 128.186 75.949 128.406 75.8404 128.639L74.905 128.305C75.072 127.916 75.2948 127.612 75.5732 127.395C75.8544 127.175 76.1606 127.022 76.4919 126.936C76.826 126.847 77.1545 126.802 77.4775 126.802C77.6835 126.802 77.9202 126.827 78.1874 126.877C78.4575 126.924 78.7178 127.023 78.9684 127.174C79.2217 127.324 79.4319 127.551 79.599 127.854C79.766 128.158 79.8495 128.564 79.8495 129.074V133.3H78.864V132.431H78.8139C78.747 132.571 78.6357 132.72 78.4798 132.878C78.3239 133.037 78.1164 133.172 77.8575 133.283C77.5986 133.395 77.2826 133.45 76.9095 133.45ZM77.0599 132.565C77.4496 132.565 77.7782 132.488 78.0454 132.335C78.3155 132.182 78.5187 131.985 78.6552 131.742C78.7944 131.5 78.864 131.245 78.864 130.978V130.076C78.8222 130.126 78.7303 130.172 78.5883 130.214C78.4491 130.253 78.2877 130.288 78.1039 130.318C77.9229 130.346 77.7462 130.371 77.5735 130.393C77.4037 130.413 77.2659 130.43 77.1601 130.444C76.904 130.477 76.6645 130.531 76.4418 130.606C76.2219 130.679 76.0437 130.789 75.9073 130.936C75.7736 131.081 75.7068 131.279 75.7068 131.529C75.7068 131.872 75.8335 132.131 76.0868 132.306C76.343 132.479 76.6673 132.565 77.0599 132.565ZM84.4381 126.886V127.721H81.1139V126.886H84.4381ZM82.0827 125.349H83.0683V131.463C83.0683 131.741 83.1087 131.95 83.1894 132.089C83.2729 132.225 83.3787 132.317 83.5068 132.365C83.6376 132.409 83.7754 132.431 83.9202 132.431C84.0288 132.431 84.1179 132.426 84.1875 132.415C84.2571 132.401 84.3128 132.39 84.3545 132.381L84.555 133.267C84.4882 133.292 84.3949 133.317 84.2752 133.342C84.1555 133.37 84.0037 133.384 83.82 133.384C83.5416 133.384 83.2687 133.324 83.0015 133.204C82.737 133.084 82.517 132.902 82.3416 132.657C82.169 132.412 82.0827 132.103 82.0827 131.73V125.349ZM85.9206 133.3V126.886H86.9062V133.3H85.9206ZM86.4217 125.816C86.2296 125.816 86.064 125.751 85.9248 125.62C85.7883 125.489 85.7201 125.332 85.7201 125.148C85.7201 124.964 85.7883 124.807 85.9248 124.676C86.064 124.545 86.2296 124.48 86.4217 124.48C86.6138 124.48 86.7781 124.545 86.9145 124.676C87.0537 124.807 87.1233 124.964 87.1233 125.148C87.1233 125.332 87.0537 125.489 86.9145 125.62C86.7781 125.751 86.6138 125.816 86.4217 125.816ZM93.9565 126.886L91.5845 133.3H90.5822L88.2102 126.886H89.2792L91.0499 131.997H91.1167L92.8874 126.886H93.9565ZM97.6336 133.434C97.0545 133.434 96.5464 133.296 96.1093 133.02C95.675 132.745 95.3353 132.359 95.0903 131.863C94.8481 131.368 94.727 130.789 94.727 130.126C94.727 129.458 94.8481 128.875 95.0903 128.376C95.3353 127.878 95.675 127.491 96.1093 127.215C96.5464 126.94 97.0545 126.802 97.6336 126.802C98.2127 126.802 98.7194 126.94 99.1537 127.215C99.5908 127.491 99.9305 127.878 100.173 128.376C100.418 128.875 100.54 129.458 100.54 130.126C100.54 130.789 100.418 131.368 100.173 131.863C99.9305 132.359 99.5908 132.745 99.1537 133.02C98.7194 133.296 98.2127 133.434 97.6336 133.434ZM97.6336 132.548C98.0735 132.548 98.4354 132.436 98.7194 132.21C99.0034 131.985 99.2136 131.688 99.35 131.321C99.4864 130.953 99.5546 130.555 99.5546 130.126C99.5546 129.697 99.4864 129.298 99.35 128.928C99.2136 128.557 99.0034 128.258 98.7194 128.03C98.4354 127.801 98.0735 127.687 97.6336 127.687C97.1937 127.687 96.8318 127.801 96.5478 128.03C96.2638 128.258 96.0536 128.557 95.9172 128.928C95.7808 129.298 95.7126 129.697 95.7126 130.126C95.7126 130.555 95.7808 130.953 95.9172 131.321C96.0536 131.688 96.2638 131.985 96.5478 132.21C96.8318 132.436 97.1937 132.548 97.6336 132.548Z" fill="#525866"/>
<circle cx="26.9601" cy="130.7" r="3.36" fill="#335CFF"/>
<rect x="22.2" y="168.5" width="236.6" height="11.2" rx="5.6" fill="#F5F7FA"/>
<rect x="23.6001" y="168.5" width="105.84" height="10.92" rx="5.46" fill="#F6B51E"/>
<path d="M38.2115 189.886V190.721H34.8873V189.886H38.2115ZM35.8561 188.349H36.8417V194.463C36.8417 194.741 36.8821 194.95 36.9628 195.089C37.0463 195.225 37.1521 195.317 37.2802 195.365C37.4111 195.409 37.5489 195.431 37.6936 195.431C37.8022 195.431 37.8913 195.426 37.9609 195.415C38.0305 195.401 38.0862 195.39 38.128 195.381L38.3284 196.267C38.2616 196.292 38.1683 196.317 38.0486 196.342C37.9289 196.37 37.7772 196.384 37.5934 196.384C37.315 196.384 37.0422 196.324 36.7749 196.204C36.5104 196.084 36.2905 195.902 36.1151 195.657C35.9424 195.412 35.8561 195.103 35.8561 194.73V188.349ZM42.3145 196.434C41.6965 196.434 41.1633 196.297 40.7151 196.024C40.2696 195.749 39.9258 195.365 39.6836 194.872C39.4441 194.376 39.3244 193.8 39.3244 193.143C39.3244 192.486 39.4441 191.907 39.6836 191.406C39.9258 190.902 40.2627 190.509 40.6942 190.228C41.1285 189.944 41.6352 189.802 42.2143 189.802C42.5484 189.802 42.8783 189.858 43.2041 189.969C43.5298 190.08 43.8263 190.261 44.0936 190.512C44.3608 190.76 44.5738 191.088 44.7325 191.497C44.8912 191.907 44.9706 192.411 44.9706 193.009V193.427H40.026V192.575H43.9683C43.9683 192.213 43.8959 191.89 43.7511 191.606C43.6091 191.322 43.4059 191.098 43.1414 190.934C42.8797 190.769 42.5707 190.687 42.2143 190.687C41.8218 190.687 41.4821 190.785 41.1953 190.98C40.9114 191.172 40.6928 191.422 40.5397 191.731C40.3866 192.04 40.31 192.372 40.31 192.725V193.293C40.31 193.778 40.3935 194.188 40.5606 194.525C40.7304 194.859 40.9656 195.114 41.2663 195.289C41.567 195.462 41.9164 195.548 42.3145 195.548C42.5735 195.548 42.8073 195.512 43.0161 195.44C43.2277 195.365 43.4101 195.253 43.5632 195.106C43.7163 194.955 43.8346 194.769 43.9182 194.546L44.8703 194.813C44.7701 195.136 44.6017 195.42 44.365 195.665C44.1284 195.907 43.836 196.097 43.488 196.233C43.14 196.367 42.7489 196.434 42.3145 196.434ZM46.4698 196.3V189.886H47.4219V190.888H47.5055C47.6391 190.545 47.8549 190.279 48.1528 190.09C48.4507 189.898 48.8084 189.802 49.226 189.802C49.6492 189.802 50.0014 189.898 50.2826 190.09C50.5666 190.279 50.7879 190.545 50.9466 190.888H51.0134C51.1777 190.556 51.4241 190.293 51.7526 190.098C52.0811 189.901 52.4751 189.802 52.9344 189.802C53.508 189.802 53.9771 189.982 54.3418 190.341C54.7065 190.697 54.8889 191.252 54.8889 192.007V196.3H53.9033V192.007C53.9033 191.534 53.7739 191.195 53.5149 190.992C53.256 190.789 52.9512 190.687 52.6004 190.687C52.1493 190.687 51.7999 190.824 51.5521 191.097C51.3044 191.367 51.1805 191.709 51.1805 192.124V196.3H50.1782V191.907C50.1782 191.542 50.0599 191.248 49.8232 191.026C49.5866 190.8 49.2817 190.687 48.9087 190.687C48.6525 190.687 48.4131 190.756 48.1904 190.892C47.9704 191.028 47.7922 191.218 47.6558 191.46C47.5222 191.699 47.4554 191.976 47.4554 192.291V196.3H46.4698ZM56.6909 198.706V189.886H57.643V190.904H57.76C57.8324 190.793 57.9326 190.651 58.0607 190.479C58.1915 190.303 58.378 190.147 58.6203 190.011C58.8653 189.872 59.1966 189.802 59.6142 189.802C60.1543 189.802 60.6304 189.937 61.0424 190.207C61.4545 190.477 61.776 190.86 62.0071 191.356C62.2382 191.851 62.3537 192.436 62.3537 193.109C62.3537 193.789 62.2382 194.378 62.0071 194.876C61.776 195.372 61.4559 195.756 61.0466 196.029C60.6373 196.299 60.1654 196.434 59.6309 196.434C59.2188 196.434 58.8889 196.365 58.6411 196.229C58.3934 196.09 58.2026 195.933 58.069 195.757C57.9354 195.579 57.8324 195.431 57.76 195.314H57.6765V198.706H56.6909ZM57.6597 193.093C57.6597 193.577 57.7307 194.005 57.8727 194.375C58.0147 194.742 58.2221 195.031 58.495 195.239C58.7678 195.445 59.1019 195.548 59.4972 195.548C59.9093 195.548 60.2531 195.44 60.5288 195.223C60.8072 195.003 61.016 194.708 61.1552 194.337C61.2972 193.964 61.3682 193.549 61.3682 193.093C61.3682 192.642 61.2986 192.235 61.1593 191.873C61.0229 191.509 60.8155 191.22 60.5371 191.009C60.2615 190.795 59.9149 190.687 59.4972 190.687C59.0963 190.687 58.7595 190.789 58.4866 190.992C58.2138 191.193 58.0078 191.474 57.8686 191.836C57.7293 192.195 57.6597 192.614 57.6597 193.093ZM66.463 196.434C65.884 196.434 65.3759 196.296 64.9388 196.02C64.5044 195.745 64.1648 195.359 63.9198 194.863C63.6776 194.368 63.5565 193.789 63.5565 193.126C63.5565 192.458 63.6776 191.875 63.9198 191.376C64.1648 190.878 64.5044 190.491 64.9388 190.215C65.3759 189.94 65.884 189.802 66.463 189.802C67.0421 189.802 67.5488 189.94 67.9832 190.215C68.4203 190.491 68.7599 190.878 69.0021 191.376C69.2471 191.875 69.3696 192.458 69.3696 193.126C69.3696 193.789 69.2471 194.368 69.0021 194.863C68.7599 195.359 68.4203 195.745 67.9832 196.02C67.5488 196.296 67.0421 196.434 66.463 196.434ZM66.463 195.548C66.9029 195.548 67.2649 195.436 67.5488 195.21C67.8328 194.985 68.043 194.688 68.1794 194.321C68.3159 193.953 68.3841 193.555 68.3841 193.126C68.3841 192.697 68.3159 192.298 68.1794 191.928C68.043 191.557 67.8328 191.258 67.5488 191.03C67.2649 190.801 66.9029 190.687 66.463 190.687C66.0232 190.687 65.6612 190.801 65.3772 191.03C65.0933 191.258 64.8831 191.557 64.7467 191.928C64.6102 192.298 64.542 192.697 64.542 193.126C64.542 193.555 64.6102 193.953 64.7467 194.321C64.8831 194.688 65.0933 194.985 65.3772 195.21C65.6612 195.436 66.0232 195.548 66.463 195.548ZM76.6037 196.434C76.0692 196.434 75.5973 196.299 75.188 196.029C74.7788 195.756 74.4586 195.372 74.2275 194.876C73.9964 194.378 73.8809 193.789 73.8809 193.109C73.8809 192.436 73.9964 191.851 74.2275 191.356C74.4586 190.86 74.7802 190.477 75.1922 190.207C75.6043 189.937 76.0803 189.802 76.6205 189.802C77.0381 189.802 77.368 189.872 77.6102 190.011C77.8552 190.147 78.0417 190.303 78.1698 190.479C78.3006 190.651 78.4023 190.793 78.4747 190.904H78.5582V187.747H79.5437V196.3H78.5916V195.314H78.4747C78.4023 195.431 78.2993 195.579 78.1656 195.757C78.032 195.933 77.8413 196.09 77.5935 196.229C77.3457 196.365 77.0158 196.434 76.6037 196.434ZM76.7374 195.548C77.1327 195.548 77.4668 195.445 77.7397 195.239C78.0125 195.031 78.2199 194.742 78.3619 194.375C78.5039 194.005 78.5749 193.577 78.5749 193.093C78.5749 192.614 78.5053 192.195 78.3661 191.836C78.2269 191.474 78.0208 191.193 77.748 190.992C77.4752 190.789 77.1383 190.687 76.7374 190.687C76.3198 190.687 75.9718 190.795 75.6933 191.009C75.4177 191.22 75.2103 191.509 75.0711 191.873C74.9347 192.235 74.8665 192.642 74.8665 193.093C74.8665 193.549 74.9361 193.964 75.0753 194.337C75.2173 194.708 75.4261 195.003 75.7017 195.223C75.9801 195.44 76.3253 195.548 76.7374 195.548ZM84.1751 196.434C83.557 196.434 83.0239 196.297 82.5756 196.024C82.1302 195.749 81.7863 195.365 81.5441 194.872C81.3047 194.376 81.185 193.8 81.185 193.143C81.185 192.486 81.3047 191.907 81.5441 191.406C81.7863 190.902 82.1232 190.509 82.5547 190.228C82.9891 189.944 83.4958 189.802 84.0749 189.802C84.4089 189.802 84.7389 189.858 85.0646 189.969C85.3903 190.08 85.6868 190.261 85.9541 190.512C86.2214 190.76 86.4344 191.088 86.5931 191.497C86.7518 191.907 86.8311 192.411 86.8311 193.009V193.427H81.8866V192.575H85.8288C85.8288 192.213 85.7564 191.89 85.6117 191.606C85.4697 191.322 85.2664 191.098 85.002 190.934C84.7403 190.769 84.4312 190.687 84.0749 190.687C83.6823 190.687 83.3426 190.785 83.0559 190.98C82.7719 191.172 82.5534 191.422 82.4002 191.731C82.2471 192.04 82.1705 192.372 82.1705 192.725V193.293C82.1705 193.778 82.2541 194.188 82.4211 194.525C82.5909 194.859 82.8262 195.114 83.1269 195.289C83.4276 195.462 83.777 195.548 84.1751 195.548C84.434 195.548 84.6679 195.512 84.8767 195.44C85.0883 195.365 85.2706 195.253 85.4237 195.106C85.5769 194.955 85.6952 194.769 85.7787 194.546L86.7309 194.813C86.6307 195.136 86.4622 195.42 86.2256 195.665C85.9889 195.907 85.6966 196.097 85.3486 196.233C85.0006 196.367 84.6094 196.434 84.1751 196.434ZM91.6378 198.706V189.886H92.59V190.904H92.7069C92.7793 190.793 92.8795 190.651 93.0076 190.479C93.1385 190.303 93.325 190.147 93.5672 190.011C93.8122 189.872 94.1435 189.802 94.5611 189.802C95.1012 189.802 95.5773 189.937 95.9894 190.207C96.4014 190.477 96.723 190.86 96.9541 191.356C97.1851 191.851 97.3007 192.436 97.3007 193.109C97.3007 193.789 97.1851 194.378 96.9541 194.876C96.723 195.372 96.4028 195.756 95.9936 196.029C95.5843 196.299 95.1124 196.434 94.5778 196.434C94.1658 196.434 93.8359 196.365 93.5881 196.229C93.3403 196.09 93.1496 195.933 93.016 195.757C92.8823 195.579 92.7793 195.431 92.7069 195.314H92.6234V198.706H91.6378ZM92.6067 193.093C92.6067 193.577 92.6777 194.005 92.8197 194.375C92.9617 194.742 93.1691 195.031 93.4419 195.239C93.7148 195.445 94.0489 195.548 94.4442 195.548C94.8562 195.548 95.2001 195.44 95.4757 195.223C95.7541 195.003 95.9629 194.708 96.1021 194.337C96.2441 193.964 96.3151 193.549 96.3151 193.093C96.3151 192.642 96.2455 192.235 96.1063 191.873C95.9699 191.509 95.7625 191.22 95.4841 191.009C95.2084 190.795 94.8618 190.687 94.4442 190.687C94.0433 190.687 93.7064 190.789 93.4336 190.992C93.1607 191.193 92.9547 191.474 92.8155 191.836C92.6763 192.195 92.6067 192.614 92.6067 193.093ZM100.692 196.45C100.285 196.45 99.9163 196.374 99.585 196.221C99.2537 196.065 98.9906 195.841 98.7957 195.548C98.6008 195.253 98.5034 194.897 98.5034 194.479C98.5034 194.112 98.5758 193.814 98.7206 193.586C98.8653 193.354 99.0588 193.174 99.301 193.043C99.5433 192.912 99.8105 192.814 100.103 192.75C100.398 192.684 100.694 192.631 100.992 192.592C101.382 192.542 101.698 192.504 101.94 192.479C102.185 192.451 102.364 192.405 102.475 192.341C102.589 192.277 102.646 192.166 102.646 192.007V191.974C102.646 191.562 102.533 191.241 102.308 191.013C102.085 190.785 101.747 190.671 101.293 190.671C100.823 190.671 100.454 190.774 100.186 190.98C99.9191 191.186 99.7312 191.406 99.6226 191.639L98.6872 191.305C98.8542 190.916 99.0769 190.612 99.3553 190.395C99.6365 190.175 99.9428 190.022 100.274 189.936C100.608 189.847 100.937 189.802 101.26 189.802C101.466 189.802 101.702 189.827 101.97 189.877C102.24 189.924 102.5 190.023 102.751 190.174C103.004 190.324 103.214 190.551 103.381 190.854C103.548 191.158 103.632 191.564 103.632 192.074V196.3H102.646V195.431H102.596C102.529 195.571 102.418 195.72 102.262 195.878C102.106 196.037 101.899 196.172 101.64 196.283C101.381 196.395 101.065 196.45 100.692 196.45ZM100.842 195.565C101.232 195.565 101.56 195.488 101.828 195.335C102.098 195.182 102.301 194.985 102.437 194.742C102.577 194.5 102.646 194.245 102.646 193.978V193.076C102.604 193.126 102.512 193.172 102.371 193.214C102.231 193.253 102.07 193.288 101.886 193.318C101.705 193.346 101.528 193.371 101.356 193.393C101.186 193.413 101.048 193.43 100.942 193.444C100.686 193.477 100.447 193.531 100.224 193.606C100.004 193.679 99.8258 193.789 99.6894 193.936C99.5558 194.081 99.489 194.279 99.489 194.529C99.489 194.872 99.6157 195.131 99.869 195.306C100.125 195.479 100.449 195.565 100.842 195.565ZM109.473 193.677V189.886H110.459V196.3H109.473V195.214H109.406C109.256 195.54 109.022 195.817 108.705 196.045C108.387 196.271 107.986 196.384 107.502 196.384C107.101 196.384 106.745 196.296 106.433 196.12C106.121 195.942 105.876 195.675 105.698 195.319C105.52 194.96 105.431 194.507 105.431 193.961V189.886H106.416V193.895C106.416 194.362 106.547 194.735 106.809 195.014C107.073 195.292 107.41 195.431 107.819 195.431C108.064 195.431 108.313 195.369 108.567 195.243C108.823 195.118 109.037 194.926 109.21 194.667C109.385 194.408 109.473 194.078 109.473 193.677ZM116.807 191.322L115.922 191.573C115.866 191.425 115.784 191.282 115.676 191.143C115.57 191.001 115.425 190.884 115.241 190.792C115.058 190.7 114.822 190.654 114.536 190.654C114.143 190.654 113.816 190.744 113.554 190.925C113.295 191.104 113.166 191.33 113.166 191.606C113.166 191.851 113.255 192.045 113.433 192.187C113.611 192.329 113.89 192.447 114.268 192.542L115.22 192.775C115.794 192.915 116.221 193.128 116.503 193.414C116.784 193.698 116.924 194.064 116.924 194.513C116.924 194.88 116.819 195.209 116.607 195.498C116.398 195.788 116.106 196.016 115.73 196.183C115.354 196.35 114.917 196.434 114.419 196.434C113.764 196.434 113.223 196.292 112.794 196.008C112.365 195.724 112.094 195.309 111.98 194.763L112.915 194.529C113.004 194.875 113.173 195.134 113.421 195.306C113.671 195.479 113.998 195.565 114.402 195.565C114.861 195.565 115.226 195.468 115.496 195.273C115.769 195.075 115.905 194.838 115.905 194.563C115.905 194.34 115.827 194.154 115.672 194.003C115.516 193.85 115.276 193.736 114.953 193.661L113.884 193.41C113.297 193.271 112.865 193.055 112.59 192.763C112.317 192.468 112.18 192.099 112.18 191.656C112.18 191.294 112.282 190.974 112.485 190.696C112.691 190.417 112.971 190.199 113.325 190.04C113.681 189.881 114.085 189.802 114.536 189.802C115.17 189.802 115.669 189.941 116.031 190.22C116.395 190.498 116.654 190.866 116.807 191.322ZM120.296 196.45C119.889 196.45 119.52 196.374 119.189 196.221C118.858 196.065 118.594 195.841 118.4 195.548C118.205 195.253 118.107 194.897 118.107 194.479C118.107 194.112 118.18 193.814 118.324 193.586C118.469 193.354 118.663 193.174 118.905 193.043C119.147 192.912 119.414 192.814 119.707 192.75C120.002 192.684 120.298 192.631 120.596 192.592C120.986 192.542 121.302 192.504 121.544 192.479C121.789 192.451 121.967 192.405 122.079 192.341C122.193 192.277 122.25 192.166 122.25 192.007V191.974C122.25 191.562 122.137 191.241 121.912 191.013C121.689 190.785 121.351 190.671 120.897 190.671C120.426 190.671 120.057 190.774 119.79 190.98C119.523 191.186 119.335 191.406 119.226 191.639L118.291 191.305C118.458 190.916 118.681 190.612 118.959 190.395C119.24 190.175 119.547 190.022 119.878 189.936C120.212 189.847 120.541 189.802 120.863 189.802C121.07 189.802 121.306 189.827 121.573 189.877C121.843 189.924 122.104 190.023 122.354 190.174C122.608 190.324 122.818 190.551 122.985 190.854C123.152 191.158 123.236 191.564 123.236 192.074V196.3H122.25V195.431H122.2C122.133 195.571 122.022 195.72 121.866 195.878C121.71 196.037 121.502 196.172 121.244 196.283C120.985 196.395 120.669 196.45 120.296 196.45ZM120.446 195.565C120.836 195.565 121.164 195.488 121.431 195.335C121.701 195.182 121.905 194.985 122.041 194.742C122.18 194.5 122.25 194.245 122.25 193.978V193.076C122.208 193.126 122.116 193.172 121.974 193.214C121.835 193.253 121.674 193.288 121.49 193.318C121.309 193.346 121.132 193.371 120.96 193.393C120.79 193.413 120.652 193.43 120.546 193.444C120.29 193.477 120.051 193.531 119.828 193.606C119.608 193.679 119.43 193.789 119.293 193.936C119.16 194.081 119.093 194.279 119.093 194.529C119.093 194.872 119.219 195.131 119.473 195.306C119.729 195.479 120.053 195.565 120.446 195.565Z" fill="#525866"/>
<circle cx="26.9601" cy="192.86" r="3.36" fill="#F6B51E"/>
<path d="M275.974 109.054V117.2H274.741V110.287H274.693L272.744 111.56V110.383L274.777 109.054H275.974ZM278.177 117.2V116.309L280.934 113.453C281.228 113.143 281.471 112.871 281.661 112.638C281.855 112.402 282 112.178 282.095 111.966C282.19 111.754 282.238 111.528 282.238 111.29C282.238 111.019 282.175 110.786 282.047 110.59C281.92 110.391 281.746 110.238 281.526 110.132C281.306 110.024 281.058 109.969 280.782 109.969C280.491 109.969 280.236 110.029 280.019 110.148C279.801 110.268 279.634 110.436 279.518 110.653C279.401 110.871 279.343 111.125 279.343 111.417H278.169C278.169 110.921 278.283 110.488 278.511 110.116C278.739 109.745 279.052 109.458 279.45 109.253C279.848 109.047 280.3 108.943 280.806 108.943C281.318 108.943 281.769 109.045 282.159 109.249C282.551 109.451 282.857 109.727 283.077 110.077C283.297 110.424 283.407 110.816 283.407 111.254C283.407 111.556 283.35 111.852 283.236 112.141C283.125 112.43 282.93 112.752 282.652 113.107C282.373 113.46 281.986 113.888 281.49 114.392L279.872 116.086V116.146H283.539V117.2H278.177ZM289.215 113.573V117.2H288.026V109.054H289.199V112.085H289.275C289.418 111.756 289.637 111.495 289.931 111.302C290.226 111.108 290.61 111.011 291.085 111.011C291.504 111.011 291.869 111.097 292.182 111.27C292.498 111.442 292.742 111.699 292.914 112.041C293.089 112.381 293.177 112.805 293.177 113.314V117.2H291.987V113.457C291.987 113.009 291.872 112.662 291.641 112.415C291.411 112.166 291.09 112.041 290.679 112.041C290.398 112.041 290.146 112.101 289.923 112.22C289.703 112.34 289.53 112.515 289.402 112.745C289.278 112.973 289.215 113.249 289.215 113.573ZM297.337 117.323C296.764 117.323 296.264 117.192 295.837 116.929C295.411 116.667 295.079 116.3 294.843 115.828C294.607 115.356 294.489 114.804 294.489 114.173C294.489 113.54 294.607 112.985 294.843 112.511C295.079 112.036 295.411 111.668 295.837 111.405C296.264 111.143 296.764 111.011 297.337 111.011C297.91 111.011 298.409 111.143 298.836 111.405C299.263 111.668 299.595 112.036 299.831 112.511C300.067 112.985 300.185 113.54 300.185 114.173C300.185 114.804 300.067 115.356 299.831 115.828C299.595 116.3 299.263 116.667 298.836 116.929C298.409 117.192 297.91 117.323 297.337 117.323ZM297.341 116.325C297.712 116.325 298.02 116.227 298.264 116.031C298.508 115.834 298.688 115.573 298.805 115.247C298.924 114.921 298.983 114.562 298.983 114.169C298.983 113.779 298.924 113.422 298.805 113.095C298.688 112.767 298.508 112.503 298.264 112.304C298.02 112.105 297.712 112.006 297.341 112.006C296.967 112.006 296.657 112.105 296.41 112.304C296.166 112.503 295.985 112.767 295.865 113.095C295.749 113.422 295.69 113.779 295.69 114.169C295.69 114.562 295.749 114.921 295.865 115.247C295.985 115.573 296.166 115.834 296.41 116.031C296.657 116.227 296.967 116.325 297.341 116.325ZM301.512 117.2V111.091H302.661V112.061H302.725C302.836 111.733 303.033 111.474 303.314 111.286C303.597 111.095 303.918 110.999 304.276 110.999C304.35 110.999 304.438 111.002 304.539 111.007C304.642 111.013 304.723 111.019 304.781 111.027V112.165C304.734 112.151 304.649 112.137 304.527 112.121C304.405 112.102 304.283 112.093 304.161 112.093C303.88 112.093 303.629 112.153 303.409 112.272C303.192 112.389 303.019 112.552 302.892 112.761C302.765 112.968 302.701 113.204 302.701 113.469V117.2H301.512ZM307.534 117.335C307.146 117.335 306.796 117.264 306.484 117.12C306.171 116.975 305.923 116.764 305.74 116.488C305.56 116.212 305.469 115.874 305.469 115.474C305.469 115.129 305.536 114.845 305.668 114.623C305.801 114.4 305.98 114.224 306.205 114.094C306.431 113.964 306.682 113.866 306.961 113.799C307.239 113.733 307.523 113.683 307.812 113.648C308.178 113.606 308.475 113.571 308.703 113.545C308.931 113.516 309.097 113.469 309.2 113.406C309.304 113.342 309.355 113.239 309.355 113.095V113.068C309.355 112.72 309.257 112.451 309.061 112.26C308.867 112.069 308.578 111.974 308.194 111.974C307.793 111.974 307.478 112.063 307.247 112.24C307.019 112.415 306.861 112.61 306.774 112.825L305.656 112.57C305.789 112.199 305.982 111.9 306.237 111.672C306.494 111.441 306.79 111.274 307.124 111.17C307.458 111.064 307.809 111.011 308.178 111.011C308.422 111.011 308.68 111.04 308.954 111.099C309.229 111.154 309.486 111.258 309.725 111.409C309.966 111.56 310.164 111.776 310.318 112.057C310.471 112.336 310.548 112.698 310.548 113.143V117.2H309.387V116.365H309.339C309.262 116.519 309.147 116.67 308.993 116.818C308.839 116.967 308.642 117.09 308.401 117.188C308.159 117.286 307.87 117.335 307.534 117.335ZM307.792 116.381C308.121 116.381 308.402 116.316 308.635 116.186C308.871 116.056 309.05 115.886 309.172 115.677C309.297 115.465 309.359 115.238 309.359 114.997V114.209C309.317 114.251 309.235 114.291 309.113 114.328C308.993 114.363 308.857 114.393 308.703 114.42C308.549 114.444 308.399 114.466 308.254 114.487C308.108 114.506 307.986 114.522 307.888 114.535C307.657 114.564 307.446 114.613 307.255 114.682C307.067 114.751 306.916 114.851 306.802 114.981C306.69 115.108 306.635 115.278 306.635 115.49C306.635 115.784 306.743 116.007 306.961 116.158C307.178 116.306 307.455 116.381 307.792 116.381ZM316.71 112.582L315.632 112.773C315.587 112.635 315.516 112.504 315.418 112.379C315.322 112.255 315.192 112.153 315.028 112.073C314.863 111.994 314.658 111.954 314.411 111.954C314.075 111.954 313.794 112.029 313.568 112.181C313.343 112.329 313.23 112.521 313.23 112.757C313.23 112.962 313.306 113.126 313.457 113.251C313.608 113.375 313.852 113.477 314.189 113.557L315.159 113.779C315.721 113.909 316.14 114.11 316.416 114.38C316.692 114.651 316.829 115.002 316.829 115.434C316.829 115.8 316.723 116.126 316.511 116.412C316.302 116.696 316.009 116.919 315.632 117.081C315.258 117.242 314.825 117.323 314.332 117.323C313.648 117.323 313.09 117.177 312.657 116.886C312.225 116.591 311.96 116.174 311.862 115.633L313.011 115.458C313.083 115.758 313.23 115.984 313.453 116.138C313.676 116.289 313.966 116.365 314.324 116.365C314.714 116.365 315.025 116.284 315.258 116.122C315.492 115.958 315.608 115.758 315.608 115.522C315.608 115.331 315.537 115.17 315.394 115.04C315.253 114.91 315.037 114.812 314.745 114.746L313.711 114.519C313.141 114.389 312.72 114.183 312.447 113.899C312.176 113.615 312.041 113.256 312.041 112.821C312.041 112.46 312.142 112.145 312.343 111.874C312.545 111.604 312.823 111.393 313.178 111.242C313.534 111.088 313.941 111.011 314.399 111.011C315.06 111.011 315.579 111.154 315.958 111.441C316.338 111.725 316.588 112.105 316.71 112.582Z" fill="#181B25"/>
<path d="M275.636 174.711C275.066 174.711 274.562 174.613 274.125 174.417C273.69 174.221 273.349 173.95 273.102 173.606C272.856 173.261 272.734 172.869 272.736 172.428C272.734 172.084 272.804 171.767 272.947 171.478C273.093 171.186 273.291 170.944 273.54 170.75C273.789 170.554 274.068 170.429 274.375 170.376V170.328C273.969 170.23 273.645 170.013 273.401 169.676C273.157 169.339 273.036 168.952 273.039 168.515C273.036 168.098 273.146 167.727 273.369 167.401C273.594 167.072 273.903 166.814 274.296 166.626C274.688 166.437 275.135 166.343 275.636 166.343C276.132 166.343 276.575 166.439 276.964 166.63C277.357 166.818 277.666 167.076 277.891 167.405C278.116 167.731 278.23 168.101 278.233 168.515C278.23 168.952 278.106 169.339 277.859 169.676C277.613 170.013 277.292 170.23 276.897 170.328V170.376C277.202 170.429 277.476 170.554 277.72 170.75C277.967 170.944 278.163 171.186 278.309 171.478C278.457 171.767 278.533 172.084 278.535 172.428C278.533 172.869 278.408 173.261 278.161 173.606C277.915 173.95 277.573 174.221 277.135 174.417C276.7 174.613 276.201 174.711 275.636 174.711ZM275.636 173.705C275.973 173.705 276.264 173.649 276.511 173.538C276.757 173.424 276.948 173.266 277.084 173.065C277.219 172.861 277.288 172.622 277.29 172.349C277.288 172.065 277.214 171.815 277.068 171.597C276.925 171.38 276.73 171.209 276.483 171.084C276.236 170.959 275.954 170.897 275.636 170.897C275.315 170.897 275.03 170.959 274.781 171.084C274.532 171.209 274.335 171.38 274.192 171.597C274.049 171.815 273.979 172.065 273.981 172.349C273.979 172.622 274.044 172.861 274.176 173.065C274.311 173.266 274.504 173.424 274.753 173.538C275.002 173.649 275.296 173.705 275.636 173.705ZM275.636 169.915C275.906 169.915 276.146 169.86 276.356 169.752C276.565 169.643 276.73 169.492 276.849 169.298C276.971 169.105 277.033 168.878 277.036 168.618C277.033 168.364 276.972 168.141 276.853 167.95C276.736 167.759 276.573 167.612 276.364 167.508C276.154 167.402 275.912 167.349 275.636 167.349C275.355 167.349 275.108 167.402 274.896 167.508C274.687 167.612 274.524 167.759 274.407 167.95C274.29 168.141 274.233 168.364 274.236 168.618C274.233 168.878 274.292 169.105 274.411 169.298C274.53 169.492 274.695 169.643 274.904 169.752C275.116 169.86 275.36 169.915 275.636 169.915ZM284.129 170.973V174.6H282.94V166.455H284.113V169.485H284.189C284.332 169.156 284.551 168.895 284.845 168.702C285.14 168.508 285.524 168.411 285.999 168.411C286.418 168.411 286.784 168.498 287.096 168.67C287.412 168.842 287.656 169.099 287.828 169.441C288.003 169.781 288.091 170.205 288.091 170.714V174.6H286.902V170.857C286.902 170.409 286.786 170.062 286.555 169.815C286.325 169.566 286.004 169.441 285.593 169.441C285.312 169.441 285.06 169.501 284.837 169.62C284.617 169.74 284.444 169.915 284.316 170.145C284.192 170.373 284.129 170.649 284.129 170.973ZM292.251 174.723C291.678 174.723 291.178 174.592 290.752 174.33C290.325 174.067 289.993 173.7 289.757 173.228C289.521 172.756 289.403 172.204 289.403 171.573C289.403 170.94 289.521 170.385 289.757 169.911C289.993 169.436 290.325 169.068 290.752 168.805C291.178 168.543 291.678 168.411 292.251 168.411C292.824 168.411 293.323 168.543 293.75 168.805C294.177 169.068 294.509 169.436 294.745 169.911C294.981 170.385 295.099 170.94 295.099 171.573C295.099 172.204 294.981 172.756 294.745 173.228C294.509 173.7 294.177 174.067 293.75 174.33C293.323 174.592 292.824 174.723 292.251 174.723ZM292.255 173.725C292.626 173.725 292.934 173.627 293.178 173.431C293.422 173.234 293.602 172.973 293.719 172.647C293.838 172.321 293.898 171.962 293.898 171.569C293.898 171.18 293.838 170.822 293.719 170.495C293.602 170.167 293.422 169.903 293.178 169.704C292.934 169.505 292.626 169.406 292.255 169.406C291.881 169.406 291.571 169.505 291.324 169.704C291.08 169.903 290.899 170.167 290.779 170.495C290.663 170.822 290.604 171.18 290.604 171.569C290.604 171.962 290.663 172.321 290.779 172.647C290.899 172.973 291.08 173.234 291.324 173.431C291.571 173.627 291.881 173.725 292.255 173.725ZM296.426 174.6V168.491H297.576V169.461H297.639C297.751 169.133 297.947 168.874 298.228 168.686C298.512 168.495 298.832 168.399 299.19 168.399C299.265 168.399 299.352 168.402 299.453 168.407C299.556 168.413 299.637 168.419 299.695 168.427V169.565C299.648 169.551 299.563 169.537 299.441 169.521C299.319 169.502 299.197 169.493 299.075 169.493C298.794 169.493 298.543 169.553 298.323 169.672C298.106 169.789 297.933 169.952 297.806 170.161C297.679 170.368 297.615 170.604 297.615 170.869V174.6H296.426ZM302.448 174.735C302.061 174.735 301.711 174.664 301.398 174.52C301.085 174.375 300.837 174.164 300.654 173.888C300.474 173.612 300.383 173.274 300.383 172.874C300.383 172.529 300.45 172.245 300.582 172.023C300.715 171.8 300.894 171.624 301.119 171.494C301.345 171.364 301.597 171.266 301.875 171.199C302.153 171.133 302.437 171.083 302.726 171.048C303.092 171.006 303.389 170.971 303.617 170.945C303.845 170.916 304.011 170.869 304.114 170.806C304.218 170.742 304.269 170.639 304.269 170.495V170.468C304.269 170.12 304.171 169.851 303.975 169.66C303.781 169.469 303.492 169.374 303.108 169.374C302.708 169.374 302.392 169.463 302.161 169.64C301.933 169.815 301.776 170.01 301.688 170.225L300.57 169.97C300.703 169.599 300.897 169.3 301.151 169.072C301.408 168.841 301.704 168.674 302.038 168.57C302.372 168.464 302.723 168.411 303.092 168.411C303.336 168.411 303.594 168.441 303.868 168.499C304.143 168.555 304.401 168.658 304.639 168.809C304.88 168.96 305.078 169.176 305.232 169.457C305.386 169.736 305.462 170.098 305.462 170.543V174.6H304.301V173.765H304.253C304.176 173.919 304.061 174.07 303.907 174.218C303.754 174.367 303.556 174.49 303.315 174.588C303.073 174.686 302.784 174.735 302.448 174.735ZM302.706 173.781C303.035 173.781 303.316 173.716 303.549 173.586C303.785 173.456 303.964 173.286 304.086 173.077C304.211 172.865 304.273 172.638 304.273 172.397V171.609C304.231 171.651 304.149 171.691 304.027 171.728C303.907 171.763 303.771 171.793 303.617 171.82C303.463 171.844 303.313 171.866 303.168 171.887C303.022 171.906 302.9 171.922 302.802 171.935C302.571 171.964 302.36 172.013 302.169 172.082C301.981 172.151 301.83 172.251 301.716 172.381C301.604 172.508 301.549 172.678 301.549 172.89C301.549 173.184 301.658 173.407 301.875 173.558C302.092 173.706 302.369 173.781 302.706 173.781ZM311.624 169.982L310.546 170.173C310.501 170.035 310.43 169.904 310.332 169.78C310.236 169.655 310.106 169.553 309.942 169.473C309.777 169.394 309.572 169.354 309.325 169.354C308.989 169.354 308.708 169.43 308.482 169.581C308.257 169.729 308.144 169.921 308.144 170.157C308.144 170.362 308.22 170.526 308.371 170.651C308.522 170.775 308.766 170.877 309.103 170.957L310.073 171.18C310.635 171.309 311.054 171.51 311.33 171.78C311.606 172.051 311.744 172.402 311.744 172.834C311.744 173.2 311.638 173.526 311.425 173.812C311.216 174.096 310.923 174.319 310.546 174.481C310.173 174.642 309.739 174.723 309.246 174.723C308.562 174.723 308.004 174.577 307.571 174.286C307.139 173.991 306.874 173.574 306.776 173.033L307.925 172.858C307.997 173.158 308.144 173.384 308.367 173.538C308.59 173.689 308.88 173.765 309.238 173.765C309.628 173.765 309.939 173.684 310.173 173.522C310.406 173.358 310.523 173.158 310.523 172.922C310.523 172.731 310.451 172.57 310.308 172.44C310.167 172.31 309.951 172.212 309.659 172.146L308.625 171.919C308.055 171.789 307.634 171.583 307.361 171.299C307.09 171.015 306.955 170.656 306.955 170.221C306.955 169.86 307.056 169.545 307.257 169.274C307.459 169.004 307.737 168.793 308.092 168.642C308.448 168.488 308.855 168.411 309.313 168.411C309.974 168.411 310.493 168.555 310.873 168.841C311.252 169.125 311.502 169.505 311.624 169.982Z" fill="#181B25"/>
</g>
<defs>
<filter id="filter0_d_866_4121" x="0.29" y="3.09" width="345.52" height="241.92" filterUnits="userSpaceOnUse" color-interpolation-filters="sRGB">
<feFlood flood-opacity="0" result="BackgroundImageFix"/>
<feColorMatrix in="SourceAlpha" type="matrix" values="0 0 0 0 0 0 0 0 0 0 0 0 0 0 0 0 0 0 127 0" result="hardAlpha"/>
<feOffset dy="2.8"/>
<feGaussianBlur stdDeviation="5.355"/>
<feComposite in2="hardAlpha" operator="out"/>
<feColorMatrix type="matrix" values="0 0 0 0 0 0 0 0 0 0 0 0 0 0 0 0 0 0 0.05 0"/>
<feBlend mode="normal" in2="BackgroundImageFix" result="effect1_dropShadow_866_4121"/>
<feBlend mode="normal" in="SourceGraphic" in2="effect1_dropShadow_866_4121" result="shape"/>
</filter>
</defs>
</svg>
