<svg width="360" height="207" viewBox="0 0 360 207" fill="none" xmlns="http://www.w3.org/2000/svg">
<g clip-path="url(#clip0_856_2679)">
<g clip-path="url(#clip1_856_2679)">
<mask id="mask0_856_2679" style="mask-type:luminance" maskUnits="userSpaceOnUse" x="0" y="0" width="360" height="207">
<path d="M360 0H0V207H360V0Z" fill="white"/>
</mask>
<g mask="url(#mask0_856_2679)">
<path d="M360 0H0V207H360V0Z" fill="white"/>
<path d="M28.7955 34.6634V32.4545H40.4006V34.6634H35.9048V47H33.2912V34.6634H28.7955ZM44.179 47.2202C43.4877 47.2202 42.8651 47.0971 42.3111 46.8509C41.7618 46.5999 41.3262 46.2306 41.0043 45.7429C40.687 45.2552 40.5284 44.6539 40.5284 43.9389C40.5284 43.3234 40.642 42.8144 40.8693 42.4119C41.0966 42.0095 41.4067 41.6875 41.7997 41.446C42.1927 41.2045 42.6354 41.0223 43.1278 40.8991C43.625 40.7713 44.1387 40.679 44.669 40.6222C45.3082 40.5559 45.8267 40.4967 46.2244 40.4446C46.6222 40.3878 46.911 40.3026 47.0909 40.1889C47.2756 40.0705 47.3679 39.8883 47.3679 39.642V39.5994C47.3679 39.0644 47.2093 38.6501 46.892 38.3565C46.5748 38.063 46.1179 37.9162 45.5213 37.9162C44.8916 37.9162 44.392 38.0535 44.0227 38.3281C43.6581 38.6027 43.4119 38.9271 43.2841 39.3011L40.8835 38.9602C41.0729 38.2973 41.3854 37.7434 41.821 37.2983C42.2566 36.8485 42.7893 36.5123 43.419 36.2898C44.0488 36.0625 44.7448 35.9489 45.5071 35.9489C46.0327 35.9489 46.5559 36.0104 47.0767 36.1335C47.5975 36.2566 48.0734 36.4602 48.5043 36.7443C48.9351 37.0237 49.2808 37.4048 49.5412 37.8878C49.8063 38.3707 49.9389 38.9744 49.9389 39.6989V47H47.4673V45.5014H47.3821C47.2259 45.8045 47.0057 46.0885 46.7216 46.3537C46.4422 46.6141 46.0895 46.8248 45.6634 46.9858C45.242 47.142 44.7472 47.2202 44.179 47.2202ZM44.8466 45.331C45.3627 45.331 45.8101 45.2292 46.1889 45.0256C46.5677 44.8172 46.8589 44.5426 47.0625 44.2017C47.2708 43.8608 47.375 43.4891 47.375 43.0866V41.8011C47.2945 41.8674 47.1572 41.929 46.9631 41.9858C46.7737 42.0426 46.5606 42.0923 46.3239 42.1349C46.0871 42.1776 45.8527 42.2154 45.6207 42.2486C45.3887 42.2817 45.1875 42.3101 45.017 42.3338C44.6335 42.3859 44.2902 42.4711 43.9872 42.5895C43.6842 42.7079 43.4451 42.8736 43.2699 43.0866C43.0947 43.295 43.0071 43.5649 43.0071 43.8963C43.0071 44.3698 43.1799 44.7273 43.5256 44.9688C43.8712 45.2102 44.3116 45.331 44.8466 45.331ZM54.6264 36.0909L56.8281 40.1179L59.0653 36.0909H61.7855L58.4972 41.5455L61.8423 47H59.1364L56.8281 43.0724L54.5412 47H51.8139L55.1378 41.5455L51.8991 36.0909H54.6264ZM66.8743 47.2202C66.183 47.2202 65.5604 47.0971 65.0064 46.8509C64.4571 46.5999 64.0215 46.2306 63.6996 45.7429C63.3823 45.2552 63.2237 44.6539 63.2237 43.9389C63.2237 43.3234 63.3374 42.8144 63.5646 42.4119C63.7919 42.0095 64.102 41.6875 64.495 41.446C64.888 41.2045 65.3307 41.0223 65.8232 40.8991C66.3203 40.7713 66.834 40.679 67.3643 40.6222C68.0036 40.5559 68.522 40.4967 68.9197 40.4446C69.3175 40.3878 69.6063 40.3026 69.7862 40.1889C69.9709 40.0705 70.0632 39.8883 70.0632 39.642V39.5994C70.0632 39.0644 69.9046 38.6501 69.5874 38.3565C69.2701 38.063 68.8132 37.9162 68.2166 37.9162C67.5869 37.9162 67.0874 38.0535 66.718 38.3281C66.3535 38.6027 66.1072 38.9271 65.9794 39.3011L63.5788 38.9602C63.7682 38.2973 64.0807 37.7434 64.5163 37.2983C64.9519 36.8485 65.4846 36.5123 66.1143 36.2898C66.7441 36.0625 67.4401 35.9489 68.2024 35.9489C68.728 35.9489 69.2512 36.0104 69.772 36.1335C70.2929 36.2566 70.7687 36.4602 71.1996 36.7443C71.6304 37.0237 71.9761 37.4048 72.2365 37.8878C72.5017 38.3707 72.6342 38.9744 72.6342 39.6989V47H70.1626V45.5014H70.0774C69.9212 45.8045 69.701 46.0885 69.4169 46.3537C69.1375 46.6141 68.7848 46.8248 68.3587 46.9858C67.9373 47.142 67.4425 47.2202 66.8743 47.2202ZM67.5419 45.331C68.058 45.331 68.5054 45.2292 68.8842 45.0256C69.263 44.8172 69.5542 44.5426 69.7578 44.2017C69.9661 43.8608 70.0703 43.4891 70.0703 43.0866V41.8011C69.9898 41.8674 69.8525 41.929 69.6584 41.9858C69.469 42.0426 69.2559 42.0923 69.0192 42.1349C68.7824 42.1776 68.5481 42.2154 68.3161 42.2486C68.084 42.2817 67.8828 42.3101 67.7124 42.3338C67.3288 42.3859 66.9856 42.4711 66.6825 42.5895C66.3795 42.7079 66.1404 42.8736 65.9652 43.0866C65.79 43.295 65.7024 43.5649 65.7024 43.8963C65.7024 44.3698 65.8752 44.7273 66.2209 44.9688C66.5665 45.2102 67.0069 45.331 67.5419 45.331ZM84.2287 47.1918C83.3717 47.1918 82.6046 46.9716 81.9276 46.5312C81.2505 46.0909 80.7154 45.4517 80.3224 44.6136C79.9295 43.7756 79.733 42.7576 79.733 41.5597C79.733 40.3475 79.9318 39.3248 80.3295 38.4915C80.732 37.6534 81.2741 37.0213 81.956 36.5952C82.6378 36.1643 83.3977 35.9489 84.2358 35.9489C84.875 35.9489 85.4006 36.0578 85.8125 36.2756C86.2244 36.4886 86.5511 36.7467 86.7926 37.0497C87.0341 37.348 87.2211 37.6297 87.3537 37.8949H87.4602V32.4545H90.0384V47H87.5099V45.2812H87.3537C87.2211 45.5464 87.0294 45.8281 86.7784 46.1264C86.5275 46.42 86.196 46.6709 85.7841 46.8793C85.3722 47.0876 84.8537 47.1918 84.2287 47.1918ZM84.946 45.0824C85.4905 45.0824 85.9545 44.9356 86.3381 44.642C86.7216 44.3437 87.0128 43.9295 87.2116 43.3991C87.4105 42.8688 87.5099 42.2509 87.5099 41.5455C87.5099 40.84 87.4105 40.2268 87.2116 39.706C87.0175 39.1851 86.7287 38.7803 86.3452 38.4915C85.9664 38.2027 85.5 38.0582 84.946 38.0582C84.3731 38.0582 83.8949 38.2074 83.5114 38.5057C83.1278 38.804 82.839 39.2159 82.6449 39.7415C82.4508 40.267 82.3537 40.8684 82.3537 41.5455C82.3537 42.2273 82.4508 42.8357 82.6449 43.3707C82.8438 43.901 83.1349 44.3201 83.5185 44.6278C83.9067 44.9309 84.3826 45.0824 84.946 45.0824ZM97.6076 47.2131C96.5138 47.2131 95.5692 46.9858 94.7738 46.5312C93.9831 46.072 93.3746 45.4233 92.9485 44.5852C92.5224 43.7424 92.3093 42.7505 92.3093 41.6094C92.3093 40.4872 92.5224 39.5024 92.9485 38.6548C93.3794 37.8026 93.9807 37.1397 94.7525 36.6662C95.5243 36.188 96.431 35.9489 97.4727 35.9489C98.145 35.9489 98.7795 36.0578 99.3761 36.2756C99.9774 36.4886 100.508 36.8201 100.967 37.2699C101.431 37.7197 101.796 38.2926 102.061 38.9886C102.326 39.6799 102.458 40.5038 102.458 41.4602V42.2486H93.5167V40.5156H99.994C99.9892 40.0232 99.8827 39.5852 99.6744 39.2017C99.466 38.8134 99.1748 38.508 98.8008 38.2855C98.4315 38.063 98.0006 37.9517 97.5082 37.9517C96.9826 37.9517 96.521 38.0795 96.1232 38.3352C95.7255 38.5862 95.4154 38.9176 95.1928 39.3295C94.975 39.7367 94.8638 40.1842 94.859 40.6719V42.1847C94.859 42.8191 94.975 43.3636 95.207 43.8182C95.439 44.268 95.7634 44.6136 96.18 44.8551C96.5967 45.0919 97.0844 45.2102 97.6431 45.2102C98.0172 45.2102 98.3557 45.1581 98.6587 45.054C98.9618 44.9451 99.2246 44.7865 99.4471 44.5781C99.6696 44.3698 99.8377 44.1117 99.9513 43.804L102.352 44.0739C102.2 44.7083 101.912 45.2623 101.485 45.7358C101.064 46.2045 100.524 46.5691 99.8661 46.8295C99.208 47.0852 98.4551 47.2131 97.6076 47.2131ZM109.708 47V32.4545H119.168V34.6634H112.343V38.6122H118.678V40.821H112.343V44.7912H119.225V47H109.708ZM131.487 36.0909L127.602 47H124.761L120.876 36.0909H123.618L126.125 44.1946H126.239L128.753 36.0909H131.487ZM136.093 47.2202C135.402 47.2202 134.779 47.0971 134.225 46.8509C133.676 46.5999 133.24 46.2306 132.918 45.7429C132.601 45.2552 132.442 44.6539 132.442 43.9389C132.442 43.3234 132.556 42.8144 132.783 42.4119C133.011 42.0095 133.321 41.6875 133.714 41.446C134.107 41.2045 134.549 41.0223 135.042 40.8991C135.539 40.7713 136.053 40.679 136.583 40.6222C137.222 40.5559 137.741 40.4967 138.138 40.4446C138.536 40.3878 138.825 40.3026 139.005 40.1889C139.19 40.0705 139.282 39.8883 139.282 39.642V39.5994C139.282 39.0644 139.123 38.6501 138.806 38.3565C138.489 38.063 138.032 37.9162 137.435 37.9162C136.806 37.9162 136.306 38.0535 135.937 38.3281C135.572 38.6027 135.326 38.9271 135.198 39.3011L132.798 38.9602C132.987 38.2973 133.299 37.7434 133.735 37.2983C134.171 36.8485 134.703 36.5123 135.333 36.2898C135.963 36.0625 136.659 35.9489 137.421 35.9489C137.947 35.9489 138.47 36.0104 138.991 36.1335C139.512 36.2566 139.987 36.4602 140.418 36.7443C140.849 37.0237 141.195 37.4048 141.455 37.8878C141.72 38.3707 141.853 38.9744 141.853 39.6989V47H139.381V45.5014H139.296C139.14 45.8045 138.92 46.0885 138.636 46.3537C138.356 46.6141 138.004 46.8248 137.577 46.9858C137.156 47.142 136.661 47.2202 136.093 47.2202ZM136.761 45.331C137.277 45.331 137.724 45.2292 138.103 45.0256C138.482 44.8172 138.773 44.5426 138.977 44.2017C139.185 43.8608 139.289 43.4891 139.289 43.0866V41.8011C139.209 41.8674 139.071 41.929 138.877 41.9858C138.688 42.0426 138.475 42.0923 138.238 42.1349C138.001 42.1776 137.767 42.2154 137.535 42.2486C137.303 42.2817 137.102 42.3101 136.931 42.3338C136.548 42.3859 136.204 42.4711 135.901 42.5895C135.598 42.7079 135.359 42.8736 135.184 43.0866C135.009 43.295 134.921 43.5649 134.921 43.8963C134.921 44.3698 135.094 44.7273 135.44 44.9688C135.785 45.2102 136.226 45.331 136.761 45.331ZM153.06 38.9744L150.717 39.2301C150.65 38.9934 150.534 38.7708 150.369 38.5625C150.208 38.3542 149.99 38.1861 149.715 38.0582C149.441 37.9304 149.104 37.8665 148.707 37.8665C148.172 37.8665 147.722 37.9825 147.357 38.2145C146.997 38.4465 146.82 38.7472 146.825 39.1165C146.82 39.4337 146.936 39.6918 147.173 39.8906C147.414 40.0895 147.812 40.2528 148.366 40.3807L150.227 40.7784C151.259 41.0009 152.026 41.3537 152.528 41.8366C153.034 42.3196 153.29 42.9517 153.295 43.733C153.29 44.4195 153.089 45.0256 152.691 45.5511C152.298 46.072 151.751 46.4792 151.05 46.7727C150.35 47.0663 149.545 47.2131 148.636 47.2131C147.3 47.2131 146.226 46.9337 145.411 46.375C144.597 45.8116 144.112 45.0279 143.955 44.0241L146.462 43.7827C146.576 44.2751 146.817 44.6468 147.187 44.8977C147.556 45.1487 148.037 45.2741 148.629 45.2741C149.239 45.2741 149.729 45.1487 150.099 44.8977C150.473 44.6468 150.66 44.3366 150.66 43.9673C150.66 43.6548 150.539 43.3968 150.298 43.1932C150.061 42.9896 149.692 42.8333 149.19 42.7244L147.329 42.3338C146.282 42.116 145.508 41.7491 145.006 41.233C144.504 40.7121 144.256 40.054 144.261 39.2585C144.256 38.5862 144.438 38.0038 144.808 37.5114C145.182 37.0142 145.7 36.6307 146.363 36.3608C147.031 36.0862 147.8 35.9489 148.671 35.9489C149.95 35.9489 150.956 36.2211 151.69 36.7656C152.428 37.3101 152.885 38.0464 153.06 38.9744ZM158.554 47.2202C157.863 47.2202 157.24 47.0971 156.686 46.8509C156.137 46.5999 155.701 46.2306 155.379 45.7429C155.062 45.2552 154.903 44.6539 154.903 43.9389C154.903 43.3234 155.017 42.8144 155.244 42.4119C155.472 42.0095 155.782 41.6875 156.175 41.446C156.568 41.2045 157.01 41.0223 157.503 40.8991C158 40.7713 158.514 40.679 159.044 40.6222C159.683 40.5559 160.202 40.4967 160.599 40.4446C160.997 40.3878 161.286 40.3026 161.466 40.1889C161.651 40.0705 161.743 39.8883 161.743 39.642V39.5994C161.743 39.0644 161.584 38.6501 161.267 38.3565C160.95 38.063 160.493 37.9162 159.896 37.9162C159.267 37.9162 158.767 38.0535 158.398 38.3281C158.033 38.6027 157.787 38.9271 157.659 39.3011L155.259 38.9602C155.448 38.2973 155.76 37.7434 156.196 37.2983C156.632 36.8485 157.164 36.5123 157.794 36.2898C158.424 36.0625 159.12 35.9489 159.882 35.9489C160.408 35.9489 160.931 36.0104 161.452 36.1335C161.973 36.2566 162.448 36.4602 162.879 36.7443C163.31 37.0237 163.656 37.4048 163.916 37.8878C164.181 38.3707 164.314 38.9744 164.314 39.6989V47H161.842V45.5014H161.757C161.601 45.8045 161.381 46.0885 161.097 46.3537C160.817 46.6141 160.464 46.8248 160.038 46.9858C159.617 47.142 159.122 47.2202 158.554 47.2202ZM159.222 45.331C159.738 45.331 160.185 45.2292 160.564 45.0256C160.943 44.8172 161.234 44.5426 161.438 44.2017C161.646 43.8608 161.75 43.4891 161.75 43.0866V41.8011C161.67 41.8674 161.532 41.929 161.338 41.9858C161.149 42.0426 160.936 42.0923 160.699 42.1349C160.462 42.1776 160.228 42.2154 159.996 42.2486C159.764 42.2817 159.563 42.3101 159.392 42.3338C159.009 42.3859 158.665 42.4711 158.362 42.5895C158.059 42.7079 157.82 42.8736 157.645 43.0866C157.47 43.295 157.382 43.5649 157.382 43.8963C157.382 44.3698 157.555 44.7273 157.901 44.9688C158.246 45.2102 158.687 45.331 159.222 45.331ZM157.908 34.7628L156.352 34.7273C156.352 33.8845 156.57 33.224 157.006 32.7457C157.441 32.2675 157.979 32.0284 158.618 32.0284C158.926 32.0284 159.193 32.0805 159.42 32.1847C159.648 32.2841 159.856 32.4001 160.045 32.5327C160.24 32.6652 160.429 32.7836 160.614 32.8878C160.798 32.9872 161.002 33.0369 161.224 33.0369C161.494 33.0369 161.707 32.9351 161.864 32.7315C162.025 32.5279 162.107 32.2675 162.112 31.9503L163.639 32.0142C163.634 32.8617 163.414 33.5199 162.979 33.9886C162.543 34.4527 162.008 34.687 161.374 34.6918C161.033 34.6965 160.746 34.6468 160.514 34.5426C160.282 34.4384 160.079 34.3201 159.903 34.1875C159.733 34.0549 159.56 33.9389 159.385 33.8395C159.21 33.7353 159.004 33.6832 158.767 33.6832C158.516 33.6832 158.31 33.7827 158.149 33.9815C157.988 34.1804 157.908 34.4408 157.908 34.7628ZM171.658 47.2131C170.592 47.2131 169.669 46.9787 168.888 46.5099C168.107 46.0412 167.5 45.3854 167.07 44.5426C166.643 43.6998 166.43 42.715 166.43 41.5881C166.43 40.4612 166.643 39.474 167.07 38.6264C167.5 37.7789 168.107 37.1207 168.888 36.652C169.669 36.1832 170.592 35.9489 171.658 35.9489C172.723 35.9489 173.646 36.1832 174.428 36.652C175.209 37.1207 175.813 37.7789 176.239 38.6264C176.67 39.474 176.885 40.4612 176.885 41.5881C176.885 42.715 176.67 43.6998 176.239 44.5426C175.813 45.3854 175.209 46.0412 174.428 46.5099C173.646 46.9787 172.723 47.2131 171.658 47.2131ZM171.672 45.1534C172.25 45.1534 172.732 44.9948 173.121 44.6776C173.509 44.3556 173.798 43.9247 173.987 43.3849C174.181 42.8452 174.278 42.2438 174.278 41.581C174.278 40.9134 174.181 40.3097 173.987 39.7699C173.798 39.2254 173.509 38.7921 173.121 38.4702C172.732 38.1482 172.25 37.9872 171.672 37.9872C171.08 37.9872 170.588 38.1482 170.195 38.4702C169.806 38.7921 169.515 39.2254 169.321 39.7699C169.132 40.3097 169.037 40.9134 169.037 41.581C169.037 42.2438 169.132 42.8452 169.321 43.3849C169.515 43.9247 169.806 44.3556 170.195 44.6776C170.588 44.9948 171.08 45.1534 171.672 45.1534ZM184.142 47V32.4545H193.602V34.6634H186.777V38.6122H193.112V40.821H186.777V44.7912H193.659V47H184.142ZM198.158 47H195.346L200.466 32.4545H203.719L208.847 47H206.034L202.15 35.4375H202.036L198.158 47ZM198.25 41.2969H205.921V43.4134H198.25V41.2969ZM215.692 47H210.763V32.4545H215.791C217.235 32.4545 218.476 32.7457 219.513 33.3281C220.554 33.9058 221.355 34.7367 221.913 35.821C222.472 36.9053 222.751 38.2027 222.751 39.7131C222.751 41.2282 222.47 42.5303 221.906 43.6193C221.348 44.7083 220.54 45.544 219.484 46.1264C218.433 46.7088 217.169 47 215.692 47ZM213.398 44.7202H215.564C216.577 44.7202 217.422 44.5355 218.099 44.1662C218.777 43.7921 219.286 43.2358 219.626 42.4972C219.967 41.7538 220.138 40.8258 220.138 39.7131C220.138 38.6004 219.967 37.6771 219.626 36.9432C219.286 36.2045 218.781 35.6529 218.114 35.2884C217.451 34.919 216.627 34.7344 215.642 34.7344H213.398V44.7202Z" fill="#0E121B"/>
<path d="M56.6761 115.912V114.818H64.3125V115.912H61.1108V125H59.8778V115.912H56.6761ZM67.2644 125.179C66.7805 125.179 66.3413 125.088 65.9469 124.906C65.5525 124.72 65.2393 124.453 65.0073 124.105C64.7753 123.754 64.6593 123.33 64.6593 122.832C64.6593 122.395 64.7454 122.04 64.9178 121.768C65.0901 121.493 65.3205 121.278 65.6088 121.122C65.8972 120.966 66.2154 120.85 66.5634 120.774C66.9147 120.695 67.2677 120.632 67.6223 120.585C68.0864 120.526 68.4625 120.481 68.7509 120.451C69.0426 120.418 69.2547 120.363 69.3873 120.287C69.5231 120.211 69.5911 120.078 69.5911 119.889V119.849C69.5911 119.359 69.4569 118.978 69.1884 118.706C68.9232 118.434 68.5205 118.298 67.9803 118.298C67.4202 118.298 66.981 118.421 66.6628 118.666C66.3446 118.911 66.1209 119.173 65.9917 119.452L64.878 119.054C65.0769 118.59 65.342 118.229 65.6735 117.97C66.0082 117.708 66.3728 117.526 66.7672 117.423C67.165 117.317 67.556 117.264 67.9405 117.264C68.1858 117.264 68.4675 117.294 68.7857 117.354C69.1072 117.41 69.4171 117.528 69.7154 117.707C70.017 117.886 70.2672 118.156 70.4661 118.517C70.665 118.878 70.7644 119.362 70.7644 119.969V125H69.5911V123.966H69.5314C69.4519 124.132 69.3193 124.309 69.1337 124.498C68.9481 124.687 68.7012 124.848 68.3929 124.98C68.0847 125.113 67.7085 125.179 67.2644 125.179ZM67.4434 124.125C67.9074 124.125 68.2985 124.034 68.6167 123.852C68.9382 123.669 69.1801 123.434 69.3425 123.146C69.5082 122.857 69.5911 122.554 69.5911 122.236V121.162C69.5414 121.222 69.432 121.276 69.263 121.326C69.0972 121.372 68.905 121.414 68.6863 121.45C68.4708 121.483 68.2604 121.513 68.0549 121.54C67.8527 121.563 67.6886 121.583 67.5627 121.599C67.2578 121.639 66.9727 121.704 66.7076 121.793C66.4457 121.879 66.2336 122.01 66.0712 122.186C65.9121 122.358 65.8326 122.594 65.8326 122.892C65.8326 123.3 65.9834 123.608 66.285 123.817C66.5899 124.022 66.976 124.125 67.4434 124.125ZM73.7809 117.364L75.6104 120.486L77.44 117.364H78.7923L76.3263 121.182L78.7923 125H77.44L75.6104 122.037L73.7809 125H72.4286L74.8548 121.182L72.4286 117.364H73.7809ZM82.7136 125.179C82.2297 125.179 81.7905 125.088 81.3961 124.906C81.0017 124.72 80.6885 124.453 80.4565 124.105C80.2245 123.754 80.1085 123.33 80.1085 122.832C80.1085 122.395 80.1947 122.04 80.367 121.768C80.5394 121.493 80.7697 121.278 81.0581 121.122C81.3464 120.966 81.6646 120.85 82.0126 120.774C82.3639 120.695 82.7169 120.632 83.0716 120.585C83.5356 120.526 83.9118 120.481 84.2001 120.451C84.4918 120.418 84.7039 120.363 84.8365 120.287C84.9724 120.211 85.0403 120.078 85.0403 119.889V119.849C85.0403 119.359 84.9061 118.978 84.6376 118.706C84.3725 118.434 83.9698 118.298 83.4295 118.298C82.8694 118.298 82.4302 118.421 82.112 118.666C81.7939 118.911 81.5701 119.173 81.4409 119.452L80.3272 119.054C80.5261 118.59 80.7913 118.229 81.1227 117.97C81.4574 117.708 81.822 117.526 82.2164 117.423C82.6142 117.317 83.0053 117.264 83.3897 117.264C83.635 117.264 83.9167 117.294 84.2349 117.354C84.5564 117.41 84.8663 117.528 85.1646 117.707C85.4662 117.886 85.7164 118.156 85.9153 118.517C86.1142 118.878 86.2136 119.362 86.2136 119.969V125H85.0403V123.966H84.9806C84.9011 124.132 84.7685 124.309 84.5829 124.498C84.3973 124.687 84.1504 124.848 83.8422 124.98C83.5339 125.113 83.1577 125.179 82.7136 125.179ZM82.8926 124.125C83.3566 124.125 83.7477 124.034 84.0659 123.852C84.3874 123.669 84.6293 123.434 84.7917 123.146C84.9574 122.857 85.0403 122.554 85.0403 122.236V121.162C84.9906 121.222 84.8812 121.276 84.7122 121.326C84.5465 121.372 84.3542 121.414 84.1355 121.45C83.92 121.483 83.7096 121.513 83.5041 121.54C83.3019 121.563 83.1378 121.583 83.0119 121.599C82.707 121.639 82.4219 121.704 82.1568 121.793C81.8949 121.879 81.6828 122.01 81.5204 122.186C81.3613 122.358 81.2818 122.594 81.2818 122.892C81.2818 123.3 81.4326 123.608 81.7342 123.817C82.0391 124.022 82.4252 124.125 82.8926 124.125ZM95.1761 125.159C94.5398 125.159 93.978 124.998 93.4908 124.677C93.0036 124.352 92.6224 123.895 92.3473 123.305C92.0722 122.711 91.9347 122.01 91.9347 121.202C91.9347 120.4 92.0722 119.704 92.3473 119.114C92.6224 118.524 93.0052 118.068 93.4957 117.746C93.9863 117.425 94.553 117.264 95.196 117.264C95.6932 117.264 96.0859 117.347 96.3743 117.513C96.666 117.675 96.888 117.861 97.0405 118.07C97.1963 118.275 97.3172 118.444 97.4034 118.577H97.5028V114.818H98.6761V125H97.5426V123.827H97.4034C97.3172 123.966 97.1946 124.142 97.0355 124.354C96.8764 124.562 96.6494 124.75 96.3544 124.915C96.0594 125.078 95.6667 125.159 95.1761 125.159ZM95.3352 124.105C95.8059 124.105 96.2036 123.982 96.5284 123.737C96.8532 123.489 97.1001 123.146 97.2692 122.708C97.4382 122.267 97.5227 121.759 97.5227 121.182C97.5227 120.612 97.4399 120.113 97.2741 119.685C97.1084 119.254 96.8632 118.92 96.5384 118.681C96.2135 118.439 95.8125 118.318 95.3352 118.318C94.8381 118.318 94.4238 118.446 94.0923 118.701C93.7642 118.953 93.5173 119.296 93.3516 119.73C93.1892 120.161 93.108 120.645 93.108 121.182C93.108 121.725 93.1908 122.219 93.3565 122.663C93.5256 123.104 93.7741 123.455 94.1023 123.717C94.4337 123.976 94.8447 124.105 95.3352 124.105ZM104.19 125.159C103.454 125.159 102.819 124.997 102.286 124.672C101.755 124.344 101.346 123.886 101.058 123.3C100.772 122.71 100.63 122.024 100.63 121.241C100.63 120.459 100.772 119.77 101.058 119.173C101.346 118.573 101.747 118.106 102.261 117.771C102.778 117.433 103.381 117.264 104.07 117.264C104.468 117.264 104.861 117.33 105.249 117.463C105.636 117.596 105.989 117.811 106.308 118.109C106.626 118.404 106.879 118.795 107.068 119.283C107.257 119.77 107.352 120.37 107.352 121.082V121.58H101.465V120.565H106.158C106.158 120.134 106.072 119.75 105.9 119.412C105.731 119.074 105.489 118.807 105.174 118.612C104.862 118.416 104.495 118.318 104.07 118.318C103.603 118.318 103.199 118.434 102.857 118.666C102.519 118.895 102.259 119.193 102.077 119.561C101.894 119.929 101.803 120.323 101.803 120.744V121.42C101.803 121.997 101.903 122.486 102.102 122.887C102.304 123.285 102.584 123.588 102.942 123.797C103.3 124.002 103.716 124.105 104.19 124.105C104.498 124.105 104.776 124.062 105.025 123.976C105.277 123.886 105.494 123.754 105.676 123.578C105.858 123.399 105.999 123.177 106.099 122.912L107.232 123.23C107.113 123.615 106.912 123.953 106.631 124.244C106.349 124.533 106.001 124.758 105.587 124.92C105.172 125.08 104.707 125.159 104.19 125.159ZM113.233 125V114.818H119.378V115.912H114.466V119.352H119.06V120.446H114.466V123.906H119.457V125H113.233ZM127.685 117.364L124.862 125H123.668L120.844 117.364H122.117L124.225 123.449H124.305L126.413 117.364H127.685ZM131.249 125.179C130.765 125.179 130.326 125.088 129.931 124.906C129.537 124.72 129.224 124.453 128.992 124.105C128.76 123.754 128.644 123.33 128.644 122.832C128.644 122.395 128.73 122.04 128.902 121.768C129.075 121.493 129.305 121.278 129.593 121.122C129.882 120.966 130.2 120.85 130.548 120.774C130.899 120.695 131.252 120.632 131.607 120.585C132.071 120.526 132.447 120.481 132.735 120.451C133.027 120.418 133.239 120.363 133.372 120.287C133.508 120.211 133.575 120.078 133.575 119.889V119.849C133.575 119.359 133.441 118.978 133.173 118.706C132.908 118.434 132.505 118.298 131.965 118.298C131.405 118.298 130.965 118.421 130.647 118.666C130.329 118.911 130.105 119.173 129.976 119.452L128.862 119.054C129.061 118.59 129.326 118.229 129.658 117.97C129.993 117.708 130.357 117.526 130.752 117.423C131.149 117.317 131.54 117.264 131.925 117.264C132.17 117.264 132.452 117.294 132.77 117.354C133.092 117.41 133.401 117.528 133.7 117.707C134.001 117.886 134.252 118.156 134.45 118.517C134.649 118.878 134.749 119.362 134.749 119.969V125H133.575V123.966H133.516C133.436 124.132 133.304 124.309 133.118 124.498C132.932 124.687 132.686 124.848 132.377 124.98C132.069 125.113 131.693 125.179 131.249 125.179ZM131.428 124.125C131.892 124.125 132.283 124.034 132.601 123.852C132.923 123.669 133.164 123.434 133.327 123.146C133.493 122.857 133.575 122.554 133.575 122.236V121.162C133.526 121.222 133.416 121.276 133.247 121.326C133.082 121.372 132.889 121.414 132.671 121.45C132.455 121.483 132.245 121.513 132.039 121.54C131.837 121.563 131.673 121.583 131.547 121.599C131.242 121.639 130.957 121.704 130.692 121.793C130.43 121.879 130.218 122.01 130.056 122.186C129.896 122.358 129.817 122.594 129.817 122.892C129.817 123.3 129.968 123.608 130.269 123.817C130.574 124.022 130.96 124.125 131.428 124.125ZM142.299 119.074L141.245 119.372C141.179 119.196 141.081 119.026 140.952 118.86C140.826 118.691 140.654 118.552 140.435 118.442C140.216 118.333 139.936 118.278 139.595 118.278C139.127 118.278 138.738 118.386 138.426 118.602C138.118 118.814 137.964 119.084 137.964 119.412C137.964 119.704 138.07 119.934 138.282 120.103C138.494 120.272 138.826 120.413 139.277 120.526L140.41 120.804C141.093 120.97 141.602 121.223 141.936 121.565C142.271 121.903 142.439 122.339 142.439 122.872C142.439 123.31 142.313 123.701 142.061 124.045C141.812 124.39 141.464 124.662 141.017 124.861C140.569 125.06 140.049 125.159 139.456 125.159C138.677 125.159 138.032 124.99 137.522 124.652C137.011 124.314 136.688 123.82 136.552 123.17L137.666 122.892C137.772 123.303 137.972 123.611 138.267 123.817C138.566 124.022 138.955 124.125 139.436 124.125C139.983 124.125 140.417 124.009 140.738 123.777C141.063 123.542 141.225 123.26 141.225 122.932C141.225 122.667 141.133 122.445 140.947 122.266C140.761 122.083 140.476 121.947 140.092 121.858L138.819 121.56C138.12 121.394 137.606 121.137 137.278 120.789C136.953 120.438 136.791 119.999 136.791 119.472C136.791 119.041 136.912 118.66 137.154 118.328C137.399 117.997 137.732 117.737 138.153 117.548C138.577 117.359 139.058 117.264 139.595 117.264C140.35 117.264 140.944 117.43 141.375 117.761C141.809 118.093 142.117 118.53 142.299 119.074ZM146.452 125.179C145.968 125.179 145.529 125.088 145.134 124.906C144.74 124.72 144.427 124.453 144.195 124.105C143.963 123.754 143.847 123.33 143.847 122.832C143.847 122.395 143.933 122.04 144.105 121.768C144.278 121.493 144.508 121.278 144.796 121.122C145.085 120.966 145.403 120.85 145.751 120.774C146.102 120.695 146.455 120.632 146.81 120.585C147.274 120.526 147.65 120.481 147.938 120.451C148.23 120.418 148.442 120.363 148.575 120.287C148.711 120.211 148.779 120.078 148.779 119.889V119.849C148.779 119.359 148.644 118.978 148.376 118.706C148.111 118.434 147.708 118.298 147.168 118.298C146.608 118.298 146.169 118.421 145.85 118.666C145.532 118.911 145.308 119.173 145.179 119.452L144.066 119.054C144.264 118.59 144.53 118.229 144.861 117.97C145.196 117.708 145.56 117.526 145.955 117.423C146.352 117.317 146.744 117.264 147.128 117.264C147.373 117.264 147.655 117.294 147.973 117.354C148.295 117.41 148.605 117.528 148.903 117.707C149.204 117.886 149.455 118.156 149.654 118.517C149.852 118.878 149.952 119.362 149.952 119.969V125H148.779V123.966H148.719C148.639 124.132 148.507 124.309 148.321 124.498C148.136 124.687 147.889 124.848 147.58 124.98C147.272 125.113 146.896 125.179 146.452 125.179ZM146.631 124.125C147.095 124.125 147.486 124.034 147.804 123.852C148.126 123.669 148.368 123.434 148.53 123.146C148.696 122.857 148.779 122.554 148.779 122.236V121.162C148.729 121.222 148.619 121.276 148.45 121.326C148.285 121.372 148.093 121.414 147.874 121.45C147.658 121.483 147.448 121.513 147.242 121.54C147.04 121.563 146.876 121.583 146.75 121.599C146.445 121.639 146.16 121.704 145.895 121.793C145.633 121.879 145.421 122.01 145.259 122.186C145.1 122.358 145.02 122.594 145.02 122.892C145.02 123.3 145.171 123.608 145.472 123.817C145.777 124.022 146.164 124.125 146.631 124.125ZM145.676 116.449L144.762 116.409C144.762 115.902 144.906 115.488 145.194 115.166C145.486 114.841 145.845 114.679 146.273 114.679C146.462 114.679 146.629 114.712 146.775 114.778C146.921 114.841 147.06 114.914 147.193 114.997C147.325 115.08 147.461 115.155 147.6 115.221C147.743 115.284 147.904 115.315 148.083 115.315C148.271 115.315 148.431 115.242 148.56 115.097C148.692 114.947 148.759 114.768 148.759 114.56L149.654 114.639C149.654 115.156 149.508 115.567 149.216 115.872C148.928 116.177 148.57 116.33 148.142 116.33C147.914 116.33 147.725 116.298 147.575 116.235C147.426 116.169 147.294 116.094 147.178 116.011C147.062 115.929 146.939 115.856 146.81 115.793C146.681 115.726 146.521 115.693 146.333 115.693C146.144 115.693 145.986 115.768 145.86 115.917C145.738 116.063 145.676 116.24 145.676 116.449ZM155.196 125.159C154.506 125.159 153.901 124.995 153.381 124.667C152.864 124.339 152.46 123.88 152.168 123.29C151.88 122.7 151.735 122.01 151.735 121.222C151.735 120.426 151.88 119.732 152.168 119.138C152.46 118.545 152.864 118.085 153.381 117.756C153.901 117.428 154.506 117.264 155.196 117.264C155.885 117.264 156.488 117.428 157.005 117.756C157.526 118.085 157.93 118.545 158.218 119.138C158.51 119.732 158.656 120.426 158.656 121.222C158.656 122.01 158.51 122.7 158.218 123.29C157.93 123.88 157.526 124.339 157.005 124.667C156.488 124.995 155.885 125.159 155.196 125.159ZM155.196 124.105C155.719 124.105 156.15 123.971 156.488 123.702C156.826 123.434 157.077 123.081 157.239 122.643C157.401 122.206 157.483 121.732 157.483 121.222C157.483 120.711 157.401 120.236 157.239 119.795C157.077 119.354 156.826 118.998 156.488 118.726C156.15 118.454 155.719 118.318 155.196 118.318C154.672 118.318 154.241 118.454 153.903 118.726C153.565 118.998 153.315 119.354 153.152 119.795C152.99 120.236 152.909 120.711 152.909 121.222C152.909 121.732 152.99 122.206 153.152 122.643C153.315 123.081 153.565 123.434 153.903 123.702C154.241 123.971 154.672 124.105 155.196 124.105Z" fill="#0E121B"/>
<path d="M39.6193 98.1989C38.9233 98.1941 38.2438 98.0734 37.581 97.8366C36.9181 97.5952 36.3215 97.2045 35.7912 96.6648C35.2609 96.1203 34.8395 95.3982 34.527 94.4986C34.2145 93.5942 34.0606 92.4744 34.0653 91.1392C34.0653 89.8939 34.1979 88.7836 34.4631 87.8082C34.7282 86.8329 35.1094 86.009 35.6065 85.3366C36.1037 84.6596 36.7027 84.1435 37.4034 83.7884C38.1089 83.4332 38.8973 83.2557 39.7685 83.2557C40.6823 83.2557 41.492 83.4356 42.1974 83.7955C42.9077 84.1553 43.4806 84.6477 43.9162 85.2727C44.3518 85.893 44.6217 86.5938 44.7259 87.375H42.1335C42.0009 86.8163 41.7287 86.3712 41.3168 86.0398C40.9096 85.7036 40.3935 85.5355 39.7685 85.5355C38.7599 85.5355 37.9834 85.9735 37.4389 86.8494C36.8991 87.7254 36.6269 88.928 36.6222 90.4574H36.7216C36.9536 90.0407 37.2543 89.6832 37.6236 89.3849C37.9929 89.0866 38.4096 88.857 38.8736 88.696C39.3423 88.5303 39.8371 88.4474 40.358 88.4474C41.2102 88.4474 41.9749 88.651 42.652 89.0582C43.3338 89.4654 43.8736 90.0265 44.2713 90.7415C44.669 91.4517 44.8655 92.2661 44.8608 93.1847C44.8655 94.1411 44.6477 95.0005 44.2074 95.7628C43.767 96.5204 43.1539 97.117 42.3679 97.5526C41.5819 97.9882 40.6657 98.2036 39.6193 98.1989ZM39.6051 96.0682C40.1212 96.0682 40.5829 95.9427 40.9901 95.6918C41.3973 95.4408 41.7192 95.1023 41.956 94.6761C42.1927 94.25 42.3087 93.7718 42.304 93.2415C42.3087 92.7206 42.1951 92.2495 41.9631 91.8281C41.7358 91.4067 41.4209 91.0729 41.0185 90.8267C40.616 90.5805 40.1567 90.4574 39.6406 90.4574C39.2571 90.4574 38.8996 90.5308 38.5682 90.6776C38.2367 90.8243 37.9479 91.0279 37.7017 91.2884C37.4555 91.544 37.2614 91.8423 37.1193 92.1832C36.982 92.5194 36.911 92.8793 36.9062 93.2628C36.911 93.7694 37.0294 94.2358 37.2614 94.6619C37.4934 95.0881 37.813 95.429 38.2202 95.6847C38.6274 95.9403 39.089 96.0682 39.6051 96.0682ZM46.9986 95.3011V93.206L53.1705 83.4545H54.9176V86.4375H53.8523L49.6974 93.0213V93.1349H58.3125V95.3011H46.9986ZM53.9375 98V94.6619L53.9659 93.7244V83.4545H56.4517V98H53.9375ZM68.3587 95.2727V94.5057C68.3587 93.9422 68.477 93.4238 68.7138 92.9503C68.9553 92.4768 69.3056 92.0956 69.7649 91.8068C70.2242 91.518 70.7805 91.3736 71.4339 91.3736C72.1063 91.3736 72.6697 91.518 73.1243 91.8068C73.5788 92.0909 73.9221 92.4697 74.1541 92.9432C74.3909 93.4167 74.5092 93.9375 74.5092 94.5057V95.2727C74.5092 95.8362 74.3909 96.3546 74.1541 96.8281C73.9174 97.3016 73.5694 97.6828 73.1101 97.9716C72.6555 98.2604 72.0968 98.4048 71.4339 98.4048C70.7711 98.4048 70.21 98.2604 69.7507 97.9716C69.2914 97.6828 68.9434 97.3016 68.7067 96.8281C68.4747 96.3546 68.3587 95.8362 68.3587 95.2727ZM70.2124 94.5057V95.2727C70.2124 95.6468 70.3023 95.9901 70.4822 96.3026C70.6622 96.6151 70.9794 96.7713 71.4339 96.7713C71.8932 96.7713 72.2081 96.6174 72.3786 96.3097C72.5537 95.9972 72.6413 95.6515 72.6413 95.2727V94.5057C72.6413 94.1269 72.5585 93.7812 72.3928 93.4688C72.227 93.1515 71.9074 92.9929 71.4339 92.9929C70.9889 92.9929 70.674 93.1515 70.4893 93.4688C70.3047 93.7812 70.2124 94.1269 70.2124 94.5057ZM60.9652 86.9489V86.1818C60.9652 85.6136 61.0859 85.0928 61.3274 84.6193C61.5689 84.1458 61.9193 83.767 62.3786 83.483C62.8378 83.1941 63.3942 83.0497 64.0476 83.0497C64.7152 83.0497 65.2763 83.1941 65.7308 83.483C66.1901 83.767 66.5357 84.1458 66.7678 84.6193C66.9998 85.0928 67.1158 85.6136 67.1158 86.1818V86.9489C67.1158 87.517 66.9974 88.0379 66.7607 88.5114C66.5286 88.9801 66.183 89.3565 65.7237 89.6406C65.2644 89.9247 64.7057 90.0668 64.0476 90.0668C63.38 90.0668 62.8165 89.9247 62.3572 89.6406C61.9027 89.3565 61.5571 88.9777 61.3203 88.5043C61.0836 88.0308 60.9652 87.5123 60.9652 86.9489ZM62.8331 86.1818V86.9489C62.8331 87.3277 62.9207 87.6733 63.0959 87.9858C63.2758 88.2936 63.593 88.4474 64.0476 88.4474C64.5021 88.4474 64.8146 88.2936 64.9851 87.9858C65.1603 87.6733 65.2479 87.3277 65.2479 86.9489V86.1818C65.2479 85.803 65.165 85.4574 64.9993 85.1449C64.8336 84.8277 64.5163 84.669 64.0476 84.669C63.5978 84.669 63.2829 84.8277 63.103 85.1449C62.9231 85.4621 62.8331 85.8078 62.8331 86.1818ZM61.7749 98L71.7749 83.4545H73.5504L63.5504 98H61.7749Z" fill="#0E121B"/>
<path d="M330 50C330 38.9543 321.046 30 310 30C298.954 30 290 38.9543 290 50C290 61.0457 298.954 70 310 70C321.046 70 330 61.0457 330 50Z" fill="#49BEFF"/>
<path d="M309.25 58.75V56.65C308.383 56.5 307.638 56.1627 307.013 55.638C306.388 55.1127 305.925 54.375 305.625 53.425L307 52.85C307.267 53.6333 307.65 54.229 308.15 54.637C308.65 55.0457 309.317 55.25 310.15 55.25C310.867 55.25 311.5 55.0793 312.05 54.738C312.6 54.396 312.875 53.85 312.875 53.1C312.875 52.45 312.671 51.9333 312.262 51.55C311.854 51.1667 311 50.7667 309.7 50.35C308.333 49.9167 307.383 49.4083 306.85 48.825C306.317 48.2417 306.05 47.5167 306.05 46.65C306.05 45.65 306.404 44.8583 307.113 44.275C307.821 43.6917 308.533 43.3667 309.25 43.3V41.25H310.75V43.3C311.517 43.4167 312.158 43.6707 312.675 44.062C313.192 44.454 313.6 44.9667 313.9 45.6L312.525 46.225C312.308 45.7417 312.004 45.3667 311.613 45.1C311.221 44.8333 310.7 44.7 310.05 44.7C309.3 44.7 308.696 44.8833 308.238 45.25C307.779 45.6167 307.55 46.0833 307.55 46.65C307.55 47.2333 307.783 47.7 308.25 48.05C308.717 48.4 309.592 48.7667 310.875 49.15C312.058 49.5 312.937 50.0083 313.512 50.675C314.087 51.3417 314.375 52.1417 314.375 53.075C314.375 54.1583 314.025 55.004 313.325 55.612C312.625 56.2207 311.767 56.5833 310.75 56.7V58.75H309.25Z" fill="white"/>
<path d="M50 121C50 115.477 45.5228 111 40 111C34.4772 111 30 115.477 30 121C30 126.523 34.4772 131 40 131C45.5228 131 50 126.523 50 121Z" fill="#FBF2EF"/>
<path d="M36.2664 116.5L35.5664 117.2L42.1331 123.767H36.1664V124.767H43.8331V117.1H42.8331V123.067L36.2664 116.5Z" fill="#FA896B"/>
<mask id="mask1_856_2679" style="mask-type:alpha" maskUnits="userSpaceOnUse" x="0" y="131" width="362" height="75">
<path d="M0 131H362V206H0V131Z" fill="#DCDCDC"/>
</mask>
<g mask="url(#mask1_856_2679)">
<path d="M42.5493 158.791C37.7689 193.811 10.68 176.54 -1.00537 179.278V207.011H366.022V168.47C353.275 169.853 338.757 159.823 333.091 154.635C311.845 135.266 283.162 150.023 271.477 159.823C230.259 193.373 196.938 173.802 185.43 159.823C172.617 144.259 158.695 153.338 154.623 158.958C148.674 167.951 134.793 175.099 128.596 177.549C81.0049 195.534 62.025 173.202 58.4839 153.17C53.7035 138.903 43.0805 145.821 42.5493 158.791Z" fill="url(#paint0_linear_856_2679)" stroke="#49BEFF" stroke-width="2"/>
</g>
</g>
</g>
</g>
<defs>
<linearGradient id="paint0_linear_856_2679" x1="182.509" y1="145.16" x2="182.509" y2="207.011" gradientUnits="userSpaceOnUse">
<stop stop-color="#E3F8FD"/>
<stop offset="1" stop-color="#E3F8FD" stop-opacity="0"/>
</linearGradient>
<clipPath id="clip0_856_2679">
<rect width="360" height="207" fill="white"/>
</clipPath>
<clipPath id="clip1_856_2679">
<rect width="360" height="207" fill="white"/>
</clipPath>
</defs>
</svg>
