<svg width="360" height="193" viewBox="0 0 360 193" fill="none" xmlns="http://www.w3.org/2000/svg">
<g clip-path="url(#clip0_921_106)">
<g clip-path="url(#clip1_921_106)">
<g clip-path="url(#clip2_921_106)">
<path d="M360 0H0V193H360V0Z" fill="white"/>
<path d="M50 111C50 105.477 45.5228 101 40 101C34.4772 101 30 105.477 30 111C30 116.523 34.4772 121 40 121C45.5228 121 50 116.523 50 111Z" fill="#E6FFFA"/>
<path d="M43.1331 114.767L43.8331 114.067L37.2664 107.5H43.2331V106.5H35.5664V114.167H36.5664V108.2L43.1331 114.767Z" fill="#13DEB9"/>
<path d="M35 159.5C37.7614 159.5 40 157.261 40 154.5C40 151.739 37.7614 149.5 35 149.5C32.2386 149.5 30 151.739 30 154.5C30 157.261 32.2386 159.5 35 159.5Z" fill="#5D87FF"/>
<path d="M128.5 159.5C131.261 159.5 133.5 157.261 133.5 154.5C133.5 151.739 131.261 149.5 128.5 149.5C125.739 149.5 123.5 151.739 123.5 154.5C123.5 157.261 125.739 159.5 128.5 159.5Z" fill="#ECF2FF"/>
<path d="M324.555 113.5C327.562 113.5 330.031 111.055 329.701 108.066C328.832 100.198 326.085 92.6249 321.658 85.9993C316.219 77.859 308.488 71.5145 299.443 67.768C290.398 64.0214 280.445 63.0412 270.843 64.9511C261.241 66.8611 252.421 71.5755 245.498 78.4982C238.576 85.4209 233.861 94.241 231.951 103.843C230.041 113.445 231.021 123.398 234.768 132.443C238.515 141.488 244.859 149.219 252.999 154.658C259.625 159.085 267.198 161.832 275.066 162.701C278.055 163.031 280.5 160.562 280.5 157.555C280.5 154.548 278.05 152.149 275.073 151.727C269.363 150.916 263.883 148.833 259.049 145.603C252.7 141.361 247.751 135.33 244.829 128.275C241.907 121.22 241.142 113.457 242.632 105.968C244.122 98.478 247.799 91.5983 253.199 86.1986C258.598 80.7989 265.478 77.1217 272.968 75.6319C280.457 74.1421 288.22 74.9067 295.275 77.829C302.33 80.7513 308.361 85.7001 312.603 92.0494C315.833 96.883 317.916 102.363 318.727 108.073C319.149 111.05 321.548 113.5 324.555 113.5Z" fill="#F9F9FD"/>
<path d="M254.565 149.112C252.795 151.543 253.318 154.978 255.928 156.471C262.8 160.4 270.539 162.638 278.501 162.96C288.283 163.355 297.963 160.841 306.316 155.735C314.669 150.629 321.321 143.161 325.43 134.274C328.774 127.041 330.311 119.134 329.948 111.226C329.81 108.222 326.991 106.19 324.02 106.657C321.05 107.124 319.061 109.917 319.106 112.924C319.192 118.69 317.985 124.427 315.545 129.704C312.34 136.635 307.152 142.46 300.637 146.443C294.121 150.426 286.571 152.387 278.941 152.078C273.132 151.844 267.476 150.302 262.383 147.596C259.728 146.185 256.335 146.681 254.565 149.112Z" fill="#EDEAFF"/>
<path d="M324.555 113.5C327.562 113.5 330.031 111.055 329.701 108.066C329.189 103.431 328.024 98.8822 326.232 94.5572C323.744 88.5516 320.098 83.0947 315.502 78.4982C310.905 73.9017 305.448 70.2556 299.443 67.768C295.118 65.9765 290.569 64.8111 285.934 64.2992C282.945 63.969 280.5 66.4378 280.5 69.445C280.5 72.4522 282.95 74.8506 285.927 75.2733C289.131 75.7282 292.272 76.5851 295.275 77.829C299.96 79.7693 304.216 82.6133 307.801 86.1986C311.387 89.7839 314.231 94.0402 316.171 98.7246C317.415 101.728 318.272 104.869 318.727 108.073C319.149 111.05 321.548 113.5 324.555 113.5Z" fill="#5D87FF"/>
<path d="M33.3026 48H30.4901L35.6108 33.4545H38.8636L43.9915 48H41.179L37.294 36.4375H37.1804L33.3026 48ZM33.3949 42.2969H41.0653V44.4134H33.3949V42.2969ZM50.2202 48.2131C49.1312 48.2131 48.196 47.974 47.4148 47.4957C46.6383 47.0175 46.0393 46.357 45.6179 45.5142C45.2012 44.6667 44.9929 43.6913 44.9929 42.5881C44.9929 41.4801 45.206 40.5024 45.6321 39.6548C46.0582 38.8026 46.6596 38.1397 47.4361 37.6662C48.2173 37.188 49.1406 36.9489 50.206 36.9489C51.0914 36.9489 51.875 37.1122 52.5568 37.4389C53.2434 37.7609 53.7902 38.2178 54.1974 38.8097C54.6046 39.3968 54.8366 40.0833 54.8935 40.8693H52.4361C52.3366 40.3437 52.0999 39.9058 51.7259 39.5554C51.3565 39.2003 50.8617 39.0227 50.2415 39.0227C49.7159 39.0227 49.2543 39.1648 48.8565 39.4489C48.4588 39.7282 48.1487 40.1307 47.9261 40.6562C47.7083 41.1818 47.5994 41.8116 47.5994 42.5455C47.5994 43.2888 47.7083 43.928 47.9261 44.4631C48.1439 44.9934 48.4493 45.4029 48.8423 45.6918C49.2401 45.9759 49.7064 46.1179 50.2415 46.1179C50.6203 46.1179 50.9588 46.0469 51.2571 45.9048C51.5601 45.758 51.8134 45.5473 52.017 45.2727C52.2206 44.9981 52.3603 44.6643 52.4361 44.2713H54.8935C54.8319 45.0431 54.6046 45.7273 54.2116 46.3239C53.8187 46.9157 53.2836 47.3797 52.6065 47.7159C51.9295 48.0473 51.134 48.2131 50.2202 48.2131ZM61.7631 48.2131C60.6978 48.2131 59.7745 47.9787 58.9933 47.5099C58.212 47.0412 57.6059 46.3854 57.1751 45.5426C56.7489 44.6998 56.5359 43.715 56.5359 42.5881C56.5359 41.4612 56.7489 40.474 57.1751 39.6264C57.6059 38.7789 58.212 38.1207 58.9933 37.652C59.7745 37.1832 60.6978 36.9489 61.7631 36.9489C62.8285 36.9489 63.7518 37.1832 64.533 37.652C65.3143 38.1207 65.918 38.7789 66.3441 39.6264C66.775 40.474 66.9904 41.4612 66.9904 42.5881C66.9904 43.715 66.775 44.6998 66.3441 45.5426C65.918 46.3854 65.3143 47.0412 64.533 47.5099C63.7518 47.9787 62.8285 48.2131 61.7631 48.2131ZM61.7773 46.1534C62.355 46.1534 62.8379 45.9948 63.2262 45.6776C63.6145 45.3556 63.9033 44.9247 64.0927 44.3849C64.2868 43.8452 64.3839 43.2438 64.3839 42.581C64.3839 41.9134 64.2868 41.3097 64.0927 40.7699C63.9033 40.2254 63.6145 39.7921 63.2262 39.4702C62.8379 39.1482 62.355 38.9872 61.7773 38.9872C61.1855 38.9872 60.6931 39.1482 60.3001 39.4702C59.9118 39.7921 59.6206 40.2254 59.4265 40.7699C59.2371 41.3097 59.1424 41.9134 59.1424 42.581C59.1424 43.2438 59.2371 43.8452 59.4265 44.3849C59.6206 44.9247 59.9118 45.3556 60.3001 45.6776C60.6931 45.9948 61.1855 46.1534 61.7773 46.1534ZM69.1726 48V37.0909H71.63V38.9446H71.7578C71.9851 38.3196 72.3615 37.8319 72.8871 37.4815C73.4126 37.1264 74.04 36.9489 74.7692 36.9489C75.5078 36.9489 76.1304 37.1288 76.6371 37.4886C77.1484 37.8437 77.5083 38.3291 77.7166 38.9446H77.8303C78.0717 38.3385 78.4789 37.8556 79.0518 37.4957C79.6295 37.1312 80.3137 36.9489 81.1044 36.9489C82.1082 36.9489 82.9273 37.2661 83.5618 37.9006C84.1963 38.535 84.5135 39.4607 84.5135 40.6776V48H81.9354V41.0753C81.9354 40.3982 81.7554 39.9034 81.3956 39.5909C81.0357 39.2737 80.5954 39.1151 80.0746 39.1151C79.4543 39.1151 78.969 39.3092 78.6186 39.6974C78.273 40.081 78.1001 40.5805 78.1001 41.196V48H75.5788V40.9688C75.5788 40.4053 75.4084 39.9555 75.0675 39.6193C74.7313 39.2831 74.291 39.1151 73.7464 39.1151C73.3771 39.1151 73.041 39.2098 72.7379 39.3991C72.4349 39.5838 72.1934 39.8466 72.0135 40.1875C71.8336 40.5237 71.7436 40.9167 71.7436 41.3665V48H69.1726ZM87.1218 52.0909V37.0909H89.6502V38.8949H89.7994C89.9319 38.6297 90.119 38.348 90.3604 38.0497C90.6019 37.7467 90.9286 37.4886 91.3406 37.2756C91.7525 37.0578 92.2781 36.9489 92.9173 36.9489C93.7601 36.9489 94.52 37.1643 95.1971 37.5952C95.8789 38.0213 96.4187 38.6534 96.8164 39.4915C97.2189 40.3248 97.4201 41.3475 97.4201 42.5597C97.4201 43.7576 97.2236 44.7756 96.8306 45.6136C96.4376 46.4517 95.9026 47.0909 95.2255 47.5312C94.5484 47.9716 93.7814 48.1918 92.9244 48.1918C92.2994 48.1918 91.7809 48.0876 91.369 47.8793C90.957 47.6709 90.6256 47.42 90.3746 47.1264C90.1284 46.8281 89.9367 46.5464 89.7994 46.2812H89.6928V52.0909H87.1218ZM89.6431 42.5455C89.6431 43.2509 89.7425 43.8688 89.9414 44.3991C90.145 44.9295 90.4362 45.3437 90.815 45.642C91.1985 45.9356 91.6625 46.0824 92.207 46.0824C92.7752 46.0824 93.2511 45.9309 93.6346 45.6278C94.0181 45.3201 94.3069 44.901 94.5011 44.3707C94.6999 43.8357 94.7994 43.2273 94.7994 42.5455C94.7994 41.8684 94.7023 41.267 94.5082 40.7415C94.314 40.2159 94.0252 39.804 93.6417 39.5057C93.2582 39.2074 92.7799 39.0582 92.207 39.0582C91.6578 39.0582 91.1914 39.2027 90.8079 39.4915C90.4244 39.7803 90.1332 40.1851 89.9343 40.706C89.7402 41.2268 89.6431 41.84 89.6431 42.5455ZM102.761 48.2202C102.07 48.2202 101.447 48.0971 100.893 47.8509C100.344 47.5999 99.9083 47.2306 99.5863 46.7429C99.2691 46.2552 99.1104 45.6539 99.1104 44.9389C99.1104 44.3234 99.2241 43.8144 99.4513 43.4119C99.6786 43.0095 99.9888 42.6875 100.382 42.446C100.775 42.2045 101.217 42.0223 101.71 41.8991C102.207 41.7713 102.721 41.679 103.251 41.6222C103.89 41.5559 104.409 41.4967 104.806 41.4446C105.204 41.3878 105.493 41.3026 105.673 41.1889C105.858 41.0705 105.95 40.8883 105.95 40.642V40.5994C105.95 40.0644 105.791 39.6501 105.474 39.3565C105.157 39.063 104.7 38.9162 104.103 38.9162C103.474 38.9162 102.974 39.0535 102.605 39.3281C102.24 39.6027 101.994 39.9271 101.866 40.3011L99.4656 39.9602C99.6549 39.2973 99.9674 38.7434 100.403 38.2983C100.839 37.8485 101.371 37.5123 102.001 37.2898C102.631 37.0625 103.327 36.9489 104.089 36.9489C104.615 36.9489 105.138 37.0104 105.659 37.1335C106.18 37.2566 106.655 37.4602 107.086 37.7443C107.517 38.0237 107.863 38.4048 108.123 38.8878C108.388 39.3707 108.521 39.9744 108.521 40.6989V48H106.049V46.5014H105.964C105.808 46.8045 105.588 47.0885 105.304 47.3537C105.024 47.6141 104.672 47.8248 104.245 47.9858C103.824 48.142 103.329 48.2202 102.761 48.2202ZM103.429 46.331C103.945 46.331 104.392 46.2292 104.771 46.0256C105.15 45.8172 105.441 45.5426 105.645 45.2017C105.853 44.8608 105.957 44.4891 105.957 44.0866V42.8011C105.877 42.8674 105.739 42.929 105.545 42.9858C105.356 43.0426 105.143 43.0923 104.906 43.1349C104.669 43.1776 104.435 43.2154 104.203 43.2486C103.971 43.2817 103.77 43.3101 103.599 43.3338C103.216 43.3859 102.872 43.4711 102.569 43.5895C102.266 43.7079 102.027 43.8736 101.852 44.0866C101.677 44.295 101.589 44.5649 101.589 44.8963C101.589 45.3698 101.762 45.7273 102.108 45.9688C102.453 46.2102 102.894 46.331 103.429 46.331ZM113.677 41.608V48H111.106V37.0909H113.564V38.9446H113.691C113.942 38.3338 114.342 37.8485 114.892 37.4886C115.446 37.1288 116.13 36.9489 116.944 36.9489C117.697 36.9489 118.353 37.1098 118.912 37.4318C119.475 37.7538 119.911 38.2202 120.218 38.831C120.531 39.4418 120.685 40.1828 120.68 41.054V48H118.109V41.4517C118.109 40.7225 117.92 40.152 117.541 39.7401C117.167 39.3281 116.648 39.1222 115.985 39.1222C115.536 39.1222 115.136 39.2216 114.785 39.4205C114.44 39.6146 114.167 39.8963 113.968 40.2656C113.774 40.6349 113.677 41.0824 113.677 41.608ZM125.865 41.608V48H123.294V33.4545H125.808V38.9446H125.936C126.191 38.3291 126.587 37.8437 127.122 37.4886C127.662 37.1288 128.348 36.9489 129.181 36.9489C129.939 36.9489 130.6 37.1075 131.163 37.4247C131.726 37.742 132.162 38.206 132.47 38.8168C132.782 39.4276 132.939 40.1733 132.939 41.054V48H130.368V41.4517C130.368 40.7178 130.178 40.1473 129.799 39.7401C129.425 39.3281 128.9 39.1222 128.223 39.1222C127.768 39.1222 127.361 39.2216 127.001 39.4205C126.646 39.6146 126.367 39.8963 126.163 40.2656C125.964 40.6349 125.865 41.0824 125.865 41.608ZM138.699 48.2202C138.007 48.2202 137.385 48.0971 136.831 47.8509C136.281 47.5999 135.846 47.2306 135.524 46.7429C135.207 46.2552 135.048 45.6539 135.048 44.9389C135.048 44.3234 135.162 43.8144 135.389 43.4119C135.616 43.0095 135.926 42.6875 136.319 42.446C136.712 42.2045 137.155 42.0223 137.647 41.8991C138.145 41.7713 138.658 41.679 139.189 41.6222C139.828 41.5559 140.346 41.4967 140.744 41.4446C141.142 41.3878 141.431 41.3026 141.61 41.1889C141.795 41.0705 141.887 40.8883 141.887 40.642V40.5994C141.887 40.0644 141.729 39.6501 141.412 39.3565C141.094 39.063 140.637 38.9162 140.041 38.9162C139.411 38.9162 138.912 39.0535 138.542 39.3281C138.178 39.6027 137.931 39.9271 137.804 40.3011L135.403 39.9602C135.592 39.2973 135.905 38.7434 136.341 38.2983C136.776 37.8485 137.309 37.5123 137.939 37.2898C138.568 37.0625 139.264 36.9489 140.027 36.9489C140.552 36.9489 141.075 37.0104 141.596 37.1335C142.117 37.2566 142.593 37.4602 143.024 37.7443C143.455 38.0237 143.8 38.4048 144.061 38.8878C144.326 39.3707 144.458 39.9744 144.458 40.6989V48H141.987V46.5014H141.902C141.745 46.8045 141.525 47.0885 141.241 47.3537C140.962 47.6141 140.609 47.8248 140.183 47.9858C139.761 48.142 139.267 48.2202 138.699 48.2202ZM139.366 46.331C139.882 46.331 140.33 46.2292 140.708 46.0256C141.087 45.8172 141.378 45.5426 141.582 45.2017C141.79 44.8608 141.895 44.4891 141.895 44.0866V42.8011C141.814 42.8674 141.677 42.929 141.483 42.9858C141.293 43.0426 141.08 43.0923 140.843 43.1349C140.607 43.1776 140.372 43.2154 140.14 43.2486C139.908 43.2817 139.707 43.3101 139.537 43.3338C139.153 43.3859 138.81 43.4711 138.507 43.5895C138.204 43.7079 137.965 43.8736 137.789 44.0866C137.614 44.295 137.527 44.5649 137.527 44.8963C137.527 45.3698 137.699 45.7273 138.045 45.9688C138.391 46.2102 138.831 46.331 139.366 46.331ZM147.044 48V37.0909H149.537V38.9091H149.65C149.849 38.2794 150.19 37.794 150.673 37.4531C151.161 37.1075 151.717 36.9347 152.342 36.9347C152.484 36.9347 152.643 36.9418 152.818 36.956C152.998 36.9654 153.147 36.982 153.265 37.0057V39.3707C153.156 39.3329 152.984 39.2997 152.747 39.2713C152.515 39.2382 152.29 39.2216 152.072 39.2216C151.603 39.2216 151.182 39.3234 150.808 39.527C150.439 39.7259 150.147 40.0028 149.934 40.358C149.721 40.7131 149.615 41.1226 149.615 41.5866V48H147.044ZM164.693 48.2131C163.627 48.2131 162.704 47.9787 161.923 47.5099C161.142 47.0412 160.536 46.3854 160.105 45.5426C159.679 44.6998 159.466 43.715 159.466 42.5881C159.466 41.4612 159.679 40.474 160.105 39.6264C160.536 38.7789 161.142 38.1207 161.923 37.652C162.704 37.1832 163.627 36.9489 164.693 36.9489C165.758 36.9489 166.681 37.1832 167.463 37.652C168.244 38.1207 168.848 38.7789 169.274 39.6264C169.705 40.474 169.92 41.4612 169.92 42.5881C169.92 43.715 169.705 44.6998 169.274 45.5426C168.848 46.3854 168.244 47.0412 167.463 47.5099C166.681 47.9787 165.758 48.2131 164.693 48.2131ZM164.707 46.1534C165.285 46.1534 165.768 45.9948 166.156 45.6776C166.544 45.3556 166.833 44.9247 167.022 44.3849C167.217 43.8452 167.314 43.2438 167.314 42.581C167.314 41.9134 167.217 41.3097 167.022 40.7699C166.833 40.2254 166.544 39.7921 166.156 39.4702C165.768 39.1482 165.285 38.9872 164.707 38.9872C164.115 38.9872 163.623 39.1482 163.23 39.4702C162.842 39.7921 162.55 40.2254 162.356 40.7699C162.167 41.3097 162.072 41.9134 162.072 42.581C162.072 43.2438 162.167 43.8452 162.356 44.3849C162.55 44.9247 162.842 45.3556 163.23 45.6776C163.623 45.9948 164.115 46.1534 164.707 46.1534ZM179.045 48H176.232L181.353 33.4545H184.606L189.734 48H186.921L183.036 36.4375H182.923L179.045 48ZM179.137 42.2969H186.808V44.4134H179.137V42.2969ZM194.107 33.4545V48H191.536V33.4545H194.107ZM203.704 43.4119V37.0909H206.275V48H203.782V46.0611H203.668C203.422 46.6719 203.017 47.1714 202.454 47.5597C201.895 47.9479 201.206 48.142 200.387 48.142C199.672 48.142 199.04 47.9834 198.491 47.6662C197.946 47.3442 197.52 46.8778 197.212 46.267C196.905 45.6515 196.751 44.9081 196.751 44.0369V37.0909H199.322V43.6392C199.322 44.3305 199.511 44.8797 199.89 45.2869C200.269 45.6941 200.766 45.8977 201.381 45.8977C201.76 45.8977 202.127 45.8054 202.482 45.6207C202.837 45.4361 203.129 45.1615 203.356 44.7969C203.588 44.4276 203.704 43.9659 203.704 43.4119ZM211.49 41.608V48H208.919V37.0909H211.376V38.9446H211.504C211.755 38.3338 212.155 37.8485 212.704 37.4886C213.258 37.1288 213.942 36.9489 214.757 36.9489C215.51 36.9489 216.165 37.1098 216.724 37.4318C217.288 37.7538 217.723 38.2202 218.031 38.831C218.343 39.4418 218.497 40.1828 218.493 41.054V48H215.922V41.4517C215.922 40.7225 215.732 40.152 215.353 39.7401C214.979 39.3281 214.461 39.1222 213.798 39.1222C213.348 39.1222 212.948 39.2216 212.598 39.4205C212.252 39.6146 211.98 39.8963 211.781 40.2656C211.587 40.6349 211.49 41.0824 211.49 41.608ZM225.865 48.2131C224.799 48.2131 223.876 47.9787 223.095 47.5099C222.314 47.0412 221.708 46.3854 221.277 45.5426C220.85 44.6998 220.637 43.715 220.637 42.5881C220.637 41.4612 220.85 40.474 221.277 39.6264C221.708 38.7789 222.314 38.1207 223.095 37.652C223.876 37.1832 224.799 36.9489 225.865 36.9489C226.93 36.9489 227.853 37.1832 228.635 37.652C229.416 38.1207 230.02 38.7789 230.446 39.6264C230.877 40.474 231.092 41.4612 231.092 42.5881C231.092 43.715 230.877 44.6998 230.446 45.5426C230.02 46.3854 229.416 47.0412 228.635 47.5099C227.853 47.9787 226.93 48.2131 225.865 48.2131ZM225.879 46.1534C226.457 46.1534 226.94 45.9948 227.328 45.6776C227.716 45.3556 228.005 44.9247 228.194 44.3849C228.388 43.8452 228.485 43.2438 228.485 42.581C228.485 41.9134 228.388 41.3097 228.194 40.7699C228.005 40.2254 227.716 39.7921 227.328 39.4702C226.94 39.1482 226.457 38.9872 225.879 38.9872C225.287 38.9872 224.795 39.1482 224.402 39.4702C224.013 39.7921 223.722 40.2254 223.528 40.7699C223.339 41.3097 223.244 41.9134 223.244 42.581C223.244 43.2438 223.339 43.8452 223.528 44.3849C223.722 44.9247 224.013 45.3556 224.402 45.6776C224.795 45.9948 225.287 46.1534 225.879 46.1534Z" fill="#0E121B"/>
<path d="M58.6506 117H57.358L61.0966 106.818H62.3693L66.108 117H64.8153L61.7727 108.429H61.6932L58.6506 117ZM59.1278 113.023H64.3381V114.116H59.1278V113.023ZM70.6371 117.159C69.9212 117.159 69.3047 116.99 68.7876 116.652C68.2706 116.314 67.8729 115.848 67.5945 115.255C67.3161 114.662 67.1768 113.984 67.1768 113.222C67.1768 112.446 67.3194 111.762 67.6044 111.168C67.8928 110.572 68.2938 110.106 68.8075 109.771C69.3246 109.433 69.9278 109.264 70.6172 109.264C71.1541 109.264 71.638 109.364 72.0689 109.562C72.4998 109.761 72.8527 110.04 73.1278 110.398C73.4029 110.756 73.5736 111.173 73.6399 111.651H72.4666C72.3771 111.303 72.1783 110.994 71.87 110.726C71.5651 110.454 71.1541 110.318 70.6371 110.318C70.1797 110.318 69.7786 110.437 69.4339 110.676C69.0926 110.911 68.8258 111.245 68.6335 111.675C68.4446 112.103 68.3501 112.605 68.3501 113.182C68.3501 113.772 68.4429 114.286 68.6286 114.723C68.8175 115.161 69.0826 115.5 69.424 115.742C69.7687 115.984 70.1731 116.105 70.6371 116.105C70.942 116.105 71.2188 116.052 71.4673 115.946C71.7159 115.84 71.9264 115.688 72.0987 115.489C72.2711 115.29 72.3937 115.051 72.4666 114.773H73.6399C73.5736 115.223 73.4096 115.629 73.1477 115.991C72.8892 116.349 72.5462 116.634 72.1186 116.846C71.6944 117.055 71.2005 117.159 70.6371 117.159ZM78.4574 117.159C77.768 117.159 77.1631 116.995 76.6428 116.667C76.1257 116.339 75.7214 115.88 75.4297 115.29C75.1413 114.7 74.9972 114.01 74.9972 113.222C74.9972 112.426 75.1413 111.732 75.4297 111.138C75.7214 110.545 76.1257 110.085 76.6428 109.756C77.1631 109.428 77.768 109.264 78.4574 109.264C79.1468 109.264 79.75 109.428 80.267 109.756C80.7874 110.085 81.1918 110.545 81.4801 111.138C81.7718 111.732 81.9176 112.426 81.9176 113.222C81.9176 114.01 81.7718 114.7 81.4801 115.29C81.1918 115.88 80.7874 116.339 80.267 116.667C79.75 116.995 79.1468 117.159 78.4574 117.159ZM78.4574 116.105C78.9811 116.105 79.4119 115.971 79.75 115.702C80.0881 115.434 80.3383 115.081 80.5007 114.643C80.6631 114.206 80.7443 113.732 80.7443 113.222C80.7443 112.711 80.6631 112.236 80.5007 111.795C80.3383 111.354 80.0881 110.998 79.75 110.726C79.4119 110.454 78.9811 110.318 78.4574 110.318C77.9337 110.318 77.5028 110.454 77.1648 110.726C76.8267 110.998 76.5765 111.354 76.4141 111.795C76.2517 112.236 76.1705 112.711 76.1705 113.222C76.1705 113.732 76.2517 114.206 76.4141 114.643C76.5765 115.081 76.8267 115.434 77.1648 115.702C77.5028 115.971 77.9337 116.105 78.4574 116.105ZM83.7086 117V109.364H84.8422V110.557H84.9416C85.1007 110.149 85.3575 109.833 85.7122 109.607C86.0668 109.379 86.4927 109.264 86.9899 109.264C87.4937 109.264 87.9129 109.379 88.2477 109.607C88.5858 109.833 88.8493 110.149 89.0382 110.557H89.1177C89.3133 110.162 89.6066 109.849 89.9977 109.617C90.3888 109.382 90.8578 109.264 91.4047 109.264C92.0874 109.264 92.6459 109.478 93.0801 109.906C93.5143 110.33 93.7314 110.991 93.7314 111.889V117H92.5581V111.889C92.5581 111.326 92.4039 110.923 92.0957 110.681C91.7875 110.439 91.4245 110.318 91.0069 110.318C90.47 110.318 90.054 110.481 89.7591 110.805C89.4641 111.127 89.3166 111.535 89.3166 112.028V117H88.1234V111.77C88.1234 111.336 87.9825 110.986 87.7008 110.721C87.4191 110.452 87.0562 110.318 86.612 110.318C86.3071 110.318 86.0221 110.399 85.7569 110.562C85.4951 110.724 85.283 110.95 85.1206 111.238C84.9615 111.523 84.8819 111.853 84.8819 112.227V117H83.7086ZM95.8766 119.864V109.364H97.0101V110.577H97.1493C97.2355 110.444 97.3548 110.275 97.5073 110.07C97.6631 109.861 97.8851 109.675 98.1735 109.513C98.4651 109.347 98.8596 109.264 99.3567 109.264C99.9997 109.264 100.566 109.425 101.057 109.746C101.548 110.068 101.93 110.524 102.205 111.114C102.481 111.704 102.618 112.4 102.618 113.202C102.618 114.01 102.481 114.711 102.205 115.305C101.93 115.895 101.549 116.352 101.062 116.677C100.575 116.998 100.013 117.159 99.3766 117.159C98.8861 117.159 98.4933 117.078 98.1983 116.915C97.9033 116.75 97.6763 116.562 97.5172 116.354C97.3581 116.142 97.2355 115.966 97.1493 115.827H97.0499V119.864H95.8766ZM97.03 113.182C97.03 113.759 97.1145 114.267 97.2836 114.708C97.4526 115.146 97.6995 115.489 98.0243 115.737C98.3491 115.982 98.7469 116.105 99.2175 116.105C99.708 116.105 100.117 115.976 100.445 115.717C100.777 115.455 101.026 115.104 101.191 114.663C101.36 114.219 101.445 113.725 101.445 113.182C101.445 112.645 101.362 112.161 101.196 111.73C101.034 111.296 100.787 110.953 100.455 110.701C100.127 110.446 99.7147 110.318 99.2175 110.318C98.7402 110.318 98.3392 110.439 98.0144 110.681C97.6896 110.92 97.4443 111.254 97.2786 111.685C97.1129 112.113 97.03 112.612 97.03 113.182ZM106.655 117.179C106.171 117.179 105.732 117.088 105.338 116.906C104.943 116.72 104.63 116.453 104.398 116.105C104.166 115.754 104.05 115.33 104.05 114.832C104.05 114.395 104.136 114.04 104.308 113.768C104.481 113.493 104.711 113.278 104.999 113.122C105.288 112.966 105.606 112.85 105.954 112.774C106.305 112.695 106.658 112.632 107.013 112.585C107.477 112.526 107.853 112.481 108.142 112.451C108.433 112.418 108.645 112.363 108.778 112.287C108.914 112.211 108.982 112.078 108.982 111.889V111.849C108.982 111.359 108.847 110.978 108.579 110.706C108.314 110.434 107.911 110.298 107.371 110.298C106.811 110.298 106.372 110.421 106.053 110.666C105.735 110.911 105.512 111.173 105.382 111.452L104.269 111.054C104.468 110.59 104.733 110.229 105.064 109.97C105.399 109.708 105.763 109.526 106.158 109.423C106.556 109.317 106.947 109.264 107.331 109.264C107.576 109.264 107.858 109.294 108.176 109.354C108.498 109.41 108.808 109.528 109.106 109.707C109.408 109.886 109.658 110.156 109.857 110.517C110.056 110.878 110.155 111.362 110.155 111.969V117H108.982V115.966H108.922C108.843 116.132 108.71 116.309 108.524 116.498C108.339 116.687 108.092 116.848 107.784 116.98C107.475 117.113 107.099 117.179 106.655 117.179ZM106.834 116.125C107.298 116.125 107.689 116.034 108.007 115.852C108.329 115.669 108.571 115.434 108.733 115.146C108.899 114.857 108.982 114.554 108.982 114.236V113.162C108.932 113.222 108.823 113.276 108.654 113.326C108.488 113.372 108.296 113.414 108.077 113.45C107.861 113.483 107.651 113.513 107.445 113.54C107.243 113.563 107.079 113.583 106.953 113.599C106.648 113.639 106.363 113.704 106.098 113.793C105.836 113.879 105.624 114.01 105.462 114.186C105.303 114.358 105.223 114.594 105.223 114.892C105.223 115.3 105.374 115.608 105.676 115.817C105.981 116.022 106.367 116.125 106.834 116.125ZM113.47 112.406V117H112.297V109.364H113.43V110.557H113.529C113.708 110.169 113.98 109.857 114.345 109.622C114.709 109.384 115.18 109.264 115.757 109.264C116.274 109.264 116.726 109.37 117.114 109.582C117.502 109.791 117.803 110.109 118.019 110.537C118.234 110.961 118.342 111.498 118.342 112.148V117H117.169V112.227C117.169 111.627 117.013 111.16 116.701 110.825C116.39 110.487 115.962 110.318 115.419 110.318C115.044 110.318 114.709 110.399 114.414 110.562C114.123 110.724 113.892 110.961 113.723 111.273C113.554 111.584 113.47 111.962 113.47 112.406ZM121.659 112.406V117H120.486V106.818H121.659V110.557H121.759C121.938 110.162 122.206 109.849 122.564 109.617C122.925 109.382 123.406 109.264 124.006 109.264C124.526 109.264 124.982 109.369 125.373 109.577C125.764 109.783 126.067 110.099 126.283 110.527C126.502 110.951 126.611 111.491 126.611 112.148V117H125.438V112.227C125.438 111.621 125.28 111.152 124.965 110.82C124.654 110.486 124.221 110.318 123.668 110.318C123.283 110.318 122.939 110.399 122.634 110.562C122.332 110.724 122.093 110.961 121.918 111.273C121.745 111.584 121.659 111.962 121.659 112.406ZM131.005 117.179C130.521 117.179 130.082 117.088 129.687 116.906C129.293 116.72 128.98 116.453 128.748 116.105C128.516 115.754 128.4 115.33 128.4 114.832C128.4 114.395 128.486 114.04 128.658 113.768C128.83 113.493 129.061 113.278 129.349 113.122C129.637 112.966 129.956 112.85 130.304 112.774C130.655 112.695 131.008 112.632 131.363 112.585C131.827 112.526 132.203 112.481 132.491 112.451C132.783 112.418 132.995 112.363 133.127 112.287C133.263 112.211 133.331 112.078 133.331 111.889V111.849C133.331 111.359 133.197 110.978 132.929 110.706C132.663 110.434 132.261 110.298 131.721 110.298C131.16 110.298 130.721 110.421 130.403 110.666C130.085 110.911 129.861 111.173 129.732 111.452L128.618 111.054C128.817 110.59 129.082 110.229 129.414 109.97C129.748 109.708 130.113 109.526 130.507 109.423C130.905 109.317 131.296 109.264 131.681 109.264C131.926 109.264 132.208 109.294 132.526 109.354C132.847 109.41 133.157 109.528 133.456 109.707C133.757 109.886 134.007 110.156 134.206 110.517C134.405 110.878 134.505 111.362 134.505 111.969V117H133.331V115.966H133.272C133.192 116.132 133.06 116.309 132.874 116.498C132.688 116.687 132.441 116.848 132.133 116.98C131.825 117.113 131.449 117.179 131.005 117.179ZM131.184 116.125C131.648 116.125 132.039 116.034 132.357 115.852C132.678 115.669 132.92 115.434 133.083 115.146C133.248 114.857 133.331 114.554 133.331 114.236V113.162C133.282 113.222 133.172 113.276 133.003 113.326C132.837 113.372 132.645 113.414 132.426 113.45C132.211 113.483 132.001 113.513 131.795 113.54C131.593 113.563 131.429 113.583 131.303 113.599C130.998 113.639 130.713 113.704 130.448 113.793C130.186 113.879 129.974 114.01 129.811 114.186C129.652 114.358 129.573 114.594 129.573 114.892C129.573 115.3 129.724 115.608 130.025 115.817C130.33 116.022 130.716 116.125 131.184 116.125ZM136.646 117V109.364H137.78V110.557H137.879C138.038 110.149 138.295 109.833 138.65 109.607C139.004 109.379 139.43 109.264 139.927 109.264C140.431 109.264 140.85 109.379 141.185 109.607C141.523 109.833 141.787 110.149 141.976 110.557H142.055C142.251 110.162 142.544 109.849 142.935 109.617C143.326 109.382 143.795 109.264 144.342 109.264C145.025 109.264 145.583 109.478 146.018 109.906C146.452 110.33 146.669 110.991 146.669 111.889V117H145.496V111.889C145.496 111.326 145.341 110.923 145.033 110.681C144.725 110.439 144.362 110.318 143.944 110.318C143.407 110.318 142.992 110.481 142.697 110.805C142.402 111.127 142.254 111.535 142.254 112.028V117H141.061V111.77C141.061 111.336 140.92 110.986 140.638 110.721C140.357 110.452 139.994 110.318 139.55 110.318C139.245 110.318 138.96 110.399 138.694 110.562C138.433 110.724 138.22 110.95 138.058 111.238C137.899 111.523 137.819 111.853 137.819 112.227V117H136.646ZM152.016 117.159C151.28 117.159 150.645 116.997 150.112 116.672C149.581 116.344 149.172 115.886 148.884 115.3C148.599 114.71 148.456 114.024 148.456 113.241C148.456 112.459 148.599 111.77 148.884 111.173C149.172 110.573 149.573 110.106 150.087 109.771C150.604 109.433 151.207 109.264 151.896 109.264C152.294 109.264 152.687 109.33 153.075 109.463C153.463 109.596 153.816 109.811 154.134 110.109C154.452 110.404 154.705 110.795 154.894 111.283C155.083 111.77 155.178 112.37 155.178 113.082V113.58H149.291V112.565H153.985C153.985 112.134 153.898 111.75 153.726 111.412C153.557 111.074 153.315 110.807 153 110.612C152.689 110.416 152.321 110.318 151.896 110.318C151.429 110.318 151.025 110.434 150.683 110.666C150.345 110.895 150.085 111.193 149.903 111.561C149.721 111.929 149.629 112.323 149.629 112.744V113.42C149.629 113.997 149.729 114.486 149.928 114.887C150.13 115.285 150.41 115.588 150.768 115.797C151.126 116.002 151.542 116.105 152.016 116.105C152.324 116.105 152.602 116.062 152.851 115.976C153.103 115.886 153.32 115.754 153.502 115.578C153.685 115.399 153.825 115.177 153.925 114.912L155.058 115.23C154.939 115.615 154.739 115.953 154.457 116.244C154.175 116.533 153.827 116.758 153.413 116.92C152.999 117.08 152.533 117.159 152.016 117.159ZM158.136 112.406V117H156.963V109.364H158.096V110.557H158.195C158.374 110.169 158.646 109.857 159.011 109.622C159.375 109.384 159.846 109.264 160.423 109.264C160.94 109.264 161.392 109.37 161.78 109.582C162.168 109.791 162.469 110.109 162.685 110.537C162.9 110.961 163.008 111.498 163.008 112.148V117H161.835V112.227C161.835 111.627 161.679 111.16 161.367 110.825C161.056 110.487 160.628 110.318 160.085 110.318C159.71 110.318 159.375 110.399 159.08 110.562C158.789 110.724 158.558 110.961 158.389 111.273C158.22 111.584 158.136 111.962 158.136 112.406ZM168.473 109.364V110.358H164.516V109.364H168.473ZM165.669 107.534H166.842V114.812C166.842 115.144 166.89 115.393 166.987 115.558C167.086 115.721 167.212 115.83 167.364 115.886C167.52 115.939 167.684 115.966 167.857 115.966C167.986 115.966 168.092 115.959 168.175 115.946C168.258 115.929 168.324 115.916 168.374 115.906L168.612 116.96C168.533 116.99 168.422 117.02 168.279 117.05C168.137 117.083 167.956 117.099 167.737 117.099C167.406 117.099 167.081 117.028 166.763 116.886C166.448 116.743 166.186 116.526 165.977 116.234C165.772 115.943 165.669 115.575 165.669 115.131V107.534ZM173.258 117.159C172.569 117.159 171.964 116.995 171.444 116.667C170.926 116.339 170.522 115.88 170.23 115.29C169.942 114.7 169.798 114.01 169.798 113.222C169.798 112.426 169.942 111.732 170.23 111.138C170.522 110.545 170.926 110.085 171.444 109.756C171.964 109.428 172.569 109.264 173.258 109.264C173.948 109.264 174.551 109.428 175.068 109.756C175.588 110.085 175.993 110.545 176.281 111.138C176.573 111.732 176.718 112.426 176.718 113.222C176.718 114.01 176.573 114.7 176.281 115.29C175.993 115.88 175.588 116.339 175.068 116.667C174.551 116.995 173.948 117.159 173.258 117.159ZM173.258 116.105C173.782 116.105 174.213 115.971 174.551 115.702C174.889 115.434 175.139 115.081 175.301 114.643C175.464 114.206 175.545 113.732 175.545 113.222C175.545 112.711 175.464 112.236 175.301 111.795C175.139 111.354 174.889 110.998 174.551 110.726C174.213 110.454 173.782 110.318 173.258 110.318C172.734 110.318 172.304 110.454 171.966 110.726C171.627 110.998 171.377 111.354 171.215 111.795C171.052 112.236 170.971 112.711 170.971 113.222C170.971 113.732 171.052 114.206 171.215 114.643C171.377 115.081 171.627 115.434 171.966 115.702C172.304 115.971 172.734 116.105 173.258 116.105Z" fill="#0E121B"/>
<path d="M44.7528 158V157.361L47.1534 154.733C47.4351 154.425 47.6671 154.158 47.8494 153.93C48.0317 153.701 48.1667 153.485 48.2543 153.284C48.3442 153.08 48.3892 152.867 48.3892 152.645C48.3892 152.389 48.3277 152.168 48.2045 151.981C48.0838 151.794 47.9181 151.649 47.7074 151.548C47.4967 151.446 47.2599 151.395 46.9972 151.395C46.7178 151.395 46.474 151.453 46.2656 151.569C46.0597 151.683 45.8999 151.842 45.7862 152.048C45.675 152.254 45.6193 152.496 45.6193 152.773H44.7812C44.7812 152.347 44.8795 151.973 45.076 151.651C45.2725 151.329 45.54 151.078 45.8786 150.898C46.2195 150.718 46.6018 150.628 47.0256 150.628C47.4517 150.628 47.8293 150.718 48.1584 150.898C48.4875 151.078 48.7455 151.32 48.9325 151.626C49.1196 151.931 49.2131 152.271 49.2131 152.645C49.2131 152.912 49.1645 153.174 49.0675 153.43C48.9728 153.683 48.8071 153.966 48.5703 154.278C48.3359 154.589 48.0104 154.967 47.5938 155.415L45.9602 157.162V157.219H49.3409V158H44.7528ZM53.1797 158.099C52.6446 158.099 52.1889 157.954 51.8125 157.663C51.4361 157.369 51.1484 156.944 50.9496 156.388C50.7507 155.829 50.6513 155.154 50.6513 154.364C50.6513 153.578 50.7507 152.906 50.9496 152.35C51.1508 151.791 51.4396 151.365 51.8161 151.072C52.1948 150.776 52.6494 150.628 53.1797 150.628C53.71 150.628 54.1634 150.776 54.5398 151.072C54.9186 151.365 55.2074 151.791 55.4062 152.35C55.6075 152.906 55.7081 153.578 55.7081 154.364C55.7081 155.154 55.6087 155.829 55.4098 156.388C55.2109 156.944 54.9233 157.369 54.5469 157.663C54.1705 157.954 53.7147 158.099 53.1797 158.099ZM53.1797 157.318C53.71 157.318 54.1219 157.062 54.4155 156.551C54.709 156.04 54.8558 155.311 54.8558 154.364C54.8558 153.734 54.7884 153.198 54.6534 152.755C54.5208 152.312 54.3291 151.975 54.0781 151.743C53.8295 151.511 53.5301 151.395 53.1797 151.395C52.6541 151.395 52.2434 151.654 51.9474 152.173C51.6515 152.689 51.5036 153.419 51.5036 154.364C51.5036 154.993 51.5698 155.528 51.7024 155.969C51.835 156.409 52.0256 156.744 52.2741 156.974C52.5251 157.203 52.8269 157.318 53.1797 157.318ZM57.0575 158V157.361L59.4581 154.733C59.7398 154.425 59.9718 154.158 60.1541 153.93C60.3364 153.701 60.4714 153.485 60.5589 153.284C60.6489 153.08 60.6939 152.867 60.6939 152.645C60.6939 152.389 60.6323 152.168 60.5092 151.981C60.3885 151.794 60.2228 151.649 60.0121 151.548C59.8014 151.446 59.5646 151.395 59.3018 151.395C59.0225 151.395 58.7786 151.453 58.5703 151.569C58.3643 151.683 58.2045 151.842 58.0909 152.048C57.9796 152.254 57.924 152.496 57.924 152.773H57.0859C57.0859 152.347 57.1842 151.973 57.3807 151.651C57.5772 151.329 57.8447 151.078 58.1832 150.898C58.5241 150.718 58.9065 150.628 59.3303 150.628C59.7564 150.628 60.134 150.718 60.4631 150.898C60.7921 151.078 61.0502 151.32 61.2372 151.626C61.4242 151.931 61.5178 152.271 61.5178 152.645C61.5178 152.912 61.4692 153.174 61.3722 153.43C61.2775 153.683 61.1117 153.966 60.875 154.278C60.6406 154.589 60.3151 154.967 59.8984 155.415L58.2649 157.162V157.219H61.6456V158H57.0575ZM62.7855 156.509V155.784L65.9815 150.727H66.5071V151.849H66.152L63.7372 155.67V155.727H68.0412V156.509H62.7855ZM66.2088 158V156.288V155.951V150.727H67.0469V158H66.2088Z" fill="#2B303B"/>
<path d="M140.753 158V157.361L143.153 154.733C143.435 154.425 143.667 154.158 143.849 153.93C144.032 153.701 144.167 153.485 144.254 153.284C144.344 153.08 144.389 152.867 144.389 152.645C144.389 152.389 144.328 152.168 144.205 151.981C144.084 151.794 143.918 151.649 143.707 151.548C143.497 151.446 143.26 151.395 142.997 151.395C142.718 151.395 142.474 151.453 142.266 151.569C142.06 151.683 141.9 151.842 141.786 152.048C141.675 152.254 141.619 152.496 141.619 152.773H140.781C140.781 152.347 140.879 151.973 141.076 151.651C141.272 151.329 141.54 151.078 141.879 150.898C142.219 150.718 142.602 150.628 143.026 150.628C143.452 150.628 143.829 150.718 144.158 150.898C144.487 151.078 144.746 151.32 144.933 151.626C145.12 151.931 145.213 152.271 145.213 152.645C145.213 152.912 145.165 153.174 145.067 153.43C144.973 153.683 144.807 153.966 144.57 154.278C144.336 154.589 144.01 154.967 143.594 155.415L141.96 157.162V157.219H145.341V158H140.753ZM149.18 158.099C148.645 158.099 148.189 157.954 147.812 157.663C147.436 157.369 147.148 156.944 146.95 156.388C146.751 155.829 146.651 155.154 146.651 154.364C146.651 153.578 146.751 152.906 146.95 152.35C147.151 151.791 147.44 151.365 147.816 151.072C148.195 150.776 148.649 150.628 149.18 150.628C149.71 150.628 150.163 150.776 150.54 151.072C150.919 151.365 151.207 151.791 151.406 152.35C151.607 152.906 151.708 153.578 151.708 154.364C151.708 155.154 151.609 155.829 151.41 156.388C151.211 156.944 150.923 157.369 150.547 157.663C150.17 157.954 149.715 158.099 149.18 158.099ZM149.18 157.318C149.71 157.318 150.122 157.062 150.415 156.551C150.709 156.04 150.856 155.311 150.856 154.364C150.856 153.734 150.788 153.198 150.653 152.755C150.521 152.312 150.329 151.975 150.078 151.743C149.83 151.511 149.53 151.395 149.18 151.395C148.654 151.395 148.243 151.654 147.947 152.173C147.652 152.689 147.504 153.419 147.504 154.364C147.504 154.993 147.57 155.528 147.702 155.969C147.835 156.409 148.026 156.744 148.274 156.974C148.525 157.203 148.827 157.318 149.18 157.318ZM153.058 158V157.361L155.458 154.733C155.74 154.425 155.972 154.158 156.154 153.93C156.336 153.701 156.471 153.485 156.559 153.284C156.649 153.08 156.694 152.867 156.694 152.645C156.694 152.389 156.632 152.168 156.509 151.981C156.388 151.794 156.223 151.649 156.012 151.548C155.801 151.446 155.565 151.395 155.302 151.395C155.022 151.395 154.779 151.453 154.57 151.569C154.364 151.683 154.205 151.842 154.091 152.048C153.98 152.254 153.924 152.496 153.924 152.773H153.086C153.086 152.347 153.184 151.973 153.381 151.651C153.577 151.329 153.845 151.078 154.183 150.898C154.524 150.718 154.906 150.628 155.33 150.628C155.756 150.628 156.134 150.718 156.463 150.898C156.792 151.078 157.05 151.32 157.237 151.626C157.424 151.931 157.518 152.271 157.518 152.645C157.518 152.912 157.469 153.174 157.372 153.43C157.277 153.683 157.112 153.966 156.875 154.278C156.641 154.589 156.315 154.967 155.898 155.415L154.265 157.162V157.219H157.646V158H153.058ZM161.57 158.099C161.101 158.099 160.683 158.019 160.316 157.858C159.951 157.697 159.661 157.473 159.446 157.187C159.233 156.898 159.117 156.563 159.098 156.182H159.993C160.012 156.416 160.092 156.619 160.234 156.789C160.376 156.957 160.562 157.087 160.792 157.18C161.022 157.272 161.276 157.318 161.555 157.318C161.868 157.318 162.145 157.264 162.386 157.155C162.628 157.046 162.817 156.894 162.955 156.7C163.092 156.506 163.161 156.281 163.161 156.026C163.161 155.758 163.094 155.522 162.962 155.319C162.829 155.113 162.635 154.952 162.379 154.836C162.124 154.72 161.811 154.662 161.442 154.662H160.859V153.881H161.442C161.731 153.881 161.984 153.829 162.202 153.724C162.422 153.62 162.594 153.473 162.717 153.284C162.842 153.095 162.905 152.872 162.905 152.616C162.905 152.37 162.85 152.156 162.741 151.974C162.633 151.791 162.479 151.649 162.28 151.548C162.083 151.446 161.851 151.395 161.584 151.395C161.333 151.395 161.096 151.441 160.874 151.533C160.653 151.623 160.473 151.755 160.334 151.928C160.194 152.098 160.118 152.304 160.107 152.545H159.254C159.268 152.164 159.383 151.83 159.599 151.544C159.814 151.255 160.096 151.03 160.444 150.869C160.794 150.708 161.179 150.628 161.598 150.628C162.048 150.628 162.434 150.719 162.756 150.901C163.078 151.081 163.325 151.319 163.498 151.615C163.671 151.911 163.757 152.231 163.757 152.574C163.757 152.983 163.649 153.333 163.434 153.621C163.221 153.91 162.931 154.11 162.564 154.222V154.278C163.023 154.354 163.382 154.549 163.64 154.864C163.898 155.177 164.027 155.564 164.027 156.026C164.027 156.421 163.919 156.776 163.704 157.091C163.491 157.403 163.2 157.65 162.83 157.83C162.461 158.009 162.041 158.099 161.57 158.099Z" fill="#2B303B"/>
</g>
</g>
</g>
<defs>
<clipPath id="clip0_921_106">
<rect width="360" height="193" rx="16" fill="white"/>
</clipPath>
<clipPath id="clip1_921_106">
<rect width="360" height="193" fill="white"/>
</clipPath>
<clipPath id="clip2_921_106">
<rect width="360" height="193" fill="white"/>
</clipPath>
</defs>
</svg>
