<svg width="24" height="24" viewBox="0 0 24 24" fill="none" xmlns="http://www.w3.org/2000/svg">
<g clip-path="url(#clip0_916_483)">
<g clip-path="url(#clip1_916_483)">
<path opacity="0.2" d="M17.7602 4.08001V19.92C17.7602 20.3019 17.6086 20.6682 17.3385 20.9383C17.0685 21.2083 16.7021 21.36 16.3202 21.36H7.68023C7.29833 21.36 6.93205 21.2083 6.662 20.9383C6.39195 20.6682 6.24023 20.3019 6.24023 19.92V4.08001C6.24023 3.69811 6.39195 3.33183 6.662 3.06178C6.93205 2.79173 7.29833 2.64001 7.68023 2.64001H16.3202C16.7021 2.64001 17.0685 2.79173 17.3385 3.06178C17.6086 3.33183 17.7602 3.69811 17.7602 4.08001Z" fill="#5D87FF"/>
<path d="M16.32 1.91992H7.68002C7.10715 1.91992 6.55775 2.14749 6.15267 2.55257C5.74759 2.95765 5.52002 3.50705 5.52002 4.07992V19.9199C5.52002 20.4928 5.74759 21.0422 6.15267 21.4473C6.55775 21.8523 7.10715 22.0799 7.68002 22.0799H16.32C16.8929 22.0799 17.4423 21.8523 17.8474 21.4473C18.2524 21.0422 18.48 20.4928 18.48 19.9199V4.07992C18.48 3.50705 18.2524 2.95765 17.8474 2.55257C17.4423 2.14749 16.8929 1.91992 16.32 1.91992ZM17.04 19.9199C17.04 20.1109 16.9642 20.294 16.8291 20.429C16.6941 20.5641 16.511 20.6399 16.32 20.6399H7.68002C7.48907 20.6399 7.30593 20.5641 7.1709 20.429C7.03588 20.294 6.96002 20.1109 6.96002 19.9199V4.07992C6.96002 3.88897 7.03588 3.70583 7.1709 3.57081C7.30593 3.43578 7.48907 3.35992 7.68002 3.35992H16.32C16.511 3.35992 16.6941 3.43578 16.8291 3.57081C16.9642 3.70583 17.04 3.88897 17.04 4.07992V19.9199ZM13.08 5.87992C13.08 6.09352 13.0167 6.30233 12.898 6.47994C12.7793 6.65754 12.6107 6.79597 12.4133 6.87771C12.216 6.95945 11.9989 6.98084 11.7893 6.93917C11.5798 6.8975 11.3873 6.79464 11.2363 6.6436C11.0853 6.49256 10.9824 6.30012 10.9408 6.09062C10.8991 5.88112 10.9205 5.66397 11.0022 5.46662C11.084 5.26928 11.2224 5.1006 11.4 4.98194C11.5776 4.86326 11.7864 4.79992 12 4.79992C12.2865 4.79992 12.5611 4.91371 12.7637 5.11624C12.9663 5.31878 13.08 5.59349 13.08 5.87992Z" fill="#5D87FF"/>
</g>
</g>
<defs>
<clipPath id="clip0_916_483">
<rect width="24" height="24" fill="white"/>
</clipPath>
<clipPath id="clip1_916_483">
<rect width="24" height="24" fill="white"/>
</clipPath>
</defs>
</svg>
