<svg width="41" height="40" viewBox="0 0 41 40" fill="none" xmlns="http://www.w3.org/2000/svg">
<g clip-path="url(#clip0_924_363)">
<g clip-path="url(#clip1_924_363)">
<path d="M17.1668 36.6667C24.5306 36.6667 30.5002 30.6971 30.5002 23.3333C30.5002 15.9695 24.5306 10 17.1668 10C9.80303 10 3.8335 15.9695 3.8335 23.3333C3.8335 30.6971 9.80303 36.6667 17.1668 36.6667Z" fill="#3DDAB4"/>
<path d="M26.8198 25.7725C33.0095 25.7725 38.0273 20.7547 38.0273 14.565C38.0273 8.37528 33.0095 3.35751 26.8198 3.35751C20.6301 3.35751 15.6123 8.37528 15.6123 14.565C15.6123 20.7547 20.6301 25.7725 26.8198 25.7725Z" fill="#F5BC00"/>
<path d="M3.8916 36.6667H17.0908L9.6016 29.6242L3.8916 36.6667Z" fill="#3DDAB4"/>
<path d="M17.1665 10C16.9673 10 16.774 10.0208 16.5765 10.03C15.9606 11.4175 15.6123 12.95 15.6123 14.5658C15.6123 20.7558 20.6298 25.7733 26.8198 25.7733C28.0565 25.7733 29.2423 25.565 30.3548 25.1958C30.4406 24.585 30.4998 23.9667 30.4998 23.3333C30.4998 15.9692 24.5306 10 17.1665 10Z" fill="#00B569"/>
<path d="M37.9793 3.35751H26.8843L33.1793 9.27751L37.9793 3.35751Z" fill="#F5BC00"/>
</g>
</g>
<defs>
<clipPath id="clip0_924_363">
<rect width="40" height="40" fill="white" transform="translate(0.5)"/>
</clipPath>
<clipPath id="clip1_924_363">
<rect width="40" height="40" fill="white" transform="translate(0.5)"/>
</clipPath>
</defs>
</svg>
