<svg width="25" height="24" viewBox="0 0 25 24" fill="none" xmlns="http://www.w3.org/2000/svg">
<g clip-path="url(#clip0_1028_869)">
<g clip-path="url(#clip1_1028_869)">
<path opacity="0.2" d="M17.2704 10.5599L8.12099 19.7093C7.98598 19.8443 7.80292 19.92 7.61204 19.92C7.42116 19.92 7.2381 19.8443 7.10309 19.7093L5.24099 17.85C5.10607 17.7149 5.03027 17.5318 5.03027 17.341C5.03027 17.1501 5.10607 16.9671 5.24099 16.832L14.3904 7.67993L17.2704 10.5599Z" fill="#5D87FF"/>
<path d="M23.7497 14.1599C23.7497 14.3508 23.6739 14.534 23.5389 14.669C23.4038 14.804 23.2207 14.8799 23.0297 14.8799H21.5897V16.3199C21.5897 16.5108 21.5139 16.694 21.3789 16.829C21.2438 16.964 21.0607 17.0399 20.8697 17.0399C20.6788 17.0399 20.4957 16.964 20.3606 16.829C20.2257 16.694 20.1497 16.5108 20.1497 16.3199V14.8799H18.7097C18.5188 14.8799 18.3357 14.804 18.2006 14.669C18.0657 14.534 17.9897 14.3508 17.9897 14.1599C17.9897 13.9689 18.0657 13.7858 18.2006 13.6508C18.3357 13.5157 18.5188 13.4399 18.7097 13.4399H20.1497V11.9999C20.1497 11.8089 20.2257 11.6258 20.3606 11.4908C20.4957 11.3557 20.6788 11.2799 20.8697 11.2799C21.0607 11.2799 21.2438 11.3557 21.3789 11.4908C21.5139 11.6258 21.5897 11.8089 21.5897 11.9999V13.4399H23.0297C23.2207 13.4399 23.4038 13.5157 23.5389 13.6508C23.6739 13.7858 23.7497 13.9689 23.7497 14.1599ZM6.46976 6.95986H7.90976V8.39986C7.90976 8.59082 7.98562 8.77396 8.12065 8.90898C8.25568 9.044 8.43881 9.11986 8.62976 9.11986C8.82073 9.11986 9.00386 9.044 9.13888 8.90898C9.27391 8.77396 9.34976 8.59082 9.34976 8.39986V6.95986H10.7897C10.9807 6.95986 11.1638 6.884 11.2989 6.74898C11.4339 6.61396 11.5097 6.43082 11.5097 6.23986C11.5097 6.04891 11.4339 5.86577 11.2989 5.73075C11.1638 5.59572 10.9807 5.51986 10.7897 5.51986H9.34976V4.07986C9.34976 3.88891 9.27391 3.70577 9.13888 3.57075C9.00386 3.43572 8.82073 3.35986 8.62976 3.35986C8.43881 3.35986 8.25568 3.43572 8.12065 3.57075C7.98562 3.70577 7.90976 3.88891 7.90976 4.07986V5.51986H6.46976C6.27881 5.51986 6.09568 5.59572 5.96065 5.73075C5.82562 5.86577 5.74976 6.04891 5.74976 6.23986C5.74976 6.43082 5.82562 6.61396 5.96065 6.74898C6.09568 6.884 6.27881 6.95986 6.46976 6.95986ZM17.9897 17.7599H17.2697V17.0399C17.2697 16.8489 17.1939 16.6658 17.0589 16.5308C16.9238 16.3957 16.7407 16.3199 16.5497 16.3199C16.3588 16.3199 16.1757 16.3957 16.0406 16.5308C15.9057 16.6658 15.8297 16.8489 15.8297 17.0399V17.7599H15.1097C14.9188 17.7599 14.7357 17.8357 14.6006 17.9708C14.4657 18.1058 14.3897 18.2889 14.3897 18.4799C14.3897 18.6708 14.4657 18.854 14.6006 18.989C14.7357 19.124 14.9188 19.1999 15.1097 19.1999H15.8297V19.9199C15.8297 20.1108 15.9057 20.294 16.0406 20.429C16.1757 20.564 16.3588 20.6399 16.5497 20.6399C16.7407 20.6399 16.9238 20.564 17.0589 20.429C17.1939 20.294 17.2697 20.1108 17.2697 19.9199V19.1999H17.9897C18.1807 19.1999 18.3638 19.124 18.4989 18.989C18.6339 18.854 18.7097 18.6708 18.7097 18.4799C18.7097 18.2889 18.6339 18.1058 18.4989 17.9708C18.3638 17.8357 18.1807 17.7599 17.9897 17.7599ZM21.1676 7.67986L8.62976 20.2178C8.35974 20.4876 7.99362 20.6392 7.61187 20.6392C7.23012 20.6392 6.864 20.4876 6.59397 20.2178L4.73096 18.3566C4.59722 18.2229 4.49112 18.0641 4.41873 17.8894C4.34634 17.7146 4.30908 17.5274 4.30908 17.3382C4.30908 17.1491 4.34634 16.9618 4.41873 16.7871C4.49112 16.6124 4.59722 16.4536 4.73096 16.3199L17.2697 3.78197C17.4035 3.64821 17.5622 3.54211 17.737 3.46973C17.9117 3.39734 18.099 3.36008 18.2881 3.36008C18.4772 3.36008 18.6645 3.39734 18.8392 3.46973C19.014 3.54211 19.1727 3.64821 19.3065 3.78197L21.1676 5.64317C21.3014 5.77688 21.4075 5.93564 21.4799 6.11037C21.5523 6.28511 21.5895 6.47238 21.5895 6.66151C21.5895 6.85064 21.5523 7.03792 21.4799 7.21265C21.4075 7.38738 21.3014 7.54614 21.1676 7.67986ZM16.251 10.5599L14.3897 8.69776L5.74976 17.3378L7.61096 19.1999L16.251 10.5599ZM20.1497 6.66197L18.2876 4.79986L15.4076 7.67986L17.2697 9.54197L20.1497 6.66197Z" fill="#5D87FF"/>
</g>
</g>
<defs>
<clipPath id="clip0_1028_869">
<rect width="24" height="24" fill="white" transform="translate(0.950195)"/>
</clipPath>
<clipPath id="clip1_1028_869">
<rect width="24" height="24" fill="white" transform="translate(0.950195)"/>
</clipPath>
</defs>
</svg>
