<svg width="24" height="24" viewBox="0 0 24 24" fill="none" xmlns="http://www.w3.org/2000/svg">
<g clip-path="url(#clip0_1028_897)">
<g clip-path="url(#clip1_1028_897)">
<path opacity="0.2" d="M21.1499 12.5059L12.5099 21.1459C12.4434 21.2124 12.3646 21.2652 12.2778 21.3012C12.191 21.3372 12.098 21.3558 12.004 21.3558C11.91 21.3558 11.817 21.3372 11.7302 21.3012C11.6435 21.2652 11.5646 21.2124 11.4982 21.1459L2.85824 12.5059C2.79174 12.4396 2.73897 12.3607 2.70297 12.274C2.66697 12.1872 2.64844 12.0941 2.64844 12.0002C2.64844 11.9062 2.66697 11.8132 2.70297 11.7264C2.73897 11.6395 2.79174 11.5607 2.85824 11.4943L11.5027 2.85433C11.5692 2.78783 11.648 2.73506 11.7348 2.69906C11.8215 2.66306 11.9146 2.64453 12.0085 2.64453C12.1025 2.64453 12.1956 2.66306 12.2823 2.69906C12.3691 2.73506 12.4479 2.78783 12.5144 2.85433L21.1544 11.4989C21.2867 11.6333 21.3605 11.8146 21.3596 12.0033C21.3588 12.192 21.2834 12.3727 21.1499 12.5059Z" fill="#5D87FF"/>
<path d="M21.6594 10.9848L13.0149 2.3394C12.7451 2.0712 12.3801 1.92065 11.9997 1.92065C11.6193 1.92065 11.2543 2.0712 10.9845 2.3394L2.34452 10.9848C2.07632 11.2546 1.92578 11.6196 1.92578 12C1.92578 12.3804 2.07632 12.7454 2.34452 13.0152L10.989 21.6606C11.2588 21.9288 11.6238 22.0794 12.0042 22.0794C12.3846 22.0794 12.7496 21.9288 13.0194 21.6606L21.6639 13.0152C21.9321 12.7454 22.0827 12.3804 22.0827 12C22.0827 11.6196 21.9321 11.2546 21.6639 10.9848H21.6594ZM11.9997 20.64L3.35972 12L11.9997 3.36L20.6397 12L11.9997 20.64Z" fill="#5D87FF"/>
</g>
</g>
<defs>
<clipPath id="clip0_1028_897">
<rect width="24" height="24" fill="white"/>
</clipPath>
<clipPath id="clip1_1028_897">
<rect width="24" height="24" fill="white"/>
</clipPath>
</defs>
</svg>
