<svg width="41" height="40" viewBox="0 0 41 40" fill="none" xmlns="http://www.w3.org/2000/svg">
<g clip-path="url(#clip0_921_89)">
<g clip-path="url(#clip1_921_89)">
<g clip-path="url(#clip2_921_89)">
<path d="M39.2563 20C39.2563 9.76249 30.9572 1.46338 20.7197 1.46338C10.4822 1.46338 2.18311 9.76249 2.18311 20C2.18311 30.2374 10.4822 38.5365 20.7197 38.5365C30.9572 38.5365 39.2563 30.2374 39.2563 20Z" stroke="#5D87FF" stroke-width="1.95122"/>
<path d="M27.5491 20.0003C27.5495 20.166 27.507 20.3289 27.4258 20.4732C27.3446 20.6176 27.2274 20.7384 27.0857 20.8241L18.3003 26.1984C18.1522 26.2892 17.9826 26.3387 17.8089 26.342C17.6352 26.3451 17.4639 26.302 17.3125 26.2168C17.1626 26.133 17.0377 26.0106 16.9507 25.8625C16.8636 25.7144 16.8177 25.5459 16.8174 25.3741V14.6265C16.8177 14.4547 16.8636 14.2862 16.9507 14.1381C17.0377 13.99 17.1626 13.8677 17.3125 13.7838C17.4639 13.6987 17.6352 13.6555 17.8089 13.6587C17.9826 13.662 18.1522 13.7114 18.3003 13.8022L27.0857 19.1765C27.2274 19.2621 27.3446 19.383 27.4258 19.5274C27.507 19.6718 27.5495 19.8346 27.5491 20.0003Z" fill="#5D87FF"/>
</g>
</g>
</g>
<defs>
<clipPath id="clip0_921_89">
<rect width="40" height="40" fill="white" transform="translate(0.719727)"/>
</clipPath>
<clipPath id="clip1_921_89">
<rect width="40" height="40" fill="white" transform="translate(0.719727)"/>
</clipPath>
<clipPath id="clip2_921_89">
<rect width="40" height="40" fill="white" transform="translate(0.719727)"/>
</clipPath>
</defs>
</svg>
