<svg width="24" height="24" viewBox="0 0 24 24" fill="none" xmlns="http://www.w3.org/2000/svg">
<g clip-path="url(#clip0_916_552)">
<g clip-path="url(#clip1_916_552)">
<path opacity="0.2" d="M8.39986 9.83997V18.48H3.35986V9.83997H8.39986Z" fill="#5D87FF"/>
<path d="M20.6401 4.79993H3.36014C3.16918 4.79993 2.98604 4.87579 2.85102 5.01081C2.716 5.14583 2.64014 5.32897 2.64014 5.51993V17.7599C2.64014 18.1418 2.79186 18.5082 3.0619 18.7782C3.33195 19.0482 3.69823 19.1999 4.08014 19.1999H19.9201C20.302 19.1999 20.6684 19.0482 20.9384 18.7782C21.2085 18.5082 21.3601 18.1418 21.3601 17.7599V5.51993C21.3601 5.32897 21.2843 5.14583 21.1492 5.01081C21.0142 4.87579 20.8311 4.79993 20.6401 4.79993ZM4.08014 10.5599H7.68014V13.4399H4.08014V10.5599ZM9.12014 10.5599H19.9201V13.4399H9.12014V10.5599ZM19.9201 6.23993V9.11993H4.08014V6.23993H19.9201ZM4.08014 14.8799H7.68014V17.7599H4.08014V14.8799ZM19.9201 17.7599H9.12014V14.8799H19.9201V17.7599Z" fill="#5D87FF"/>
</g>
</g>
<defs>
<clipPath id="clip0_916_552">
<rect width="24" height="24" fill="white"/>
</clipPath>
<clipPath id="clip1_916_552">
<rect width="24" height="24" fill="white"/>
</clipPath>
</defs>
</svg>
