<svg width="24" height="24" viewBox="0 0 24 24" fill="none" xmlns="http://www.w3.org/2000/svg">
<g clip-path="url(#clip0_1028_876)">
<g clip-path="url(#clip1_1028_876)">
<path opacity="0.2" d="M21.8695 14.2501L14.25 21.8695C14.1151 22.0044 13.932 22.0802 13.7411 22.0802C13.5503 22.0802 13.3672 22.0044 13.2321 21.8695L4.29067 12.9307C4.15591 12.7957 4.08016 12.6128 4.08008 12.4222V4.08008H12.4222C12.6128 4.08016 12.7957 4.15591 12.9307 4.29068L21.8695 13.2295C21.9367 13.2964 21.99 13.3759 22.0264 13.4635C22.0628 13.5511 22.0815 13.6449 22.0815 13.7398C22.0815 13.8346 22.0628 13.9285 22.0264 14.0161C21.99 14.1036 21.9367 14.1832 21.8695 14.2501Z" fill="#5D87FF"/>
<path d="M22.3778 12.7199L13.4399 3.78196C13.3066 3.64767 13.148 3.5412 12.9733 3.46873C12.7986 3.39626 12.6112 3.35927 12.422 3.35987H4.07987C3.88892 3.35987 3.70578 3.43573 3.57075 3.57075C3.43573 3.70578 3.35987 3.88892 3.35987 4.07987V12.422C3.35927 12.6112 3.39626 12.7986 3.46873 12.9733C3.5412 13.148 3.64767 13.3066 3.78196 13.4399L12.7199 22.3778C12.8536 22.5115 13.0124 22.6177 13.1871 22.69C13.3618 22.7624 13.5491 22.7997 13.7382 22.7997C13.9273 22.7997 14.1146 22.7624 14.2894 22.69C14.4641 22.6177 14.6229 22.5115 14.7566 22.3778L22.3778 14.7566C22.5115 14.6229 22.6177 14.4641 22.69 14.2894C22.7624 14.1146 22.7997 13.9273 22.7997 13.7382C22.7997 13.5491 22.7624 13.3618 22.69 13.1871C22.6177 13.0124 22.5115 12.8536 22.3778 12.7199ZM13.7377 21.3599L4.79987 12.422V4.79987H12.422L21.3599 13.7377L13.7377 21.3599ZM9.11987 8.03987C9.11987 8.25347 9.05653 8.46228 8.93785 8.63988C8.81918 8.81749 8.65051 8.95591 8.45317 9.03766C8.25582 9.1194 8.03867 9.14079 7.82917 9.09911C7.61967 9.05744 7.42724 8.95459 7.27619 8.80354C7.12515 8.6525 7.02229 8.46006 6.98062 8.25056C6.93895 8.04107 6.96033 7.82392 7.04208 7.62657C7.12382 7.42922 7.26225 7.26055 7.43985 7.14188C7.61746 7.02321 7.82626 6.95987 8.03987 6.95987C8.32631 6.95987 8.601 7.07365 8.80354 7.27619C9.00608 7.47873 9.11987 7.75344 9.11987 8.03987Z" fill="#5D87FF"/>
</g>
</g>
<defs>
<clipPath id="clip0_1028_876">
<rect width="24" height="24" fill="white"/>
</clipPath>
<clipPath id="clip1_1028_876">
<rect width="24" height="24" fill="white"/>
</clipPath>
</defs>
</svg>
