<svg width="25" height="24" viewBox="0 0 25 24" fill="none" xmlns="http://www.w3.org/2000/svg">
<g clip-path="url(#clip0_916_417)">
<g clip-path="url(#clip1_916_417)">
<path opacity="0.2" d="M20.0748 15.7499C20.4639 15.7502 20.8481 15.6641 21.1998 15.4977V19.4999C21.1998 19.6988 21.1208 19.8896 20.9802 20.0302C20.8395 20.1709 20.6487 20.2499 20.4498 20.2499H6.94982C6.75091 20.2499 6.56014 20.1709 6.41949 20.0302C6.27884 19.8896 6.19982 19.6988 6.19982 19.4999V15.4977C5.79972 15.687 5.35826 15.7721 4.91647 15.745C4.47467 15.7179 4.04691 15.5795 3.67294 15.3427C3.29898 15.1059 2.99095 14.7785 2.77751 14.3907C2.56408 14.0029 2.45215 13.5675 2.45215 13.1249C2.45215 12.6823 2.56408 12.2468 2.77751 11.8591C2.99095 11.4713 3.29898 11.1438 3.67294 10.907C4.04691 10.6703 4.47467 10.5319 4.91647 10.5048C5.35826 10.4777 5.79972 10.5628 6.19982 10.7521V6.74988C6.19982 6.55097 6.27884 6.3602 6.41949 6.21955C6.56014 6.0789 6.75091 5.99988 6.94982 5.99988H11.327C11.1375 5.59978 11.0523 5.15824 11.0792 4.71635C11.1062 4.27446 11.2445 3.84657 11.4812 3.47247C11.718 3.09838 12.0455 2.79024 12.4333 2.57671C12.8211 2.36319 13.2566 2.25122 13.6994 2.25122C14.1421 2.25122 14.5776 2.36319 14.9654 2.57671C15.3532 2.79024 15.6807 3.09838 15.9175 3.47247C16.1542 3.84657 16.2925 4.27446 16.3195 4.71635C16.3464 5.15824 16.2612 5.59978 16.0717 5.99988H20.4498C20.6487 5.99988 20.8395 6.0789 20.9802 6.21955C21.1208 6.3602 21.1998 6.55097 21.1998 6.74988V10.7521C20.8441 10.5838 20.4552 10.4976 20.0617 10.4999C19.6682 10.5022 19.2802 10.593 18.9266 10.7655C18.5729 10.938 18.2625 11.1877 18.0184 11.4964C17.7743 11.805 17.6026 12.1645 17.5162 12.5484C17.4298 12.9323 17.4308 13.3307 17.5192 13.7142C17.6075 14.0976 17.7809 14.4563 18.0266 14.7637C18.2722 15.0711 18.5839 15.3193 18.9384 15.49C19.2929 15.6607 19.6813 15.7495 20.0748 15.7499Z" fill="#5D87FF"/>
<path d="M21.6009 14.8632C21.494 14.7957 21.3717 14.7564 21.2455 14.7489C21.1193 14.7413 20.9932 14.7658 20.879 14.82C20.5933 14.9552 20.2779 15.0159 19.9624 14.9965C19.6469 14.9771 19.3414 14.8783 19.0743 14.7091C18.8072 14.54 18.5872 14.3061 18.4348 14.0291C18.2823 13.7522 18.2024 13.4412 18.2024 13.125C18.2024 12.8089 18.2823 12.4979 18.4348 12.221C18.5872 11.944 18.8072 11.7101 19.0743 11.541C19.3414 11.3718 19.6469 11.273 19.9624 11.2536C20.2779 11.2342 20.5933 11.2949 20.879 11.43C20.9934 11.4843 21.1196 11.5087 21.2459 11.5011C21.3722 11.4935 21.4946 11.454 21.6015 11.3863C21.7085 11.3187 21.7966 11.225 21.8576 11.1142C21.9187 11.0033 21.9506 10.8788 21.9506 10.7522V6.75004C21.9506 6.35222 21.7926 5.97068 21.5113 5.68938C21.23 5.40808 20.8484 5.25004 20.4506 5.25004H17.055C17.0689 5.12553 17.0758 5.00033 17.0756 4.87504C17.0748 4.41397 16.98 3.95791 16.7968 3.53476C16.6137 3.11161 16.3462 2.73028 16.0106 2.4141C15.5458 1.97758 14.9668 1.68166 14.3408 1.56063C13.7147 1.43959 13.0672 1.49839 12.4732 1.73021C11.8791 1.96203 11.3629 2.35738 10.9844 2.87049C10.6058 3.38359 10.3803 3.99344 10.334 4.62942C10.3196 4.83626 10.324 5.04399 10.3472 5.25004H6.9506C6.55277 5.25004 6.17124 5.40808 5.88994 5.68938C5.60863 5.97068 5.4506 6.35222 5.4506 6.75004V9.77067C5.32609 9.75671 5.20089 9.74982 5.0756 9.75004C4.61466 9.75078 4.15872 9.84562 3.73572 10.0288C3.31273 10.2119 2.93157 10.4794 2.6156 10.815C2.29736 11.1512 2.05232 11.5497 1.89595 11.9854C1.73958 12.4211 1.6753 12.8845 1.70715 13.3463C1.7609 14.1595 2.10642 14.9259 2.68016 15.5046C3.25391 16.0834 4.01731 16.4355 4.82997 16.4963C5.03682 16.5107 5.24454 16.5063 5.4506 16.4832V19.5C5.4506 19.8979 5.60863 20.2794 5.88994 20.5607C6.17124 20.842 6.55277 21 6.9506 21H20.4506C20.8484 21 21.23 20.842 21.5113 20.5607C21.7926 20.2794 21.9506 19.8979 21.9506 19.5V15.4979C21.9507 15.3711 21.9186 15.2465 21.8575 15.1355C21.7963 15.0245 21.7081 14.9308 21.6009 14.8632ZM20.4506 19.5H6.9506V15.4979C6.95064 15.3713 6.91865 15.2468 6.85762 15.1359C6.79658 15.025 6.70849 14.9314 6.60153 14.8638C6.49457 14.7961 6.37223 14.7566 6.24591 14.749C6.11958 14.7413 5.99337 14.7658 5.87903 14.82C5.59325 14.9552 5.27793 15.0159 4.96239 14.9965C4.64685 14.9771 4.34135 14.8783 4.07427 14.7091C3.80718 14.54 3.5872 14.3061 3.43477 14.0291C3.28234 13.7522 3.20241 13.4412 3.20241 13.125C3.20241 12.8089 3.28234 12.4979 3.43477 12.221C3.5872 11.944 3.80718 11.7101 4.07427 11.541C4.34135 11.3718 4.64685 11.273 4.96239 11.2536C5.27793 11.2342 5.59325 11.2949 5.87903 11.43C5.99337 11.4843 6.11958 11.5087 6.24591 11.5011C6.37223 11.4935 6.49457 11.454 6.60153 11.3863C6.70849 11.3187 6.79658 11.225 6.85762 11.1142C6.91865 11.0033 6.95064 10.8788 6.9506 10.7522V6.75004H11.3278C11.4543 6.75008 11.5789 6.7181 11.6897 6.65706C11.8006 6.59603 11.8942 6.50793 11.9619 6.40097C12.0295 6.29402 12.069 6.17168 12.0767 6.04535C12.0843 5.91902 12.0599 5.79281 12.0056 5.67848C11.8704 5.39269 11.8097 5.07738 11.8291 4.76184C11.8485 4.44631 11.9474 4.1408 12.1165 3.87371C12.2856 3.60663 12.5196 3.38665 12.7965 3.23422C13.0735 3.08179 13.3845 3.00185 13.7006 3.00185C14.0167 3.00185 14.3277 3.08179 14.6047 3.23422C14.8816 3.38665 15.1156 3.60663 15.2847 3.87371C15.4538 4.1408 15.5527 4.44631 15.5721 4.76184C15.5915 5.07738 15.5308 5.39269 15.3956 5.67848C15.3413 5.79281 15.3169 5.91902 15.3245 6.04535C15.3322 6.17168 15.3717 6.29402 15.4393 6.40097C15.507 6.50793 15.6006 6.59603 15.7115 6.65706C15.8223 6.7181 15.9469 6.75008 16.0734 6.75004H20.4506V9.7716C20.2446 9.748 20.0368 9.74361 19.83 9.75848C18.9571 9.82029 18.1423 10.2187 17.5575 10.8697C16.9728 11.5207 16.6637 12.3734 16.6956 13.2479C16.7275 14.1224 17.0977 14.9504 17.7283 15.5571C18.3589 16.1638 19.2005 16.5019 20.0756 16.5C20.2009 16.5003 20.3261 16.4934 20.4506 16.4794V19.5Z" fill="#5D87FF"/>
</g>
</g>
<defs>
<clipPath id="clip0_916_417">
<rect width="24" height="24" fill="white" transform="translate(0.950195)"/>
</clipPath>
<clipPath id="clip1_916_417">
<rect width="24" height="24" fill="white" transform="translate(0.950195)"/>
</clipPath>
</defs>
</svg>
