<svg width="25" height="24" viewBox="0 0 25 24" fill="none" xmlns="http://www.w3.org/2000/svg">
<g clip-path="url(#clip0_916_490)">
<g clip-path="url(#clip1_916_490)">
<path opacity="0.2" d="M19.2599 5.51993V18.4799C19.2599 18.6709 19.184 18.854 19.049 18.989C18.914 19.1241 18.7308 19.1999 18.5399 19.1999H5.57986C5.38891 19.1999 5.20577 19.1241 5.07075 18.989C4.93572 18.854 4.85986 18.6709 4.85986 18.4799V5.51993C4.85986 5.32897 4.93572 5.14583 5.07075 5.01081C5.20577 4.87579 5.38891 4.79993 5.57986 4.79993H18.5399C18.7308 4.79993 18.914 4.87579 19.049 5.01081C19.184 5.14583 19.2599 5.32897 19.2599 5.51993Z" fill="#5D87FF"/>
<path d="M5.79039 9.62932L2.91039 6.74932C2.84345 6.68246 2.79034 6.60305 2.7541 6.51564C2.71787 6.42824 2.69922 6.33455 2.69922 6.23993C2.69922 6.14531 2.71787 6.05162 2.7541 5.96421C2.79034 5.87681 2.84345 5.7974 2.91039 5.73052L5.79039 2.85052C5.92549 2.71542 6.10873 2.63953 6.29978 2.63953C6.49085 2.63953 6.67409 2.71542 6.80919 2.85052C6.94429 2.98563 7.02019 3.16887 7.02019 3.35993C7.02019 3.55099 6.94429 3.73422 6.80919 3.86932L4.43769 6.23993L6.80919 8.61053C6.94429 8.74563 7.02019 8.92887 7.02019 9.11993C7.02019 9.31099 6.94429 9.49422 6.80919 9.62932C6.67409 9.76443 6.49085 9.84033 6.29978 9.84033C6.10873 9.84033 5.92549 9.76443 5.79039 9.62932ZM9.39039 9.62932C9.45725 9.69628 9.53666 9.74938 9.62407 9.78561C9.71152 9.82184 9.80522 9.8405 9.89978 9.8405C9.99443 9.8405 10.0881 9.82184 10.1755 9.78561C10.2629 9.74938 10.3423 9.69628 10.4092 9.62932L13.2892 6.74932C13.3562 6.68246 13.4092 6.60305 13.4454 6.51564C13.4817 6.42824 13.5004 6.33455 13.5004 6.23993C13.5004 6.14531 13.4817 6.05162 13.4454 5.96421C13.4092 5.87681 13.3562 5.7974 13.2892 5.73052L10.4092 2.85052C10.2741 2.71542 10.0908 2.63953 9.89978 2.63953C9.70874 2.63953 9.52549 2.71542 9.39039 2.85052C9.25529 2.98563 9.17939 3.16887 9.17939 3.35993C9.17939 3.55099 9.25529 3.73422 9.39039 3.86932L11.7619 6.23993L9.39039 8.61053C9.32345 8.6774 9.27034 8.75681 9.2341 8.84421C9.19787 8.93162 9.17922 9.02531 9.17922 9.11993C9.17922 9.21455 9.19787 9.30824 9.2341 9.39564C9.27034 9.48305 9.32345 9.56246 9.39039 9.62932ZM18.5398 4.07993H16.3798C16.1888 4.07993 16.0057 4.15579 15.8707 4.29081C15.7356 4.42584 15.6598 4.60898 15.6598 4.79993C15.6598 4.99088 15.7356 5.17402 15.8707 5.30905C16.0057 5.44407 16.1888 5.51993 16.3798 5.51993H18.5398V18.4799H5.57978V12.7199C5.57978 12.529 5.50394 12.3459 5.3689 12.2108C5.23388 12.0757 5.05075 11.9999 4.85978 11.9999C4.66883 11.9999 4.4857 12.0757 4.35067 12.2108C4.21564 12.3459 4.13978 12.529 4.13978 12.7199V18.4799C4.13978 18.8619 4.2915 19.2281 4.56155 19.4982C4.83161 19.7682 5.19788 19.9199 5.57978 19.9199H18.5398C18.9217 19.9199 19.288 19.7682 19.558 19.4982C19.8281 19.2281 19.9798 18.8619 19.9798 18.4799V5.51993C19.9798 5.13801 19.8281 4.77174 19.558 4.5017C19.288 4.23164 18.9217 4.07993 18.5398 4.07993Z" fill="#5D87FF"/>
</g>
</g>
<defs>
<clipPath id="clip0_916_490">
<rect width="24" height="24" fill="white" transform="translate(0.0600586)"/>
</clipPath>
<clipPath id="clip1_916_490">
<rect width="24" height="24" fill="white" transform="translate(0.0600586)"/>
</clipPath>
</defs>
</svg>
