<svg width="41" height="40" viewBox="0 0 41 40" fill="none" xmlns="http://www.w3.org/2000/svg">
<g clip-path="url(#clip0_924_374)">
<g clip-path="url(#clip1_924_374)">
<g clip-path="url(#clip2_924_374)">
<path d="M31.3332 5H9.6665V25L20.4998 30L31.3332 35V5Z" fill="#F55376"/>
<path d="M9.6665 5H31.3332V25L20.4998 30L9.6665 35V5Z" fill="#F55376"/>
<path d="M9.6665 5V25L20.4998 30L26.7498 27.115L31.3332 20.8333V5H9.6665Z" fill="#EB0000"/>
<path d="M31.3332 24.8067L40.4998 17.5H22.1665L31.3332 24.8067Z" fill="#FADB00"/>
<path d="M31.3333 24.7767L37.1308 28.3334H37.1667L31.3333 11.6667L25.5 28.3334H25.5367L31.3333 24.7767Z" fill="#FADB00"/>
<path d="M33.3748 17.5H29.2915L27.7373 21.9408L31.3115 24.79L31.3331 24.7767L31.3548 24.79L34.929 21.9408L33.3748 17.5Z" fill="#F5BC00"/>
</g>
</g>
</g>
<defs>
<clipPath id="clip0_924_374">
<rect width="40" height="40" fill="white" transform="translate(0.5)"/>
</clipPath>
<clipPath id="clip1_924_374">
<rect width="40" height="40" fill="white" transform="translate(0.5)"/>
</clipPath>
<clipPath id="clip2_924_374">
<rect width="40" height="40" fill="white" transform="translate(0.5)"/>
</clipPath>
</defs>
</svg>
