<svg width="24" height="24" viewBox="0 0 24 24" fill="none" xmlns="http://www.w3.org/2000/svg">
<g clip-path="url(#clip0_916_559)">
<g clip-path="url(#clip1_916_559)">
<path opacity="0.2" d="M19.9201 4.79993V9.11993H15.6001L19.9201 4.79993ZM4.08008 19.1999L8.40008 14.8799H4.08008V19.1999Z" fill="#5D87FF"/>
<path d="M20.1953 4.13489C20.0637 4.08031 19.9189 4.06597 19.7792 4.09368C19.6395 4.1214 19.5112 4.18992 19.4105 4.29059L17.965 5.73689C16.1516 4.17899 14.1023 3.35999 11.9999 3.35999C8.14607 3.35999 5.82767 5.63428 5.73047 5.73059C5.59536 5.86569 5.51946 6.04893 5.51946 6.23999C5.51946 6.43104 5.59536 6.61428 5.73047 6.74939C5.86557 6.88449 6.0488 6.96039 6.23986 6.96039C6.43092 6.96039 6.61417 6.88449 6.74927 6.74939C6.76816 6.72959 8.73557 4.79999 11.9999 4.79999C14.0852 4.79999 15.7727 5.77649 16.9427 6.75839L15.0905 8.61058C14.9897 8.71128 14.921 8.83963 14.8932 8.97937C14.8654 9.1191 14.8796 9.26397 14.9341 9.39559C14.9886 9.52723 15.0811 9.63972 15.1995 9.71882C15.3181 9.79793 15.4574 9.8401 15.5999 9.83999H19.9199C20.1108 9.83999 20.294 9.76413 20.429 9.6291C20.564 9.49408 20.6399 9.31094 20.6399 9.11999V4.79999C20.6399 4.65758 20.5976 4.51839 20.5184 4.4C20.4393 4.28161 20.3268 4.18936 20.1953 4.13489ZM19.1999 8.39999H17.3378L19.1999 6.53788V8.39999ZM17.2505 17.2506C17.2316 17.2704 15.2642 19.2 11.9999 19.2C9.91455 19.2 8.22706 18.2235 7.05706 17.2416L8.90927 15.3894C9.01007 15.2887 9.07874 15.1603 9.10657 15.0206C9.1344 14.8808 9.12013 14.736 9.0656 14.6044C9.01105 14.4728 8.91868 14.3602 8.80017 14.2811C8.68166 14.202 8.54235 14.1599 8.39986 14.16H4.07986C3.88891 14.16 3.70577 14.2358 3.57075 14.3709C3.43572 14.5059 3.35986 14.689 3.35986 14.88V19.2C3.35975 19.3425 3.40192 19.4817 3.48103 19.6003C3.56013 19.7188 3.67262 19.8112 3.80426 19.8657C3.93588 19.9203 4.08075 19.9345 4.22048 19.9066C4.36022 19.8789 4.48856 19.8102 4.58927 19.7094L6.03466 18.2631C7.84816 19.821 9.89746 20.64 11.9999 20.64C15.8537 20.64 18.1721 18.3656 18.2692 18.2694C18.4044 18.1343 18.4802 17.951 18.4802 17.76C18.4802 17.5689 18.4044 17.3857 18.2692 17.2506C18.1342 17.1154 17.9509 17.0396 17.7599 17.0396C17.5688 17.0396 17.3856 17.1154 17.2505 17.2506ZM4.79986 15.6H6.66197L4.79986 17.4621V15.6Z" fill="#5D87FF"/>
</g>
</g>
<defs>
<clipPath id="clip0_916_559">
<rect width="24" height="24" fill="white"/>
</clipPath>
<clipPath id="clip1_916_559">
<rect width="24" height="24" fill="white"/>
</clipPath>
</defs>
</svg>
