<svg width="304" height="39" viewBox="0 0 304 39" fill="none" xmlns="http://www.w3.org/2000/svg">
<path d="M160.527 9.55619H165.667V10.77H160.527V9.55619ZM160.655 13.9973H166.481V15.2396H159.227V5.24363H166.281V6.48599H160.655V13.9973Z" fill="#122368"/>
<path d="M167.829 11.9124V10.7272H171.671V11.9124H167.829Z" fill="#122368"/>
<path d="M173.981 15.2396V5.24363H175.409V13.9973H180.821V15.2396H173.981Z" fill="#122368"/>
<path d="M183.759 9.55619H188.9V10.77H183.759V9.55619ZM183.888 13.9973H189.714V15.2396H182.46V5.24363H189.514V6.48599H183.888V13.9973Z" fill="#122368"/>
<path d="M190.513 15.2396L195.04 5.24363H196.453L200.994 15.2396H199.495L195.454 6.04331H196.025L191.984 15.2396H190.513ZM192.441 12.7406L192.826 11.5982H198.452L198.867 12.7406H192.441Z" fill="#122368"/>
<path d="M202.485 15.2396V5.24363H206.384C207.26 5.24363 208.007 5.38167 208.626 5.65775C209.245 5.93383 209.721 6.33367 210.054 6.85727C210.387 7.38087 210.554 8.00443 210.554 8.72795C210.554 9.45147 210.387 10.075 210.054 10.5986C209.721 11.1127 209.245 11.5078 208.626 11.7839C208.007 12.06 207.26 12.198 206.384 12.198H203.271L203.913 11.5411V15.2396H202.485ZM209.168 15.2396L206.627 11.6125H208.155L210.725 15.2396H209.168ZM203.913 11.6839L203.271 10.9842H206.341C207.255 10.9842 207.945 10.789 208.412 10.3987C208.888 9.99887 209.126 9.44195 209.126 8.72795C209.126 8.01395 208.888 7.46179 208.412 7.07147C207.945 6.68115 207.255 6.48599 206.341 6.48599H203.271L203.913 5.77199V11.6839Z" fill="#122368"/>
<path d="M212.861 15.2396V5.24363H214.032L220.643 13.4546H220.029V5.24363H221.457V15.2396H220.286L213.675 7.02863H214.289V15.2396H212.861Z" fill="#122368"/>
<path d="M224.449 15.2396V5.24363H225.877V15.2396H224.449Z" fill="#122368"/>
<path d="M228.87 15.2396V5.24363H230.041L236.653 13.4546H236.039V5.24363H237.466V15.2396H236.296L229.684 7.02863H230.298V15.2396H228.87Z" fill="#122368"/>
<path d="M244.971 15.3539C244.2 15.3539 243.491 15.2301 242.843 14.9826C242.196 14.7256 241.634 14.3686 241.158 13.9116C240.682 13.4451 240.311 12.9025 240.044 12.2837C239.778 11.6649 239.645 10.9842 239.645 10.2416C239.645 9.49907 239.778 8.81839 240.044 8.19959C240.311 7.58079 240.682 7.04291 241.158 6.58595C241.644 6.11947 242.21 5.76247 242.858 5.51495C243.505 5.25791 244.219 5.12939 245 5.12939C245.79 5.12939 246.513 5.25791 247.17 5.51495C247.827 5.77199 248.384 6.15755 248.841 6.67163L247.956 7.55699C247.546 7.15715 247.099 6.86679 246.613 6.68591C246.137 6.49551 245.618 6.40031 245.057 6.40031C244.485 6.40031 243.952 6.49551 243.457 6.68591C242.972 6.87631 242.548 7.14287 242.186 7.48559C241.834 7.82831 241.558 8.23767 241.358 8.71367C241.168 9.18015 241.073 9.68947 241.073 10.2416C241.073 10.7843 241.168 11.2936 241.358 11.7696C241.558 12.2361 241.834 12.6454 242.186 12.9977C242.548 13.3404 242.972 13.607 243.457 13.7974C243.943 13.9878 244.471 14.083 245.042 14.083C245.576 14.083 246.085 14.002 246.57 13.8402C247.065 13.6688 247.522 13.388 247.941 12.9977L248.755 14.083C248.26 14.5018 247.679 14.8208 247.013 15.0397C246.356 15.2492 245.675 15.3539 244.971 15.3539ZM247.384 13.8973V10.1845H248.755V14.083L247.384 13.8973Z" fill="#122368"/>
<path d="M162.112 32.8432L157.713 22.8472H159.256L163.297 32.0721H162.411L166.481 22.8472H167.909L163.525 32.8432H162.112Z" fill="#122368"/>
<path d="M169.184 32.8432V22.8472H170.612V32.8432H169.184Z" fill="#122368"/>
<path d="M173.605 32.8432V22.8472H177.503C178.379 22.8472 179.126 22.9852 179.745 23.2613C180.364 23.5374 180.84 23.9372 181.173 24.4608C181.506 24.9844 181.673 25.608 181.673 26.3315C181.673 27.055 181.506 27.6786 181.173 28.2022C180.84 28.7163 180.364 29.1113 179.745 29.3874C179.126 29.6635 178.379 29.8015 177.503 29.8015H174.39L175.033 29.1447V32.8432H173.605ZM180.288 32.8432L177.746 29.2161H179.274L181.844 32.8432H180.288ZM175.033 29.2875L174.39 28.5877H177.46C178.374 28.5877 179.064 28.3926 179.531 28.0023C180.007 27.6024 180.245 27.0455 180.245 26.3315C180.245 25.6175 180.007 25.0653 179.531 24.675C179.064 24.2847 178.374 24.0895 177.46 24.0895H174.39L175.033 23.3755V29.2875Z" fill="#122368"/>
<path d="M185.825 32.8432V24.0895H182.398V22.8472H190.666V24.0895H187.239V32.8432H185.825Z" fill="#122368"/>
<path d="M196.182 32.9574C194.868 32.9574 193.835 32.5814 193.083 31.8293C192.331 31.0772 191.955 29.9777 191.955 28.5306V22.8472H193.383V28.4735C193.383 29.5873 193.625 30.4013 194.111 30.9154C194.606 31.4295 195.301 31.6865 196.196 31.6865C197.1 31.6865 197.795 31.4295 198.281 30.9154C198.776 30.4013 199.023 29.5873 199.023 28.4735V22.8472H200.408V28.5306C200.408 29.9777 200.032 31.0772 199.28 31.8293C198.538 32.5814 197.505 32.9574 196.182 32.9574Z" fill="#122368"/>
<path d="M201.613 32.8432L206.14 22.8472H207.554L212.095 32.8432H210.595L206.554 23.6469H207.125L203.084 32.8432H201.613ZM203.541 30.3442L203.927 29.2018H209.553L209.967 30.3442H203.541Z" fill="#122368"/>
<path d="M213.586 32.8432V22.8472H215.014V31.6008H220.426V32.8432H213.586Z" fill="#122368"/>
<path d="M224.386 32.8432L228.913 22.8472H230.326L234.867 32.8432H233.368L229.327 23.6469H229.898L225.857 32.8432H224.386ZM226.314 30.3442L226.699 29.2018H232.326L232.74 30.3442H226.314Z" fill="#122368"/>
<path d="M239.272 32.9574C238.51 32.9574 237.782 32.8432 237.087 32.6147C236.392 32.3767 235.844 32.0721 235.445 31.7008L235.973 30.5869C236.354 30.9201 236.839 31.1962 237.43 31.4152C238.02 31.6341 238.634 31.7436 239.272 31.7436C239.852 31.7436 240.324 31.677 240.685 31.5437C241.047 31.4104 241.314 31.2295 241.485 31.0011C241.656 30.7631 241.742 30.4965 241.742 30.2014C241.742 29.8587 241.628 29.5826 241.399 29.3731C241.18 29.1637 240.89 28.9971 240.528 28.8733C240.176 28.7401 239.786 28.6258 239.357 28.5306C238.929 28.4354 238.496 28.3259 238.058 28.2022C237.63 28.0689 237.234 27.9023 236.873 27.7024C236.52 27.5025 236.235 27.2359 236.016 26.9027C235.797 26.56 235.687 26.1221 235.687 25.5889C235.687 25.0749 235.821 24.6036 236.087 24.1752C236.363 23.7373 236.782 23.3898 237.344 23.1328C237.915 22.8662 238.639 22.7329 239.514 22.7329C240.095 22.7329 240.671 22.8091 241.242 22.9614C241.814 23.1137 242.309 23.3327 242.727 23.6183L242.256 24.7607C241.828 24.4751 241.376 24.2704 240.9 24.1467C240.424 24.0134 239.962 23.9467 239.514 23.9467C238.953 23.9467 238.491 24.0181 238.129 24.1609C237.768 24.3037 237.501 24.4941 237.33 24.7321C237.168 24.9701 237.087 25.2367 237.087 25.5318C237.087 25.8841 237.196 26.1649 237.415 26.3743C237.644 26.5838 237.934 26.7504 238.286 26.8741C238.648 26.9979 239.043 27.1121 239.472 27.2169C239.9 27.3121 240.328 27.4215 240.757 27.5453C241.195 27.6691 241.59 27.8309 241.942 28.0308C242.304 28.2307 242.594 28.4973 242.813 28.8305C243.032 29.1637 243.142 29.5921 243.142 30.1157C243.142 30.6203 243.004 31.0915 242.727 31.5294C242.451 31.9578 242.023 32.3053 241.442 32.5719C240.871 32.8289 240.148 32.9574 239.272 32.9574Z" fill="#122368"/>
<path d="M248.141 32.9574C247.379 32.9574 246.651 32.8432 245.956 32.6147C245.261 32.3767 244.714 32.0721 244.314 31.7008L244.842 30.5869C245.223 30.9201 245.709 31.1962 246.299 31.4152C246.889 31.6341 247.503 31.7436 248.141 31.7436C248.722 31.7436 249.193 31.677 249.555 31.5437C249.916 31.4104 250.183 31.2295 250.354 31.0011C250.526 30.7631 250.611 30.4965 250.611 30.2014C250.611 29.8587 250.497 29.5826 250.269 29.3731C250.05 29.1637 249.759 28.9971 249.398 28.8733C249.045 28.7401 248.655 28.6258 248.227 28.5306C247.798 28.4354 247.365 28.3259 246.927 28.2022C246.499 28.0689 246.104 27.9023 245.742 27.7024C245.39 27.5025 245.104 27.2359 244.885 26.9027C244.666 26.56 244.557 26.1221 244.557 25.5889C244.557 25.0749 244.69 24.6036 244.956 24.1752C245.233 23.7373 245.651 23.3898 246.213 23.1328C246.784 22.8662 247.508 22.7329 248.384 22.7329C248.964 22.7329 249.54 22.8091 250.112 22.9614C250.683 23.1137 251.178 23.3327 251.597 23.6183L251.125 24.7607C250.697 24.4751 250.245 24.2704 249.769 24.1467C249.293 24.0134 248.831 23.9467 248.384 23.9467C247.822 23.9467 247.36 24.0181 246.999 24.1609C246.637 24.3037 246.37 24.4941 246.199 24.7321C246.037 24.9701 245.956 25.2367 245.956 25.5318C245.956 25.8841 246.066 26.1649 246.285 26.3743C246.513 26.5838 246.803 26.7504 247.156 26.8741C247.517 26.9979 247.912 27.1121 248.341 27.2169C248.769 27.3121 249.198 27.4215 249.626 27.5453C250.064 27.6691 250.459 27.8309 250.811 28.0308C251.173 28.2307 251.463 28.4973 251.682 28.8305C251.901 29.1637 252.011 29.5921 252.011 30.1157C252.011 30.6203 251.873 31.0915 251.597 31.5294C251.321 31.9578 250.892 32.3053 250.311 32.5719C249.74 32.8289 249.017 32.9574 248.141 32.9574Z" fill="#122368"/>
<path d="M254.097 32.8432V22.8472H255.525V32.8432H254.097Z" fill="#122368"/>
<path d="M261.431 32.9574C260.669 32.9574 259.941 32.8432 259.246 32.6147C258.551 32.3767 258.004 32.0721 257.604 31.7008L258.132 30.5869C258.513 30.9201 258.998 31.1962 259.589 31.4152C260.179 31.6341 260.793 31.7436 261.431 31.7436C262.012 31.7436 262.483 31.677 262.845 31.5437C263.206 31.4104 263.473 31.2295 263.644 31.0011C263.816 30.7631 263.901 30.4965 263.901 30.2014C263.901 29.8587 263.787 29.5826 263.559 29.3731C263.34 29.1637 263.049 28.9971 262.687 28.8733C262.335 28.7401 261.945 28.6258 261.516 28.5306C261.088 28.4354 260.655 28.3259 260.217 28.2022C259.789 28.0689 259.394 27.9023 259.032 27.7024C258.68 27.5025 258.394 27.2359 258.175 26.9027C257.956 26.56 257.847 26.1221 257.847 25.5889C257.847 25.0749 257.98 24.6036 258.246 24.1752C258.522 23.7373 258.941 23.3898 259.503 23.1328C260.074 22.8662 260.798 22.7329 261.674 22.7329C262.254 22.7329 262.83 22.8091 263.401 22.9614C263.973 23.1137 264.468 23.3327 264.887 23.6183L264.415 24.7607C263.987 24.4751 263.535 24.2704 263.059 24.1467C262.583 24.0134 262.121 23.9467 261.674 23.9467C261.112 23.9467 260.65 24.0181 260.288 24.1609C259.927 24.3037 259.66 24.4941 259.489 24.7321C259.327 24.9701 259.246 25.2367 259.246 25.5318C259.246 25.8841 259.355 26.1649 259.574 26.3743C259.803 26.5838 260.093 26.7504 260.445 26.8741C260.807 26.9979 261.202 27.1121 261.631 27.2169C262.059 27.3121 262.488 27.4215 262.916 27.5453C263.354 27.6691 263.749 27.8309 264.101 28.0308C264.463 28.2307 264.753 28.4973 264.972 28.8305C265.191 29.1637 265.301 29.5921 265.301 30.1157C265.301 30.6203 265.163 31.0915 264.887 31.5294C264.61 31.9578 264.182 32.3053 263.601 32.5719C263.03 32.8289 262.307 32.9574 261.431 32.9574Z" fill="#122368"/>
<path d="M269.232 32.8432V24.0895H265.805V22.8472H274.073V24.0895H270.646V32.8432H269.232Z" fill="#122368"/>
<path d="M273.613 32.8432L278.14 22.8472H279.553L284.094 32.8432H282.595L278.554 23.6469H279.125L275.084 32.8432H273.613ZM275.541 30.3442L275.926 29.2018H281.553L281.967 30.3442H275.541Z" fill="#122368"/>
<path d="M285.586 32.8432V22.8472H286.757L293.368 31.0582H292.754V22.8472H294.182V32.8432H293.011L286.399 24.6322H287.014V32.8432H285.586Z" fill="#122368"/>
<path d="M299.159 32.8432V24.0895H295.732V22.8472H304V24.0895H300.573V32.8432H299.159Z" fill="#122368"/>
<path d="M37.1684 21.2718C37.1684 20.7246 36.6915 20.2993 36.136 20.2993C33.1243 20.2993 30.2359 19.103 28.1061 16.9736C25.9763 14.8442 24.7795 11.956 24.779 8.94429C24.7771 7.39686 25.0927 5.86549 25.7061 4.44485C25.9962 3.77375 25.7743 2.96843 25.1259 2.61533L21.8416 0.828152C20.8425 0.284703 19.7232 0 18.5858 0C17.4484 0 16.3291 0.284703 15.3299 0.828152L3.55991 7.23042C2.48299 7.8158 1.58391 8.68082 0.957393 9.73434C0.330877 10.7879 0.000129606 11.9909 1.18881e-08 13.2166V25.3335C-7.23678e-05 26.559 0.330365 27.7619 0.956505 28.8154C1.58265 29.8689 2.48131 30.734 3.55785 31.3197L15.3279 37.722C16.327 38.2654 17.4463 38.5501 18.5837 38.5501C19.7211 38.5501 20.8404 38.2654 21.8396 37.722L33.6096 31.3197C34.6863 30.7342 35.5852 29.8691 36.2115 28.8156C36.8378 27.7621 37.1684 26.5591 37.1684 25.3335V21.2718Z" fill="#122368"/>
<path d="M28.9756 13.6007V8.1161C28.9756 6.26043 30.4799 4.7561 32.3356 4.7561H33.6877C34.576 4.7561 35.4282 5.10788 36.0578 5.73451L37.6233 7.29241C38.2569 7.923 38.6131 8.78008 38.6131 9.67401V11.0336C38.6131 12.8893 37.1088 14.3936 35.2531 14.3936H29.7685C29.5588 14.3936 29.3578 14.3106 29.2092 14.1628C29.0596 14.0139 28.9756 13.8117 28.9756 13.6007Z" fill="#FE7070"/>
<path d="M62.3293 16.2056H76.0686C76.8526 16.2056 77.4882 16.8411 77.4882 17.6252V20.4537C77.4882 21.2377 76.8526 21.8733 76.0686 21.8733H62.3293V16.2056ZM62.8691 29.1604H78.5876C79.3716 29.1604 80.0072 29.7959 80.0072 30.58V33.5884C80.0072 34.3724 79.3716 35.008 78.5876 35.008H58.4662C56.8981 35.008 55.627 33.7369 55.627 32.1688V9.48294C55.627 6.19005 58.2964 3.52063 61.5893 3.52063H78.0028C78.7868 3.52063 79.4224 4.15621 79.4224 4.94023V7.94869C79.4224 8.73271 78.7868 9.36829 78.0028 9.36829H62.8691V29.1604Z" fill="#122368"/>
<path d="M98.4132 35.008C96.2277 35.008 94.2515 33.7084 93.3858 31.7017L81.2277 3.52063H85.158C87.5481 3.52063 89.7073 4.948 90.6437 7.1471L100.975 31.4095H96.3416L106.842 7.11724C107.786 4.93411 109.937 3.52063 112.315 3.52063H115.639L103.438 31.7077C102.571 33.7112 100.596 35.008 98.4132 35.008Z" fill="#122368"/>
<path d="M113.075 35.008L125.644 6.80963C126.535 4.80921 128.52 3.52063 130.711 3.52063C132.898 3.52063 134.882 4.80642 135.775 6.80359L148.386 35.008H144.723C142.312 35.008 140.137 33.5554 139.215 31.3275L129.224 7.20915H132.103L126.322 21.1086L122.07 31.3351C121.145 33.559 118.973 35.008 116.564 35.008H113.075ZM120.092 28.2607L122.027 22.7279H138.22L140.199 28.2607H120.092Z" fill="#122368"/>
</svg>
