<svg width="149" height="40" viewBox="0 0 149 40" fill="none" xmlns="http://www.w3.org/2000/svg">
<path d="M37.1684 22.1673C37.1684 21.6107 36.6915 21.1781 36.136 21.1781C33.1243 21.1781 30.2359 19.9615 28.1061 17.7958C25.9763 15.6301 24.7795 12.6927 24.779 9.62973C24.7771 8.05594 25.0927 6.49849 25.7061 5.05364C25.9962 4.37111 25.7743 3.55208 25.1259 3.19297L21.8416 1.37534C20.8425 0.822634 19.7232 0.533081 18.5858 0.533081C17.4484 0.533081 16.3291 0.822634 15.3299 1.37534L3.55991 7.88666C2.48299 8.48201 1.58391 9.36177 0.957393 10.4332C0.330877 11.5047 0.000129606 12.7282 1.18881e-08 13.9748V26.2981C-7.23678e-05 27.5445 0.330365 28.7679 0.956505 29.8393C1.58265 30.9108 2.48131 31.7907 3.55785 32.3863L15.3279 38.8976C16.327 39.4503 17.4463 39.7399 18.5837 39.7399C19.7211 39.7399 20.8404 39.4503 21.8396 38.8976L33.6096 32.3863C34.6863 31.7908 35.5852 30.911 36.2115 29.8395C36.8378 28.7681 37.1684 27.5446 37.1684 26.2981V22.1673Z" fill="#122368"/>
<path d="M28.9756 12.6007V7.11607C28.9756 5.2604 30.4799 3.75607 32.3356 3.75607H33.6877C34.576 3.75607 35.4282 4.10785 36.0578 4.73448L37.6233 6.29238C38.2569 6.92297 38.6131 7.78005 38.6131 8.67398V10.0336C38.6131 11.8893 37.1088 13.3936 35.2531 13.3936H29.7685C29.5588 13.3936 29.3578 13.3106 29.2092 13.1627C29.0596 13.0139 28.9756 12.8117 28.9756 12.6007Z" fill="#FE7070"/>
<path d="M62.3293 15.2054H76.0686C76.8526 15.2054 77.4882 15.841 77.4882 16.625V19.4536C77.4882 20.2376 76.8526 20.8732 76.0686 20.8732H62.3293V15.2054ZM62.8691 28.1602H78.5876C79.3716 28.1602 80.0072 28.7958 80.0072 29.5798V32.5883C80.0072 33.3723 79.3716 34.0079 78.5876 34.0079H58.4662C56.8981 34.0079 55.627 32.7367 55.627 31.1687V8.48282C55.627 5.18992 58.2964 2.52051 61.5893 2.52051H78.0028C78.7868 2.52051 79.4224 3.15608 79.4224 3.94011V6.94857C79.4224 7.73259 78.7868 8.36817 78.0028 8.36817H62.8691V28.1602Z" fill="#122368"/>
<path d="M98.4132 34.0079C96.2277 34.0079 94.2515 32.7083 93.3858 30.7016L81.2277 2.52051H85.158C87.5481 2.52051 89.7073 3.94788 90.6437 6.14698L100.975 30.4093H96.3416L106.842 6.11712C107.786 3.93399 109.937 2.52051 112.315 2.52051H115.639L103.438 30.7076C102.571 32.7111 100.596 34.0079 98.4132 34.0079Z" fill="#122368"/>
<path d="M113.075 34.0079L125.644 5.8095C126.535 3.80909 128.52 2.52051 130.711 2.52051C132.898 2.52051 134.882 3.8063 135.775 5.80347L148.386 34.0079H144.723C142.312 34.0079 140.137 32.5553 139.215 30.3274L129.224 6.20903H132.103L126.322 20.1085L122.07 30.335C121.145 32.5588 118.973 34.0079 116.564 34.0079H113.075ZM120.092 27.2606L122.027 21.7278H138.22L140.199 27.2606H120.092Z" fill="#122368"/>
</svg>
